Aarav Book.ufo
<glyph name="exclam" format="1">
  <advance width="258"/>
  <unicode hex="0021"/>
  <outline>
    <contour>
      <point x="127" y="104" type="curve" smooth="yes"/>
      <point x="110" y="104"/>
      <point x="100" y="87"/>
      <point x="85" y="86" type="curve" smooth="yes"/>
      <point x="78" y="85"/>
      <point x="71" y="54"/>
      <point x="71" y="35" type="curve" smooth="yes"/>
      <point x="71" y="25"/>
      <point x="88" y="-11"/>
      <point x="109" y="-11" type="curve" smooth="yes"/>
      <point x="149" y="-11"/>
      <point x="185" y="21"/>
      <point x="185" y="41" type="curve" smooth="yes"/>
      <point x="185" y="57"/>
      <point x="143" y="104"/>
    </contour>
    <contour>
      <point x="127" y="740" type="curve" smooth="yes"/>
      <point x="110" y="740"/>
      <point x="85" y="709"/>
      <point x="85" y="689" type="curve" smooth="yes"/>
      <point x="85" y="619"/>
      <point x="99" y="546"/>
      <point x="97" y="481" type="curve" smooth="yes"/>
      <point x="96" y="457"/>
      <point x="89" y="277"/>
      <point x="89" y="237" type="curve" smooth="yes"/>
      <point x="89" y="218"/>
      <point x="110" y="209"/>
      <point x="119" y="209" type="curve" smooth="yes"/>
      <point x="150" y="209"/>
      <point x="167" y="252"/>
      <point x="167" y="300" type="curve" smooth="yes"/>
      <point x="167" y="369"/>
      <point x="163" y="428"/>
      <point x="163" y="486" type="curve" smooth="yes"/>
      <point x="163" y="557"/>
      <point x="178" y="624"/>
      <point x="178" y="690" type="curve" smooth="yes"/>
      <point x="178" y="708"/>
      <point x="152" y="740"/>
    </contour>
  </outline>
</glyph>
<glyph name="quotedbl" format="1">
  <advance width="357"/>
  <unicode hex="0022"/>
  <outline>
    <contour>
      <point x="77" y="720" type="curve" smooth="yes"/>
      <point x="59" y="720"/>
      <point x="43" y="694"/>
      <point x="47" y="679" type="curve" smooth="yes"/>
      <point x="54" y="631"/>
      <point x="50" y="573"/>
      <point x="50" y="529" type="curve" smooth="yes"/>
      <point x="50" y="510"/>
      <point x="70" y="492"/>
      <point x="92" y="492" type="curve" smooth="yes"/>
      <point x="113" y="492"/>
      <point x="128" y="514"/>
      <point x="128" y="533" type="curve" smooth="yes"/>
      <point x="128" y="558"/>
      <point x="123" y="584"/>
      <point x="123" y="605" type="curve" smooth="yes"/>
      <point x="123" y="631"/>
      <point x="134" y="659"/>
      <point x="134" y="682" type="curve" smooth="yes"/>
      <point x="134" y="700"/>
      <point x="108" y="720"/>
    </contour>
    <contour>
      <point x="265" y="730" type="curve" smooth="yes"/>
      <point x="243" y="730"/>
      <point x="224" y="712"/>
      <point x="224" y="692" type="curve"/>
      <point x="223" y="645"/>
      <point x="231" y="593"/>
      <point x="218" y="550" type="curve" smooth="yes"/>
      <point x="211" y="522"/>
      <point x="229" y="497"/>
      <point x="254" y="497" type="curve" smooth="yes"/>
      <point x="278" y="497"/>
      <point x="294" y="522"/>
      <point x="294" y="542" type="curve" smooth="yes"/>
      <point x="294" y="574"/>
      <point x="300" y="622"/>
      <point x="300" y="647" type="curve" smooth="yes"/>
      <point x="300" y="661"/>
      <point x="310" y="674"/>
      <point x="310" y="686" type="curve" smooth="yes"/>
      <point x="310" y="694"/>
      <point x="294" y="730"/>
    </contour>
  </outline>
</glyph>
<glyph name="numbersign" format="1">
  <advance width="735"/>
  <unicode hex="0023"/>
  <outline>
    <contour>
      <point x="586" y="655" type="curve" smooth="yes"/>
      <point x="565" y="655"/>
      <point x="555" y="664"/>
      <point x="534" y="593" type="curve" smooth="yes"/>
      <point x="523" y="559"/>
      <point x="512" y="532"/>
      <point x="498" y="500" type="curve"/>
      <point x="447" y="499"/>
      <point x="403" y="496"/>
      <point x="359" y="496" type="curve"/>
      <point x="376" y="535"/>
      <point x="398" y="584"/>
      <point x="408" y="595" type="curve" smooth="yes"/>
      <point x="414" y="601"/>
      <point x="420" y="624"/>
      <point x="420" y="643" type="curve" smooth="yes"/>
      <point x="420" y="652"/>
      <point x="409" y="670"/>
      <point x="400" y="670" type="curve" smooth="yes"/>
      <point x="364" y="670"/>
      <point x="337" y="644"/>
      <point x="317" y="591" type="curve" smooth="yes"/>
      <point x="306" y="561"/>
      <point x="296" y="532"/>
      <point x="284" y="496" type="curve"/>
      <point x="238" y="497"/>
      <point x="198" y="502"/>
      <point x="155" y="502" type="curve" smooth="yes"/>
      <point x="125" y="502"/>
      <point x="115" y="486"/>
      <point x="110" y="469" type="curve" smooth="yes"/>
      <point x="107" y="455"/>
      <point x="103" y="424"/>
      <point x="133" y="424" type="curve" smooth="yes"/>
      <point x="175" y="424"/>
      <point x="205" y="430"/>
      <point x="261" y="432" type="curve"/>
      <point x="245" y="390"/>
      <point x="235" y="358"/>
      <point x="203" y="283" type="curve" smooth="yes"/>
      <point x="201" y="279"/>
      <point x="199" y="273"/>
      <point x="192" y="261" type="curve"/>
      <point x="156" y="263"/>
      <point x="121" y="266"/>
      <point x="86" y="266" type="curve" smooth="yes"/>
      <point x="42" y="266"/>
      <point x="36" y="242"/>
      <point x="36" y="230" type="curve" smooth="yes"/>
      <point x="36" y="205"/>
      <point x="61" y="193"/>
      <point x="77" y="193" type="curve" smooth="yes"/>
      <point x="81" y="193"/>
      <point x="94" y="193"/>
      <point x="166" y="195" type="curve" smooth="yes"/>
      <point x="142" y="146"/>
      <point x="95" y="78"/>
      <point x="95" y="29" type="curve" smooth="yes"/>
      <point x="95" y="0"/>
      <point x="112" y="-16"/>
      <point x="144" y="-16" type="curve" smooth="yes"/>
      <point x="158" y="-16"/>
      <point x="173" y="-5"/>
      <point x="173" y="5" type="curve" smooth="yes"/>
      <point x="173" y="23"/>
      <point x="177" y="32"/>
      <point x="185" y="60" type="curve" smooth="yes"/>
      <point x="199" y="104"/>
      <point x="219" y="147"/>
      <point x="237" y="197" type="curve"/>
      <point x="282" y="198"/>
      <point x="320" y="199"/>
      <point x="348" y="199" type="curve" smooth="yes"/>
      <point x="382" y="199" type="line"/>
      <point x="343" y="95"/>
      <point x="340" y="85"/>
      <point x="316" y="41" type="curve" smooth="yes"/>
      <point x="299" y="10"/>
      <point x="325" y="-6"/>
      <point x="350" y="-6" type="curve" smooth="yes"/>
      <point x="398" y="-6"/>
      <point x="390" y="32"/>
      <point x="402" y="67" type="curve" smooth="yes"/>
      <point x="410" y="92"/>
      <point x="409" y="92"/>
      <point x="450" y="194" type="curve"/>
      <point x="501" y="192"/>
      <point x="564" y="188"/>
      <point x="575" y="188" type="curve" smooth="yes"/>
      <point x="595" y="188"/>
      <point x="623" y="205"/>
      <point x="623" y="230" type="curve" smooth="yes"/>
      <point x="623" y="252"/>
      <point x="615" y="262"/>
      <point x="581" y="262" type="curve" smooth="yes"/>
      <point x="544" y="262"/>
      <point x="518" y="261"/>
      <point x="478" y="260" type="curve"/>
      <point x="484" y="278"/>
      <point x="484" y="276"/>
      <point x="486" y="282" type="curve" smooth="yes"/>
      <point x="502" y="325"/>
      <point x="523" y="377"/>
      <point x="548" y="437" type="curve"/>
      <point x="645" y="437" type="line" smooth="yes"/>
      <point x="659" y="437"/>
      <point x="694" y="447"/>
      <point x="701" y="479" type="curve" smooth="yes"/>
      <point x="705" y="506"/>
      <point x="679" y="511"/>
      <point x="649" y="511" type="curve"/>
      <point x="638" y="511"/>
      <point x="622" y="509"/>
      <point x="577" y="505" type="curve"/>
      <point x="594" y="546"/>
      <point x="611" y="585"/>
      <point x="618" y="594" type="curve"/>
      <point x="641" y="613"/>
      <point x="607" y="655"/>
    </contour>
    <contour>
      <point x="476" y="437" type="curve"/>
      <point x="452" y="373"/>
      <point x="436" y="329"/>
      <point x="418" y="286" type="curve" smooth="yes"/>
      <point x="414" y="280"/>
      <point x="411" y="270"/>
      <point x="405" y="259" type="curve"/>
      <point x="341" y="260"/>
      <point x="271" y="261"/>
      <point x="211" y="263" type="curve" smooth="yes"/>
      <point x="264" y="259" type="line"/>
      <point x="266" y="263"/>
      <point x="268" y="269"/>
      <point x="270" y="276" type="curve" smooth="yes"/>
      <point x="294" y="335"/>
      <point x="312" y="386"/>
      <point x="333" y="435" type="curve"/>
      <point x="379" y="436"/>
      <point x="426" y="437"/>
    </contour>
  </outline>
</glyph>
<glyph name="dollar" format="1">
  <advance width="528"/>
  <unicode hex="0024"/>
  <outline>
    <contour>
      <point x="279" y="763" type="curve" smooth="yes"/>
      <point x="255" y="763"/>
      <point x="227" y="749"/>
      <point x="227" y="726" type="curve" smooth="yes"/>
      <point x="227" y="708"/>
      <point x="229" y="686"/>
      <point x="231" y="627" type="curve"/>
      <point x="127" y="595"/>
      <point x="67" y="530"/>
      <point x="67" y="480" type="curve" smooth="yes"/>
      <point x="67" y="391"/>
      <point x="138" y="366"/>
      <point x="232" y="349" type="curve"/>
      <point x="231" y="258"/>
      <point x="230" y="223"/>
      <point x="229" y="181" type="curve"/>
      <point x="164" y="183"/>
      <point x="141" y="196"/>
      <point x="122" y="211" type="curve" smooth="yes"/>
      <point x="102" y="227"/>
      <point x="97" y="254"/>
      <point x="68" y="254" type="curve" smooth="yes"/>
      <point x="43" y="254"/>
      <point x="35" y="234"/>
      <point x="35" y="214" type="curve" smooth="yes"/>
      <point x="35" y="183"/>
      <point x="101" y="127"/>
      <point x="227" y="125" type="curve"/>
      <point x="225" y="87"/>
      <point x="225" y="79"/>
      <point x="225" y="74" type="curve" smooth="yes"/>
      <point x="224" y="45"/>
      <point x="211" y="29"/>
      <point x="211" y="12" type="curve" smooth="yes"/>
      <point x="211" y="3"/>
      <point x="227" y="-14"/>
      <point x="248" y="-14" type="curve" smooth="yes"/>
      <point x="274" y="-14"/>
      <point x="290" y="9"/>
      <point x="290" y="32" type="curve" smooth="yes"/>
      <point x="290" y="130" type="line"/>
      <point x="418" y="149"/>
      <point x="477" y="210"/>
      <point x="477" y="270" type="curve" smooth="yes"/>
      <point x="477" y="368"/>
      <point x="389" y="387"/>
      <point x="290" y="406" type="curve"/>
      <point x="290" y="448" type="line" smooth="yes"/>
      <point x="290" y="475"/>
      <point x="291" y="526"/>
      <point x="292" y="579" type="curve"/>
      <point x="357" y="577"/>
      <point x="332" y="520"/>
      <point x="380" y="520" type="curve" smooth="yes"/>
      <point x="405" y="520"/>
      <point x="415" y="544"/>
      <point x="415" y="565" type="curve" smooth="yes"/>
      <point x="415" y="588"/>
      <point x="386" y="640"/>
      <point x="321" y="640" type="curve" smooth="yes"/>
      <point x="316" y="640"/>
      <point x="307" y="640"/>
      <point x="294" y="638" type="curve"/>
      <point x="294" y="681" type="line" smooth="yes"/>
      <point x="294" y="705"/>
      <point x="299" y="723"/>
      <point x="299" y="742" type="curve" smooth="yes"/>
      <point x="299" y="753"/>
      <point x="287" y="763"/>
    </contour>
    <contour>
      <point x="399" y="273" type="curve" smooth="yes"/>
      <point x="399" y="229"/>
      <point x="365" y="200"/>
      <point x="290" y="185" type="curve"/>
      <point x="290" y="340" type="line"/>
      <point x="344" y="331"/>
      <point x="399" y="318"/>
    </contour>
    <contour>
      <point x="142" y="483" type="curve" smooth="yes"/>
      <point x="142" y="516"/>
      <point x="178" y="547"/>
      <point x="233" y="569" type="curve"/>
      <point x="233" y="503" type="line" smooth="yes"/>
      <point x="233" y="463"/>
      <point x="232" y="447"/>
      <point x="232" y="417" type="curve" smooth="yes"/>
      <point x="176" y="430"/>
      <point x="142" y="446"/>
    </contour>
  </outline>
</glyph>
<glyph name="percent" format="1">
  <advance width="822"/>
  <unicode hex="0025"/>
  <outline>
    <contour>
      <point x="534" y="725" type="curve" smooth="yes"/>
      <point x="500" y="725"/>
      <point x="471" y="698"/>
      <point x="453" y="647" type="curve" smooth="yes"/>
      <point x="386" y="462"/>
      <point x="376" y="441"/>
      <point x="323" y="310" type="curve" smooth="yes"/>
      <point x="273" y="186"/>
      <point x="208" y="77"/>
      <point x="208" y="37" type="curve" smooth="yes"/>
      <point x="208" y="-3"/>
      <point x="248" y="-10"/>
      <point x="264" y="-10" type="curve" smooth="yes"/>
      <point x="280" y="-10"/>
      <point x="293" y="1"/>
      <point x="293" y="13" type="curve" smooth="yes"/>
      <point x="293" y="32"/>
      <point x="289" y="47"/>
      <point x="295" y="68" type="curve" smooth="yes"/>
      <point x="320" y="150"/>
      <point x="359" y="228"/>
      <point x="389" y="306" type="curve" smooth="yes"/>
      <point x="470" y="507"/>
      <point x="534" y="641"/>
      <point x="548" y="655" type="curve" smooth="yes"/>
      <point x="554" y="662"/>
      <point x="560" y="688"/>
      <point x="557" y="704" type="curve" smooth="yes"/>
      <point x="555" y="712"/>
      <point x="542" y="725"/>
    </contour>
    <contour>
      <point x="526" y="327" type="curve" smooth="yes"/>
      <point x="507" y="326"/>
      <point x="479" y="315"/>
      <point x="475" y="287" type="curve"/>
      <point x="462" y="281"/>
      <point x="454" y="272"/>
      <point x="454" y="259" type="curve" smooth="yes"/>
      <point x="454" y="246"/>
      <point x="458" y="233"/>
      <point x="473" y="230" type="curve"/>
      <point x="468" y="201"/>
      <point x="461" y="174"/>
      <point x="461" y="148" type="curve" smooth="yes"/>
      <point x="461" y="92"/>
      <point x="480" y="3"/>
      <point x="567" y="3" type="curve" smooth="yes"/>
      <point x="683" y="3"/>
      <point x="765" y="119"/>
      <point x="765" y="171" type="curve" smooth="yes"/>
      <point x="765" y="254"/>
      <point x="687" y="299"/>
      <point x="633" y="299" type="curve" smooth="yes"/>
      <point x="608" y="299"/>
      <point x="588" y="296"/>
      <point x="569" y="293" type="curve"/>
      <point x="561" y="321"/>
      <point x="543" y="327"/>
    </contour>
    <contour>
      <point x="697" y="171" type="curve" smooth="yes"/>
      <point x="697" y="122"/>
      <point x="631" y="73"/>
      <point x="580" y="73" type="curve" smooth="yes"/>
      <point x="556" y="73"/>
      <point x="530" y="94"/>
      <point x="530" y="144" type="curve" smooth="yes"/>
      <point x="530" y="168"/>
      <point x="534" y="195"/>
      <point x="547" y="227" type="curve"/>
      <point x="595" y="231"/>
      <point x="697" y="238"/>
    </contour>
    <contour>
      <point x="48" y="532" type="curve" smooth="yes"/>
      <point x="48" y="433"/>
      <point x="106" y="373"/>
      <point x="159" y="373" type="curve" smooth="yes"/>
      <point x="265" y="373"/>
      <point x="332" y="468"/>
      <point x="332" y="522" type="curve" smooth="yes"/>
      <point x="332" y="598"/>
      <point x="271" y="704"/>
      <point x="152" y="704" type="curve" smooth="yes"/>
      <point x="115" y="704"/>
      <point x="93" y="663"/>
      <point x="61" y="660" type="curve" smooth="yes"/>
      <point x="50" y="659"/>
      <point x="36" y="642"/>
      <point x="36" y="624" type="curve" smooth="yes"/>
      <point x="36" y="609"/>
      <point x="49" y="596"/>
      <point x="64" y="599" type="curve"/>
      <point x="52" y="577"/>
      <point x="48" y="553"/>
    </contour>
    <contour>
      <point x="182" y="629" type="curve" smooth="yes"/>
      <point x="223" y="629"/>
      <point x="265" y="601"/>
      <point x="265" y="546" type="curve" smooth="yes"/>
      <point x="265" y="477"/>
      <point x="200" y="439"/>
      <point x="175" y="439" type="curve" smooth="yes"/>
      <point x="149" y="439"/>
      <point x="111" y="465"/>
      <point x="111" y="520" type="curve" smooth="yes"/>
      <point x="111" y="582"/>
      <point x="164" y="596"/>
      <point x="164" y="618" type="curve" smooth="yes"/>
      <point x="164" y="626" type="line"/>
      <point x="169" y="628"/>
      <point x="179" y="629"/>
    </contour>
  </outline>
</glyph>
<glyph name="ampersand" format="1">
  <advance width="607"/>
  <unicode hex="0026"/>
  <outline>
    <contour>
      <point x="520" y="-49" type="curve" smooth="yes"/>
      <point x="540" y="-48"/>
      <point x="559" y="-31"/>
      <point x="558" y="-12" type="curve" smooth="yes"/>
      <point x="556" y="16"/>
      <point x="523" y="37"/>
      <point x="505" y="54" type="curve" smooth="yes"/>
      <point x="498" y="61"/>
      <point x="490" y="68"/>
      <point x="478" y="83" type="curve"/>
      <point x="529" y="145"/>
      <point x="557" y="216"/>
      <point x="557" y="287" type="curve" smooth="yes"/>
      <point x="557" y="294"/>
      <point x="547" y="318"/>
      <point x="532" y="318" type="curve" smooth="yes"/>
      <point x="522" y="318"/>
      <point x="492" y="307"/>
      <point x="491" y="289" type="curve" smooth="yes"/>
      <point x="488" y="239"/>
      <point x="474" y="187"/>
      <point x="432" y="137" type="curve"/>
      <point x="369" y="213"/>
      <point x="313" y="289"/>
      <point x="267" y="363" type="curve"/>
      <point x="349" y="413"/>
      <point x="418" y="462"/>
      <point x="418" y="538" type="curve" smooth="yes"/>
      <point x="418" y="610"/>
      <point x="343" y="701"/>
      <point x="257" y="701" type="curve" smooth="yes"/>
      <point x="186" y="701"/>
      <point x="116" y="595"/>
      <point x="116" y="554" type="curve" smooth="yes"/>
      <point x="116" y="515"/>
      <point x="131" y="461"/>
      <point x="172" y="386" type="curve"/>
      <point x="82" y="332"/>
      <point x="35" y="287"/>
      <point x="35" y="196" type="curve" smooth="yes"/>
      <point x="35" y="137"/>
      <point x="71" y="0"/>
      <point x="294" y="0" type="curve" smooth="yes"/>
      <point x="335" y="0"/>
      <point x="376" y="13"/>
      <point x="422" y="40" type="curve" smooth="yes"/>
      <point x="436" y="21"/>
      <point x="449" y="6"/>
      <point x="466" y="-19" type="curve" smooth="yes"/>
      <point x="483" y="-42"/>
      <point x="511" y="-49"/>
    </contour>
    <contour>
      <point x="286" y="69" type="curve" smooth="yes"/>
      <point x="179" y="69"/>
      <point x="105" y="137"/>
      <point x="105" y="191" type="curve" smooth="yes"/>
      <point x="105" y="263"/>
      <point x="147" y="287"/>
      <point x="207" y="327" type="curve"/>
      <point x="254" y="256"/>
      <point x="308" y="182"/>
      <point x="377" y="92" type="curve"/>
      <point x="340" y="72"/>
      <point x="313" y="69"/>
    </contour>
    <contour>
      <point x="187" y="550" type="curve" smooth="yes"/>
      <point x="187" y="586"/>
      <point x="229" y="624"/>
      <point x="259" y="624" type="curve" smooth="yes"/>
      <point x="305" y="624"/>
      <point x="344" y="571"/>
      <point x="344" y="544" type="curve" smooth="yes"/>
      <point x="344" y="501"/>
      <point x="297" y="463"/>
      <point x="234" y="421" type="curve"/>
      <point x="203" y="484"/>
      <point x="187" y="516"/>
    </contour>
  </outline>
</glyph>
<glyph name="quotesingle" format="1">
  <advance width="179"/>
  <unicode hex="0027"/>
  <outline>
    <contour>
      <point x="90" y="719" type="curve" smooth="yes"/>
      <point x="69" y="719"/>
      <point x="54" y="704"/>
      <point x="54" y="686" type="curve" smooth="yes"/>
      <point x="54" y="627"/>
      <point x="49" y="586"/>
      <point x="49" y="538" type="curve" smooth="yes"/>
      <point x="49" y="505"/>
      <point x="64" y="487"/>
      <point x="86" y="487" type="curve" smooth="yes"/>
      <point x="108" y="487"/>
      <point x="123" y="512"/>
      <point x="123" y="531" type="curve" smooth="yes"/>
      <point x="123" y="576"/>
      <point x="126" y="608"/>
      <point x="126" y="640" type="curve" smooth="yes"/>
      <point x="126" y="653"/>
      <point x="135" y="666"/>
      <point x="135" y="678" type="curve" smooth="yes"/>
      <point x="135" y="687"/>
      <point x="118" y="719"/>
    </contour>
  </outline>
</glyph>
<glyph name="parenleft" format="1">
  <advance width="440"/>
  <unicode hex="0028"/>
  <outline>
    <contour>
      <point x="306" y="736" type="curve" smooth="yes"/>
      <point x="295" y="736"/>
      <point x="269" y="728"/>
      <point x="249" y="698" type="curve" smooth="yes"/>
      <point x="148" y="549"/>
      <point x="58" y="383"/>
      <point x="58" y="198" type="curve" smooth="yes"/>
      <point x="58" y="-11"/>
      <point x="136" y="-142"/>
      <point x="262" y="-142" type="curve" smooth="yes"/>
      <point x="323" y="-142"/>
      <point x="365" y="-119"/>
      <point x="365" y="-104" type="curve" smooth="yes"/>
      <point x="365" y="-74"/>
      <point x="312" y="-87"/>
      <point x="295" y="-87" type="curve" smooth="yes"/>
      <point x="243" y="-87"/>
      <point x="128" y="-49"/>
      <point x="128" y="190" type="curve" smooth="yes"/>
      <point x="128" y="375"/>
      <point x="263" y="626"/>
      <point x="297" y="626" type="curve" smooth="yes"/>
      <point x="312" y="626"/>
      <point x="324" y="609"/>
      <point x="338" y="609" type="curve" smooth="yes"/>
      <point x="352" y="609"/>
      <point x="370" y="639"/>
      <point x="370" y="651" type="curve" smooth="yes"/>
      <point x="370" y="664"/>
      <point x="350" y="736"/>
    </contour>
  </outline>
</glyph>
<glyph name="parenright" format="1">
  <advance width="421"/>
  <unicode hex="0029"/>
  <outline>
    <contour>
      <point x="88" y="733" type="curve" smooth="yes"/>
      <point x="64" y="733"/>
      <point x="43" y="712"/>
      <point x="43" y="694" type="curve" smooth="yes"/>
      <point x="43" y="676"/>
      <point x="64" y="652"/>
      <point x="89" y="641" type="curve" smooth="yes"/>
      <point x="143" y="618"/>
      <point x="281" y="381"/>
      <point x="281" y="222" type="curve" smooth="yes"/>
      <point x="281" y="71"/>
      <point x="212" y="-15"/>
      <point x="101" y="-79" type="curve" smooth="yes"/>
      <point x="70" y="-96"/>
      <point x="82" y="-132"/>
      <point x="122" y="-132" type="curve" smooth="yes"/>
      <point x="157" y="-132"/>
      <point x="355" y="-21"/>
      <point x="355" y="239" type="curve" smooth="yes"/>
      <point x="355" y="380"/>
      <point x="257" y="579"/>
      <point x="167" y="673" type="curve"/>
      <point x="158" y="700"/>
      <point x="109" y="733"/>
    </contour>
  </outline>
</glyph>
<glyph name="asterisk" format="1">
  <advance width="423"/>
  <unicode hex="002A"/>
  <outline>
    <contour>
      <point x="372" y="483" type="curve" smooth="yes"/>
      <point x="372" y="521"/>
      <point x="320" y="526"/>
      <point x="269" y="551" type="curve" smooth="yes"/>
      <point x="261" y="555"/>
      <point x="254" y="559"/>
      <point x="250" y="562" type="curve"/>
      <point x="276" y="581"/>
      <point x="281" y="582"/>
      <point x="289" y="586" type="curve" smooth="yes"/>
      <point x="308" y="600"/>
      <point x="364" y="624"/>
      <point x="364" y="645" type="curve" smooth="yes"/>
      <point x="364" y="671"/>
      <point x="345" y="677"/>
      <point x="331" y="677" type="curve" smooth="yes"/>
      <point x="323" y="677"/>
      <point x="314" y="675"/>
      <point x="308" y="671" type="curve" smooth="yes"/>
      <point x="289" y="659"/>
      <point x="271" y="641"/>
      <point x="231" y="612" type="curve"/>
      <point x="228" y="664"/>
      <point x="242" y="672"/>
      <point x="242" y="701" type="curve" smooth="yes"/>
      <point x="242" y="711"/>
      <point x="224" y="735"/>
      <point x="203" y="735" type="curve" smooth="yes"/>
      <point x="188" y="735"/>
      <point x="170" y="725"/>
      <point x="170" y="682" type="curve" smooth="yes"/>
      <point x="170" y="673"/>
      <point x="173" y="650"/>
      <point x="177" y="607" type="curve"/>
      <point x="115" y="647"/>
      <point x="99" y="665"/>
      <point x="84" y="665" type="curve" smooth="yes"/>
      <point x="66" y="665"/>
      <point x="47" y="652"/>
      <point x="47" y="637" type="curve" smooth="yes"/>
      <point x="47" y="624"/>
      <point x="50" y="614"/>
      <point x="64" y="606" type="curve" smooth="yes"/>
      <point x="74" y="599"/>
      <point x="139" y="565"/>
      <point x="150" y="558" type="curve"/>
      <point x="147" y="556"/>
      <point x="144" y="554"/>
      <point x="137" y="550" type="curve" smooth="yes"/>
      <point x="112" y="536"/>
      <point x="52" y="515"/>
      <point x="52" y="484" type="curve" smooth="yes"/>
      <point x="52" y="466"/>
      <point x="63" y="450"/>
      <point x="79" y="450" type="curve" smooth="yes"/>
      <point x="107" y="450"/>
      <point x="155" y="494"/>
      <point x="177" y="511" type="curve"/>
      <point x="177" y="465"/>
      <point x="175" y="443"/>
      <point x="178" y="417" type="curve" smooth="yes"/>
      <point x="181" y="388"/>
      <point x="196" y="370"/>
      <point x="212" y="370" type="curve" smooth="yes"/>
      <point x="233" y="370"/>
      <point x="245" y="395"/>
      <point x="245" y="409" type="curve" smooth="yes"/>
      <point x="245" y="432"/>
      <point x="235" y="465"/>
      <point x="233" y="514" type="curve"/>
      <point x="245" y="504" type="line"/>
      <point x="288" y="473"/>
      <point x="316" y="449"/>
      <point x="340" y="449" type="curve" smooth="yes"/>
      <point x="358" y="449"/>
      <point x="372" y="457"/>
    </contour>
  </outline>
</glyph>
<glyph name="plus" format="1">
  <advance width="695"/>
  <unicode hex="002B"/>
  <outline>
    <contour>
      <point x="93" y="335" type="curve" smooth="yes"/>
      <point x="93" y="292"/>
      <point x="120" y="289"/>
      <point x="137" y="289" type="curve" smooth="yes"/>
      <point x="163" y="289"/>
      <point x="241" y="293"/>
      <point x="312" y="300" type="curve"/>
      <point x="302" y="220"/>
      <point x="293" y="150"/>
      <point x="293" y="113" type="curve" smooth="yes"/>
      <point x="293" y="79"/>
      <point x="318" y="50"/>
      <point x="340" y="50" type="curve" smooth="yes"/>
      <point x="359" y="50"/>
      <point x="376" y="74"/>
      <point x="376" y="88" type="curve" smooth="yes"/>
      <point x="376" y="108"/>
      <point x="375" y="115"/>
      <point x="375" y="123" type="curve" smooth="yes"/>
      <point x="375" y="154"/>
      <point x="382" y="227"/>
      <point x="391" y="306" type="curve"/>
      <point x="438" y="305"/>
      <point x="479" y="304"/>
      <point x="519" y="304" type="curve" smooth="yes"/>
      <point x="539" y="304"/>
      <point x="555" y="297"/>
      <point x="568" y="298" type="curve" smooth="yes"/>
      <point x="586" y="298"/>
      <point x="604" y="315"/>
      <point x="604" y="338" type="curve" smooth="yes"/>
      <point x="604" y="351"/>
      <point x="597" y="382"/>
      <point x="577" y="382" type="curve" smooth="yes"/>
      <point x="561" y="382"/>
      <point x="543" y="376"/>
      <point x="527" y="376" type="curve" smooth="yes"/>
      <point x="508" y="376"/>
      <point x="462" y="374"/>
      <point x="400" y="370" type="curve"/>
      <point x="405" y="426"/>
      <point x="417" y="479"/>
      <point x="417" y="530" type="curve" smooth="yes"/>
      <point x="417" y="565"/>
      <point x="403" y="596"/>
      <point x="377" y="596" type="curve" smooth="yes"/>
      <point x="360" y="596"/>
      <point x="329" y="574"/>
      <point x="329" y="541" type="curve" smooth="yes"/>
      <point x="329" y="500"/>
      <point x="330" y="475"/>
      <point x="330" y="451" type="curve" smooth="yes"/>
      <point x="330" y="432"/>
      <point x="327" y="402"/>
      <point x="322" y="366" type="curve"/>
      <point x="304" y="365"/>
      <point x="289" y="364"/>
      <point x="278" y="364" type="curve" smooth="yes"/>
      <point x="224" y="364"/>
      <point x="182" y="370"/>
      <point x="136" y="370" type="curve" smooth="yes"/>
      <point x="126" y="370"/>
      <point x="93" y="364"/>
    </contour>
  </outline>
</glyph>
<glyph name="comma" format="1">
  <advance width="188"/>
  <unicode hex="002C"/>
  <outline>
    <contour>
      <point x="47" y="7" type="curve" smooth="yes"/>
      <point x="38" y="-33"/>
      <point x="8" y="-98"/>
      <point x="8" y="-110" type="curve" smooth="yes"/>
      <point x="8" y="-130"/>
      <point x="21" y="-141"/>
      <point x="37" y="-141" type="curve" smooth="yes"/>
      <point x="48" y="-141"/>
      <point x="75" y="-135"/>
      <point x="83" y="-107" type="curve" smooth="yes"/>
      <point x="95" y="-67"/>
      <point x="102" y="-45"/>
      <point x="118" y="-14" type="curve" smooth="yes"/>
      <point x="131" y="9"/>
      <point x="149" y="31"/>
      <point x="149" y="56" type="curve" smooth="yes"/>
      <point x="149" y="89"/>
      <point x="138" y="106"/>
      <point x="97" y="106" type="curve" smooth="yes"/>
      <point x="56" y="106"/>
      <point x="52" y="31"/>
    </contour>
  </outline>
</glyph>
<glyph name="hyphen" format="1">
  <advance width="460"/>
  <unicode hex="002D"/>
  <outline>
    <contour>
      <point x="409" y="288" type="curve" smooth="yes"/>
      <point x="409" y="305"/>
      <point x="402" y="329"/>
      <point x="354" y="329" type="curve" smooth="yes"/>
      <point x="328" y="329"/>
      <point x="305" y="326"/>
      <point x="282" y="326" type="curve" smooth="yes"/>
      <point x="281" y="326"/>
      <point x="164" y="326"/>
      <point x="102" y="318" type="curve"/>
      <point x="67" y="316"/>
      <point x="53" y="300"/>
      <point x="53" y="276" type="curve" smooth="yes"/>
      <point x="53" y="250"/>
      <point x="78" y="239"/>
      <point x="94" y="239" type="curve" smooth="yes"/>
      <point x="126" y="239"/>
      <point x="126" y="252"/>
      <point x="302" y="252" type="curve" smooth="yes"/>
      <point x="328" y="252"/>
      <point x="350" y="242"/>
      <point x="374" y="242" type="curve" smooth="yes"/>
      <point x="385" y="242"/>
      <point x="409" y="261"/>
    </contour>
  </outline>
</glyph>
<glyph name="period" format="1">
  <advance width="201"/>
  <unicode hex="002E"/>
  <outline>
    <contour>
      <point x="105" y="105" type="curve" smooth="yes"/>
      <point x="83" y="105"/>
      <point x="53" y="100"/>
      <point x="52" y="77" type="curve" smooth="yes"/>
      <point x="51" y="57"/>
      <point x="40" y="44"/>
      <point x="40" y="25" type="curve" smooth="yes"/>
      <point x="40" y="12"/>
      <point x="47" y="-8"/>
      <point x="77" y="-8" type="curve" smooth="yes"/>
      <point x="93" y="-8"/>
      <point x="121" y="-5"/>
      <point x="131" y="7" type="curve" smooth="yes"/>
      <point x="144" y="24"/>
      <point x="162" y="34"/>
      <point x="162" y="50" type="curve" smooth="yes"/>
      <point x="162" y="89"/>
      <point x="125" y="105"/>
    </contour>
  </outline>
</glyph>
<glyph name="slash" format="1">
  <advance width="451"/>
  <unicode hex="002F"/>
  <outline>
    <contour>
      <point x="361" y="740" type="curve" smooth="yes"/>
      <point x="337" y="740"/>
      <point x="312" y="724"/>
      <point x="312" y="704" type="curve" smooth="yes"/>
      <point x="312" y="679"/>
      <point x="308" y="661"/>
      <point x="302" y="642" type="curve" smooth="yes"/>
      <point x="301" y="639"/>
      <point x="187" y="310"/>
      <point x="167" y="261" type="curve" smooth="yes"/>
      <point x="77" y="43"/>
      <point x="57" y="-1"/>
      <point x="17" y="-43" type="curve" smooth="yes"/>
      <point x="9" y="-51"/>
      <point x="4" y="-68"/>
      <point x="4" y="-90" type="curve" smooth="yes"/>
      <point x="4" y="-106"/>
      <point x="26" y="-126"/>
      <point x="52" y="-126" type="curve" smooth="yes"/>
      <point x="96" y="-126"/>
      <point x="151" y="30"/>
      <point x="169" y="71" type="curve" smooth="yes"/>
      <point x="216" y="181"/>
      <point x="368" y="595"/>
      <point x="374" y="614" type="curve" smooth="yes"/>
      <point x="383" y="643"/>
      <point x="408" y="663"/>
      <point x="408" y="689" type="curve" smooth="yes"/>
      <point x="408" y="719"/>
      <point x="381" y="740"/>
    </contour>
  </outline>
</glyph>
<glyph name="zero" format="1">
  <advance width="553"/>
  <unicode hex="0030"/>
  <outline>
    <contour>
      <point x="218" y="717" type="curve" smooth="yes"/>
      <point x="176" y="717"/>
      <point x="113" y="689"/>
      <point x="113" y="662" type="curve" smooth="yes"/>
      <point x="113" y="625"/>
      <point x="130" y="616"/>
      <point x="141" y="616" type="curve" smooth="yes"/>
      <point x="150" y="616"/>
      <point x="162" y="620"/>
      <point x="174" y="626" type="curve" smooth="yes"/>
      <point x="191" y="634"/>
      <point x="206" y="637"/>
      <point x="222" y="637" type="curve" smooth="yes"/>
      <point x="379" y="637"/>
      <point x="447" y="427"/>
      <point x="447" y="316" type="curve" smooth="yes"/>
      <point x="447" y="189"/>
      <point x="365" y="51"/>
      <point x="244" y="51" type="curve" smooth="yes"/>
      <point x="165" y="51"/>
      <point x="103" y="135"/>
      <point x="103" y="242" type="curve" smooth="yes"/>
      <point x="103" y="389"/>
      <point x="146" y="459"/>
      <point x="174" y="499" type="curve" smooth="yes"/>
      <point x="184" y="515"/>
      <point x="192" y="528"/>
      <point x="192" y="537" type="curve" smooth="yes"/>
      <point x="192" y="574"/>
      <point x="177" y="591"/>
      <point x="146" y="591" type="curve"/>
      <point x="111" y="591"/>
      <point x="33" y="484"/>
      <point x="33" y="261" type="curve" smooth="yes"/>
      <point x="33" y="123"/>
      <point x="110" y="-17"/>
      <point x="255" y="-17" type="curve" smooth="yes"/>
      <point x="445" y="-17"/>
      <point x="519" y="212"/>
      <point x="519" y="302" type="curve" smooth="yes"/>
      <point x="519" y="544"/>
      <point x="355" y="717"/>
    </contour>
  </outline>
</glyph>
<glyph name="one" format="1">
  <advance width="330"/>
  <unicode hex="0031"/>
  <outline>
    <contour>
      <point x="155" y="729" type="curve" smooth="yes"/>
      <point x="133" y="729"/>
      <point x="115" y="701"/>
      <point x="115" y="688" type="curve" smooth="yes"/>
      <point x="115" y="682"/>
      <point x="117" y="671"/>
      <point x="120" y="659" type="curve" smooth="yes"/>
      <point x="127" y="628"/>
      <point x="134" y="581"/>
      <point x="134" y="522" type="curve" smooth="yes"/>
      <point x="134" y="474"/>
      <point x="131" y="390"/>
      <point x="128" y="327" type="curve" smooth="yes"/>
      <point x="126" y="261"/>
      <point x="125" y="220"/>
      <point x="125" y="199" type="curve" smooth="yes"/>
      <point x="125" y="168"/>
      <point x="131" y="143"/>
      <point x="131" y="116" type="curve" smooth="yes"/>
      <point x="131" y="94"/>
      <point x="120" y="76"/>
      <point x="120" y="56" type="curve" smooth="yes"/>
      <point x="120" y="35"/>
      <point x="149" y="-6"/>
      <point x="172" y="-6" type="curve" smooth="yes"/>
      <point x="190" y="-6"/>
      <point x="226" y="10"/>
      <point x="226" y="29" type="curve" smooth="yes"/>
      <point x="226" y="81"/>
      <point x="198" y="122"/>
      <point x="198" y="171" type="curve" smooth="yes"/>
      <point x="198" y="192"/>
      <point x="204" y="330"/>
      <point x="210" y="455" type="curve" smooth="yes"/>
      <point x="216" y="560"/>
      <point x="220" y="648"/>
      <point x="220" y="660" type="curve" smooth="yes"/>
      <point x="218" y="695"/>
      <point x="182" y="729"/>
    </contour>
  </outline>
</glyph>
<glyph name="two" format="1">
  <advance width="540"/>
  <unicode hex="0032"/>
  <outline>
    <contour>
      <point x="267" y="729" type="curve" smooth="yes"/>
      <point x="173" y="729"/>
      <point x="92" y="704"/>
      <point x="92" y="664" type="curve" smooth="yes"/>
      <point x="92" y="637"/>
      <point x="106" y="596"/>
      <point x="129" y="596" type="curve" smooth="yes"/>
      <point x="161" y="596"/>
      <point x="168" y="636"/>
      <point x="192" y="648" type="curve" smooth="yes"/>
      <point x="210" y="657"/>
      <point x="253" y="661"/>
      <point x="280" y="661" type="curve" smooth="yes"/>
      <point x="316" y="661"/>
      <point x="384" y="622"/>
      <point x="384" y="524" type="curve" smooth="yes"/>
      <point x="384" y="397"/>
      <point x="224" y="252"/>
      <point x="118" y="161" type="curve" smooth="yes"/>
      <point x="93" y="139"/>
      <point x="71" y="117"/>
      <point x="43" y="96" type="curve" smooth="yes"/>
      <point x="33" y="88"/>
      <point x="9" y="81"/>
      <point x="9" y="66" type="curve" smooth="yes"/>
      <point x="9" y="36"/>
      <point x="24" y="-9"/>
      <point x="64" y="-9" type="curve" smooth="yes"/>
      <point x="163" y="-9"/>
      <point x="254" y="6"/>
      <point x="345" y="6" type="curve" smooth="yes"/>
      <point x="407" y="6"/>
      <point x="425" y="5"/>
      <point x="454" y="5" type="curve" smooth="yes"/>
      <point x="488" y="5"/>
      <point x="495" y="34"/>
      <point x="495" y="47" type="curve" smooth="yes"/>
      <point x="495" y="79"/>
      <point x="476" y="96"/>
      <point x="459" y="96" type="curve" smooth="yes"/>
      <point x="438" y="96"/>
      <point x="422" y="75"/>
      <point x="398" y="75" type="curve" smooth="yes"/>
      <point x="386" y="75"/>
      <point x="192" y="68"/>
      <point x="110" y="64" type="curve"/>
      <point x="158" y="114"/>
      <point x="193" y="146"/>
      <point x="240" y="187" type="curve" smooth="yes"/>
      <point x="340" y="274"/>
      <point x="464" y="388"/>
      <point x="464" y="531" type="curve" smooth="yes"/>
      <point x="464" y="652"/>
      <point x="388" y="729"/>
    </contour>
  </outline>
</glyph>
<glyph name="three" format="1">
  <advance width="558"/>
  <unicode hex="0033"/>
  <outline>
    <contour>
      <point x="248" y="718" type="curve" smooth="yes"/>
      <point x="166" y="718"/>
      <point x="66" y="709"/>
      <point x="66" y="656" type="curve" smooth="yes"/>
      <point x="66" y="618"/>
      <point x="93" y="593"/>
      <point x="111" y="593" type="curve" smooth="yes"/>
      <point x="137" y="593"/>
      <point x="150" y="633"/>
      <point x="162" y="642" type="curve" smooth="yes"/>
      <point x="176" y="652"/>
      <point x="230" y="656"/>
      <point x="246" y="656" type="curve" smooth="yes"/>
      <point x="349" y="656"/>
      <point x="369" y="610"/>
      <point x="369" y="578" type="curve" smooth="yes"/>
      <point x="369" y="450"/>
      <point x="219" y="390"/>
      <point x="147" y="381" type="curve" smooth="yes"/>
      <point x="124" y="378"/>
      <point x="117" y="360"/>
      <point x="117" y="351" type="curve" smooth="yes"/>
      <point x="117" y="337"/>
      <point x="144" y="296"/>
      <point x="161" y="296" type="curve" smooth="yes"/>
      <point x="172" y="296"/>
      <point x="179" y="301"/>
      <point x="189" y="306" type="curve" smooth="yes"/>
      <point x="207" y="315"/>
      <point x="233" y="328"/>
      <point x="284" y="328" type="curve" smooth="yes"/>
      <point x="344" y="328"/>
      <point x="451" y="260"/>
      <point x="451" y="183" type="curve" smooth="yes"/>
      <point x="451" y="108"/>
      <point x="360" y="46"/>
      <point x="250" y="46" type="curve" smooth="yes"/>
      <point x="204" y="46"/>
      <point x="142" y="53"/>
      <point x="120" y="62" type="curve"/>
      <point x="92" y="71"/>
      <point x="86" y="108"/>
      <point x="51" y="108" type="curve" smooth="yes"/>
      <point x="29" y="108"/>
      <point x="3" y="82"/>
      <point x="3" y="51" type="curve" smooth="yes"/>
      <point x="3" y="2"/>
      <point x="94" y="-15"/>
      <point x="244" y="-15" type="curve" smooth="yes"/>
      <point x="348" y="-15"/>
      <point x="524" y="26"/>
      <point x="524" y="179" type="curve" smooth="yes"/>
      <point x="524" y="279"/>
      <point x="440" y="355"/>
      <point x="327" y="388" type="curve"/>
      <point x="401" y="439"/>
      <point x="445" y="510"/>
      <point x="445" y="574" type="curve" smooth="yes"/>
      <point x="445" y="642"/>
      <point x="391" y="718"/>
    </contour>
  </outline>
</glyph>
<glyph name="four" format="1">
  <advance width="646"/>
  <unicode hex="0034"/>
  <outline>
    <contour>
      <point x="491" y="580" type="curve" smooth="yes"/>
      <point x="463" y="580"/>
      <point x="439" y="551"/>
      <point x="439" y="536" type="curve" smooth="yes"/>
      <point x="439" y="499"/>
      <point x="448" y="468"/>
      <point x="448" y="434" type="curve" smooth="yes"/>
      <point x="448" y="411"/>
      <point x="445" y="374"/>
      <point x="439" y="314" type="curve"/>
      <point x="353" y="312"/>
      <point x="251" y="308"/>
      <point x="139" y="306" type="curve"/>
      <point x="206" y="392"/>
      <point x="321" y="541"/>
      <point x="354" y="572" type="curve" smooth="yes"/>
      <point x="386" y="602"/>
      <point x="445" y="633"/>
      <point x="445" y="668" type="curve" smooth="yes"/>
      <point x="445" y="690"/>
      <point x="441" y="717"/>
      <point x="399" y="717" type="curve" smooth="yes"/>
      <point x="373" y="717"/>
      <point x="336" y="676"/>
      <point x="322" y="652" type="curve" smooth="yes"/>
      <point x="310" y="633"/>
      <point x="255" y="564"/>
      <point x="218" y="519" type="curve" smooth="yes"/>
      <point x="172" y="465"/>
      <point x="87" y="334"/>
      <point x="35" y="307" type="curve" smooth="yes"/>
      <point x="32" y="305"/>
      <point x="17" y="299"/>
      <point x="17" y="283" type="curve" smooth="yes"/>
      <point x="17" y="261"/>
      <point x="30" y="220"/>
      <point x="69" y="220" type="curve" smooth="yes"/>
      <point x="82" y="220"/>
      <point x="118" y="224"/>
      <point x="204" y="232" type="curve" smooth="yes"/>
      <point x="304" y="243"/>
      <point x="365" y="248"/>
      <point x="388" y="248" type="curve"/>
      <point x="432" y="248" type="line"/>
      <point x="419" y="138"/>
      <point x="410" y="61"/>
      <point x="410" y="33" type="curve" smooth="yes"/>
      <point x="410" y="6"/>
      <point x="428" y="-16"/>
      <point x="445" y="-16" type="curve" smooth="yes"/>
      <point x="471" y="-16"/>
      <point x="489" y="4"/>
      <point x="491" y="29" type="curve" smooth="yes"/>
      <point x="493" y="73"/>
      <point x="496" y="112"/>
      <point x="500" y="152" type="curve" smooth="yes"/>
      <point x="503" y="184"/>
      <point x="505" y="213"/>
      <point x="510" y="254" type="curve"/>
      <point x="540" y="256"/>
      <point x="564" y="257"/>
      <point x="591" y="257" type="curve" smooth="yes"/>
      <point x="612" y="257"/>
      <point x="621" y="286"/>
      <point x="621" y="300" type="curve" smooth="yes"/>
      <point x="621" y="314"/>
      <point x="602" y="330"/>
      <point x="588" y="330" type="curve" smooth="yes"/>
      <point x="570" y="330"/>
      <point x="543" y="325"/>
      <point x="515" y="320" type="curve"/>
      <point x="518" y="363"/>
      <point x="518" y="382"/>
      <point x="518" y="396" type="curve" smooth="yes"/>
      <point x="518" y="470"/>
      <point x="537" y="482"/>
      <point x="537" y="532" type="curve" smooth="yes"/>
      <point x="537" y="549"/>
      <point x="512" y="580"/>
    </contour>
  </outline>
</glyph>
<glyph name="five" format="1">
  <advance width="605"/>
  <unicode hex="0035"/>
  <outline>
    <contour>
      <point x="195" y="636" type="curve" smooth="yes"/>
      <point x="159" y="636"/>
      <point x="165" y="538"/>
      <point x="145" y="499" type="curve" smooth="yes"/>
      <point x="135" y="478"/>
      <point x="118" y="451"/>
      <point x="100" y="427" type="curve" smooth="yes"/>
      <point x="80" y="401"/>
      <point x="54" y="371"/>
      <point x="54" y="358" type="curve" smooth="yes"/>
      <point x="54" y="342"/>
      <point x="88" y="300"/>
      <point x="104" y="300" type="curve" smooth="yes"/>
      <point x="115" y="300"/>
      <point x="128" y="307"/>
      <point x="141" y="312" type="curve" smooth="yes"/>
      <point x="175" y="325"/>
      <point x="226" y="344"/>
      <point x="312" y="344" type="curve" smooth="yes"/>
      <point x="398" y="344"/>
      <point x="464" y="298"/>
      <point x="464" y="240" type="curve" smooth="yes"/>
      <point x="464" y="109"/>
      <point x="321" y="54"/>
      <point x="201" y="54" type="curve" smooth="yes"/>
      <point x="138" y="54"/>
      <point x="97" y="66"/>
      <point x="82" y="83" type="curve" smooth="yes"/>
      <point x="70" y="95"/>
      <point x="66" y="123"/>
      <point x="45" y="123" type="curve" smooth="yes"/>
      <point x="19" y="123"/>
      <point x="6" y="94"/>
      <point x="6" y="64" type="curve" smooth="yes"/>
      <point x="6" y="39"/>
      <point x="43" y="-14"/>
      <point x="210" y="-14" type="curve" smooth="yes"/>
      <point x="378" y="-14"/>
      <point x="543" y="106"/>
      <point x="543" y="228" type="curve" smooth="yes"/>
      <point x="543" y="372"/>
      <point x="409" y="407"/>
      <point x="285" y="407" type="curve" smooth="yes"/>
      <point x="251" y="407"/>
      <point x="213" y="401"/>
      <point x="150" y="378" type="curve"/>
      <point x="177" y="430"/>
      <point x="252" y="530"/>
      <point x="252" y="573" type="curve" smooth="yes"/>
      <point x="252" y="600"/>
      <point x="220" y="636"/>
    </contour>
    <contour>
      <point x="259" y="622" type="curve" smooth="yes"/>
      <point x="258" y="602"/>
      <point x="276" y="588"/>
      <point x="290" y="588" type="curve" smooth="yes"/>
      <point x="309" y="588"/>
      <point x="320" y="600"/>
      <point x="329" y="605" type="curve" smooth="yes"/>
      <point x="352" y="620"/>
      <point x="410" y="636"/>
      <point x="487" y="636" type="curve" smooth="yes"/>
      <point x="515" y="636"/>
      <point x="538" y="625"/>
      <point x="562" y="625" type="curve" smooth="yes"/>
      <point x="585" y="625"/>
      <point x="601" y="658"/>
      <point x="601" y="670" type="curve" smooth="yes"/>
      <point x="601" y="690"/>
      <point x="577" y="715"/>
      <point x="529" y="715" type="curve" smooth="yes"/>
      <point x="451" y="715"/>
      <point x="383" y="700"/>
      <point x="349" y="690" type="curve" smooth="yes"/>
      <point x="314" y="680"/>
      <point x="259" y="657"/>
    </contour>
  </outline>
</glyph>
<glyph name="six" format="1">
  <advance width="522"/>
  <unicode hex="0036"/>
  <outline>
    <contour>
      <point x="345" y="729" type="curve" smooth="yes"/>
      <point x="333" y="729"/>
      <point x="320" y="724"/>
      <point x="312" y="719" type="curve" smooth="yes"/>
      <point x="281" y="702"/>
      <point x="163" y="516"/>
      <point x="130" y="441" type="curve" smooth="yes"/>
      <point x="108" y="391"/>
      <point x="85" y="334"/>
      <point x="70" y="267" type="curve"/>
      <point x="43" y="243"/>
      <point x="32" y="226"/>
      <point x="32" y="198" type="curve" smooth="yes"/>
      <point x="32" y="186"/>
      <point x="44" y="166"/>
      <point x="63" y="157" type="curve"/>
      <point x="87" y="48"/>
      <point x="160" y="-12"/>
      <point x="268" y="-12" type="curve" smooth="yes"/>
      <point x="376" y="-12"/>
      <point x="488" y="34"/>
      <point x="488" y="125" type="curve" smooth="yes"/>
      <point x="488" y="259"/>
      <point x="349" y="318"/>
      <point x="269" y="318" type="curve" smooth="yes"/>
      <point x="252" y="318"/>
      <point x="198" y="318"/>
      <point x="151" y="303" type="curve"/>
      <point x="193" y="428"/>
      <point x="243" y="552"/>
      <point x="333" y="629" type="curve" smooth="yes"/>
      <point x="338" y="632"/>
      <point x="345" y="635"/>
      <point x="353" y="640" type="curve" smooth="yes"/>
      <point x="370" y="649"/>
      <point x="376" y="658"/>
      <point x="376" y="671" type="curve" smooth="yes"/>
      <point x="376" y="697"/>
      <point x="373" y="729"/>
    </contour>
    <contour>
      <point x="258" y="255" type="curve" smooth="yes"/>
      <point x="336" y="255"/>
      <point x="416" y="193"/>
      <point x="416" y="130" type="curve" smooth="yes"/>
      <point x="416" y="86"/>
      <point x="359" y="49"/>
      <point x="274" y="49" type="curve" smooth="yes"/>
      <point x="193" y="49"/>
      <point x="134" y="98"/>
      <point x="134" y="161" type="curve" smooth="yes"/>
      <point x="134" y="183"/>
      <point x="133" y="202"/>
      <point x="140" y="231" type="curve"/>
      <point x="172" y="247"/>
      <point x="211" y="255"/>
    </contour>
  </outline>
</glyph>
<glyph name="seven" format="1">
  <advance width="498"/>
  <unicode hex="0037"/>
  <outline>
    <contour>
      <point x="34" y="705" type="curve" smooth="yes"/>
      <point x="13" y="705"/>
      <point x="-1" y="682"/>
      <point x="-1" y="657" type="curve" smooth="yes"/>
      <point x="-1" y="638"/>
      <point x="15" y="606"/>
      <point x="43" y="606" type="curve" smooth="yes"/>
      <point x="127" y="606"/>
      <point x="206" y="636"/>
      <point x="295" y="636" type="curve" smooth="yes"/>
      <point x="317" y="636"/>
      <point x="331" y="638"/>
      <point x="386" y="641" type="curve"/>
      <point x="313" y="496"/>
      <point x="213" y="108"/>
      <point x="211" y="63" type="curve" smooth="yes"/>
      <point x="210" y="33"/>
      <point x="229" y="-9"/>
      <point x="258" y="-9" type="curve" smooth="yes"/>
      <point x="288" y="-9"/>
      <point x="319" y="18"/>
      <point x="319" y="39" type="curve" smooth="yes"/>
      <point x="319" y="45"/>
      <point x="317" y="54"/>
      <point x="313" y="62" type="curve" smooth="yes"/>
      <point x="308" y="74"/>
      <point x="301" y="85"/>
      <point x="301" y="99" type="curve" smooth="yes"/>
      <point x="301" y="125"/>
      <point x="338" y="297"/>
      <point x="360" y="374" type="curve" smooth="yes"/>
      <point x="389" y="471"/>
      <point x="421" y="554"/>
      <point x="455" y="630" type="curve" smooth="yes"/>
      <point x="465" y="652"/>
      <point x="471" y="663"/>
      <point x="471" y="669" type="curve" smooth="yes"/>
      <point x="471" y="700"/>
      <point x="439" y="729"/>
      <point x="417" y="729" type="curve" smooth="yes"/>
      <point x="396" y="729"/>
      <point x="376" y="711"/>
      <point x="355" y="705" type="curve"/>
      <point x="320" y="699"/>
      <point x="124" y="687"/>
      <point x="103" y="687" type="curve" smooth="yes"/>
      <point x="78" y="687"/>
      <point x="58" y="705"/>
    </contour>
  </outline>
</glyph>
<glyph name="eight" format="1">
  <advance width="530"/>
  <unicode hex="0038"/>
  <outline>
    <contour>
      <point x="437" y="547" type="curve" smooth="yes"/>
      <point x="437" y="638"/>
      <point x="367" y="712"/>
      <point x="276" y="712" type="curve" smooth="yes"/>
      <point x="213" y="712"/>
      <point x="47" y="639"/>
      <point x="47" y="471" type="curve" smooth="yes"/>
      <point x="47" y="364"/>
      <point x="124" y="312"/>
      <point x="195" y="275" type="curve"/>
      <point x="132" y="193"/>
      <point x="107" y="137"/>
      <point x="107" y="87" type="curve" smooth="yes"/>
      <point x="107" y="26"/>
      <point x="150" y="-19"/>
      <point x="263" y="-19" type="curve" smooth="yes"/>
      <point x="395" y="-19"/>
      <point x="475" y="63"/>
      <point x="475" y="137" type="curve" smooth="yes"/>
      <point x="475" y="211"/>
      <point x="376" y="263"/>
      <point x="294" y="302" type="curve"/>
      <point x="319" y="336"/>
      <point x="392" y="421"/>
      <point x="423" y="433" type="curve" smooth="yes"/>
      <point x="444" y="441"/>
      <point x="451" y="452"/>
      <point x="451" y="462" type="curve" smooth="yes"/>
      <point x="451" y="473"/>
      <point x="443" y="486"/>
      <point x="429" y="501" type="curve"/>
      <point x="435" y="525"/>
      <point x="437" y="536"/>
    </contour>
    <contour>
      <point x="400" y="110" type="curve" smooth="yes"/>
      <point x="400" y="56"/>
      <point x="329" y="36"/>
      <point x="267" y="36" type="curve" smooth="yes"/>
      <point x="217" y="36"/>
      <point x="178" y="60"/>
      <point x="178" y="89" type="curve" smooth="yes"/>
      <point x="178" y="137"/>
      <point x="199" y="183"/>
      <point x="250" y="248" type="curve"/>
      <point x="347" y="202"/>
      <point x="400" y="168"/>
    </contour>
    <contour>
      <point x="240" y="331" type="curve"/>
      <point x="155" y="369"/>
      <point x="108" y="414"/>
      <point x="108" y="501" type="curve" smooth="yes"/>
      <point x="108" y="579"/>
      <point x="220" y="644"/>
      <point x="279" y="644" type="curve" smooth="yes"/>
      <point x="317" y="644"/>
      <point x="360" y="617"/>
      <point x="360" y="578" type="curve" smooth="yes"/>
      <point x="360" y="537"/>
      <point x="348" y="509"/>
      <point x="335" y="483" type="curve" smooth="yes"/>
      <point x="330" y="473"/>
      <point x="326" y="464"/>
      <point x="326" y="455" type="curve" smooth="yes"/>
      <point x="326" y="451"/>
      <point x="326" y="440"/>
      <point x="334" y="437" type="curve"/>
      <point x="298" y="399"/>
      <point x="271" y="369"/>
    </contour>
  </outline>
</glyph>
<glyph name="nine" format="1">
  <advance width="507"/>
  <unicode hex="0039"/>
  <outline>
    <contour>
      <point x="394" y="603" type="curve" smooth="yes"/>
      <point x="394" y="667"/>
      <point x="317" y="715"/>
      <point x="242" y="715" type="curve" smooth="yes"/>
      <point x="120" y="715"/>
      <point x="20" y="635"/>
      <point x="20" y="536" type="curve" smooth="yes"/>
      <point x="20" y="441"/>
      <point x="76" y="387"/>
      <point x="166" y="387" type="curve" smooth="yes"/>
      <point x="232" y="387"/>
      <point x="283" y="405"/>
      <point x="362" y="451" type="curve"/>
      <point x="347" y="341"/>
      <point x="334" y="262"/>
      <point x="326" y="182" type="curve" smooth="yes"/>
      <point x="322" y="137"/>
      <point x="308" y="93"/>
      <point x="284" y="53" type="curve" smooth="yes"/>
      <point x="280" y="47"/>
      <point x="278" y="42"/>
      <point x="278" y="38" type="curve" smooth="yes"/>
      <point x="278" y="13"/>
      <point x="302" y="-31"/>
      <point x="329" y="-31" type="curve" smooth="yes"/>
      <point x="360" y="-31"/>
      <point x="372" y="44"/>
      <point x="372" y="86" type="curve" smooth="yes"/>
      <point x="372" y="91"/>
      <point x="373" y="101"/>
      <point x="382" y="135" type="curve" smooth="yes"/>
      <point x="399" y="203"/>
      <point x="407" y="265"/>
      <point x="418" y="327" type="curve" smooth="yes"/>
      <point x="428" y="381"/>
      <point x="435" y="438"/>
      <point x="438" y="461" type="curve" smooth="yes"/>
      <point x="439" y="467"/>
      <point x="442" y="477"/>
      <point x="449" y="485" type="curve" smooth="yes"/>
      <point x="453" y="490"/>
      <point x="456" y="494"/>
      <point x="456" y="501" type="curve" smooth="yes"/>
      <point x="456" y="515"/>
      <point x="440" y="566"/>
      <point x="420" y="566" type="curve" smooth="yes"/>
      <point x="410" y="566"/>
      <point x="392" y="550"/>
      <point x="381" y="535" type="curve"/>
      <point x="393" y="558"/>
      <point x="394" y="585"/>
    </contour>
    <contour>
      <point x="186" y="449" type="curve" smooth="yes"/>
      <point x="122" y="449"/>
      <point x="84" y="482"/>
      <point x="84" y="526" type="curve" smooth="yes"/>
      <point x="84" y="612"/>
      <point x="167" y="646"/>
      <point x="236" y="646" type="curve" smooth="yes"/>
      <point x="279" y="646"/>
      <point x="314" y="621"/>
      <point x="314" y="600" type="curve" smooth="yes"/>
      <point x="314" y="576"/>
      <point x="295" y="557"/>
      <point x="295" y="534" type="curve" smooth="yes"/>
      <point x="295" y="511"/>
      <point x="307" y="500"/>
      <point x="326" y="496" type="curve"/>
      <point x="259" y="459"/>
      <point x="230" y="449"/>
    </contour>
  </outline>
</glyph>
<glyph name="colon" format="1">
  <advance width="222"/>
  <unicode hex="003A"/>
  <outline>
    <contour>
      <point x="106" y="118" type="curve" smooth="yes"/>
      <point x="92" y="118"/>
      <point x="66" y="99"/>
      <point x="56" y="83" type="curve" smooth="yes"/>
      <point x="52" y="76"/>
      <point x="48" y="48"/>
      <point x="48" y="40" type="curve" smooth="yes"/>
      <point x="48" y="23"/>
      <point x="80" y="-7"/>
      <point x="106" y="-7" type="curve" smooth="yes"/>
      <point x="136" y="-7"/>
      <point x="171" y="23"/>
      <point x="171" y="42" type="curve" smooth="yes"/>
      <point x="171" y="53"/>
      <point x="162" y="61"/>
      <point x="160" y="72" type="curve" smooth="yes"/>
      <point x="159" y="86"/>
      <point x="127" y="118"/>
    </contour>
    <contour>
      <point x="108" y="426" type="curve" smooth="yes"/>
      <point x="87" y="426"/>
      <point x="75" y="416"/>
      <point x="71" y="410" type="curve" smooth="yes"/>
      <point x="67" y="402"/>
      <point x="57" y="381"/>
      <point x="57" y="351" type="curve" smooth="yes"/>
      <point x="57" y="339"/>
      <point x="76" y="315"/>
      <point x="88" y="314" type="curve" smooth="yes"/>
      <point x="104" y="314"/>
      <point x="113" y="305"/>
      <point x="125" y="305" type="curve" smooth="yes"/>
      <point x="137" y="306"/>
      <point x="171" y="329"/>
      <point x="171" y="347" type="curve" smooth="yes"/>
      <point x="171" y="375"/>
      <point x="151" y="426"/>
    </contour>
  </outline>
</glyph>
<glyph name="semicolon" format="1">
  <advance width="214"/>
  <unicode hex="003B"/>
  <outline>
    <contour>
      <point x="120" y="109" type="curve" smooth="yes"/>
      <point x="79" y="109"/>
      <point x="70" y="83"/>
      <point x="67" y="69" type="curve" smooth="yes"/>
      <point x="61" y="41"/>
      <point x="59" y="15"/>
      <point x="53" y="-7" type="curve" smooth="yes"/>
      <point x="48" y="-27"/>
      <point x="50" y="-46"/>
      <point x="30" y="-87" type="curve" smooth="yes"/>
      <point x="24" y="-100"/>
      <point x="19" y="-104"/>
      <point x="19" y="-122" type="curve" smooth="yes"/>
      <point x="19" y="-129"/>
      <point x="21" y="-146"/>
      <point x="50" y="-146" type="curve" smooth="yes"/>
      <point x="79" y="-146"/>
      <point x="94" y="-112"/>
      <point x="118" y="-49" type="curve" smooth="yes"/>
      <point x="131" y="-15"/>
      <point x="161" y="37"/>
      <point x="161" y="64" type="curve" smooth="yes"/>
      <point x="161" y="80"/>
      <point x="149" y="109"/>
    </contour>
    <contour>
      <point x="96" y="433" type="curve" smooth="yes"/>
      <point x="75" y="433"/>
      <point x="50" y="397"/>
      <point x="50" y="380" type="curve" smooth="yes"/>
      <point x="50" y="336"/>
      <point x="63" y="309"/>
      <point x="117" y="309" type="curve" smooth="yes"/>
      <point x="142" y="309"/>
      <point x="164" y="339"/>
      <point x="164" y="353" type="curve" smooth="yes"/>
      <point x="164" y="373"/>
      <point x="158" y="401"/>
      <point x="142" y="404" type="curve" smooth="yes"/>
      <point x="123" y="408"/>
      <point x="115" y="433"/>
    </contour>
  </outline>
</glyph>
<glyph name="less" format="1">
  <advance width="695"/>
  <unicode hex="003C"/>
  <outline>
    <contour>
      <point x="561" y="590" type="curve" smooth="yes"/>
      <point x="551" y="590"/>
      <point x="522" y="577"/>
      <point x="512" y="565" type="curve" smooth="yes"/>
      <point x="492" y="542"/>
      <point x="152" y="384"/>
      <point x="131" y="383" type="curve" smooth="yes"/>
      <point x="90" y="383"/>
      <point x="69" y="365"/>
      <point x="69" y="325" type="curve" smooth="yes"/>
      <point x="69" y="273"/>
      <point x="136" y="282"/>
      <point x="166" y="268" type="curve" smooth="yes"/>
      <point x="183" y="260"/>
      <point x="447" y="95"/>
      <point x="498" y="63" type="curve" smooth="yes"/>
      <point x="518" y="50"/>
      <point x="542" y="39"/>
      <point x="561" y="39" type="curve" smooth="yes"/>
      <point x="593" y="39"/>
      <point x="597" y="74"/>
      <point x="597" y="82" type="curve" smooth="yes"/>
      <point x="595" y="112"/>
      <point x="482" y="165"/>
      <point x="453" y="183" type="curve" smooth="yes"/>
      <point x="393" y="219"/>
      <point x="278" y="282"/>
      <point x="199" y="332" type="curve"/>
      <point x="265" y="365"/>
      <point x="307" y="382"/>
      <point x="343" y="397" type="curve" smooth="yes"/>
      <point x="406" y="424"/>
      <point x="536" y="488"/>
      <point x="556" y="486" type="curve"/>
      <point x="584" y="487"/>
      <point x="596" y="533"/>
      <point x="596" y="548" type="curve" smooth="yes"/>
      <point x="596" y="570"/>
      <point x="577" y="590"/>
    </contour>
  </outline>
</glyph>
<glyph name="equal" format="1">
  <advance width="695"/>
  <unicode hex="003D"/>
  <outline>
    <contour>
      <point x="126" y="249" type="curve" smooth="yes"/>
      <point x="119" y="249"/>
      <point x="91" y="245"/>
      <point x="91" y="212" type="curve" smooth="yes"/>
      <point x="91" y="166"/>
      <point x="110" y="159"/>
      <point x="134" y="159" type="curve" smooth="yes"/>
      <point x="197" y="159"/>
      <point x="227" y="179"/>
      <point x="330" y="179" type="curve" smooth="yes"/>
      <point x="407" y="179"/>
      <point x="473" y="174"/>
      <point x="540" y="174" type="curve" smooth="yes"/>
      <point x="574" y="174"/>
      <point x="595" y="188"/>
      <point x="595" y="218" type="curve" smooth="yes"/>
      <point x="595" y="237"/>
      <point x="588" y="256"/>
      <point x="542" y="256" type="curve" smooth="yes"/>
      <point x="438" y="256"/>
      <point x="344" y="244"/>
      <point x="250" y="244" type="curve" smooth="yes"/>
      <point x="199" y="244"/>
      <point x="163" y="249"/>
    </contour>
    <contour>
      <point x="89" y="448" type="curve" smooth="yes"/>
      <point x="89" y="416"/>
      <point x="116" y="400"/>
      <point x="141" y="400" type="curve" smooth="yes"/>
      <point x="218" y="400"/>
      <point x="209" y="415"/>
      <point x="361" y="415" type="curve" smooth="yes"/>
      <point x="430" y="415"/>
      <point x="493" y="412"/>
      <point x="557" y="412" type="curve" smooth="yes"/>
      <point x="582" y="412"/>
      <point x="604" y="436"/>
      <point x="604" y="459" type="curve" smooth="yes"/>
      <point x="604" y="471"/>
      <point x="587" y="493"/>
      <point x="545" y="493" type="curve" smooth="yes"/>
      <point x="477" y="493"/>
      <point x="416" y="486"/>
      <point x="354" y="486" type="curve" smooth="yes"/>
      <point x="263" y="486"/>
      <point x="197" y="489"/>
      <point x="132" y="489" type="curve" smooth="yes"/>
      <point x="103" y="489"/>
      <point x="89" y="479"/>
    </contour>
  </outline>
</glyph>
<glyph name="greater" format="1">
  <advance width="695"/>
  <unicode hex="003E"/>
  <outline>
    <contour>
      <point x="164" y="587" type="curve" smooth="yes"/>
      <point x="138" y="587"/>
      <point x="116" y="560"/>
      <point x="116" y="543" type="curve" smooth="yes"/>
      <point x="116" y="524"/>
      <point x="134" y="495"/>
      <point x="158" y="485" type="curve" smooth="yes"/>
      <point x="236" y="453"/>
      <point x="424" y="370"/>
      <point x="515" y="320" type="curve"/>
      <point x="428" y="268"/>
      <point x="372" y="229"/>
      <point x="334" y="210" type="curve" smooth="yes"/>
      <point x="266" y="176"/>
      <point x="205" y="134"/>
      <point x="136" y="106" type="curve"/>
      <point x="84" y="83"/>
      <point x="85" y="16"/>
      <point x="139" y="16" type="curve" smooth="yes"/>
      <point x="179" y="16"/>
      <point x="238" y="71"/>
      <point x="391" y="164" type="curve" smooth="yes"/>
      <point x="448" y="198"/>
      <point x="567" y="281"/>
      <point x="597" y="282" type="curve" smooth="yes"/>
      <point x="621" y="282"/>
      <point x="624" y="296"/>
      <point x="624" y="321" type="curve" smooth="yes"/>
      <point x="624" y="341"/>
      <point x="613" y="370"/>
      <point x="597" y="373" type="curve"/>
      <point x="498" y="402"/>
      <point x="419" y="443"/>
      <point x="371" y="467" type="curve" smooth="yes"/>
      <point x="261" y="524"/>
      <point x="187" y="587"/>
    </contour>
  </outline>
</glyph>
<glyph name="question" format="1">
  <advance width="410"/>
  <unicode hex="003F"/>
  <outline>
    <contour>
      <point x="150" y="101" type="curve" smooth="yes"/>
      <point x="137" y="101"/>
      <point x="86" y="73"/>
      <point x="86" y="59" type="curve" smooth="yes"/>
      <point x="86" y="35"/>
      <point x="107" y="14"/>
      <point x="107" y="5" type="curve" smooth="yes"/>
      <point x="108" y="-5"/>
      <point x="127" y="-11"/>
      <point x="139" y="-11" type="curve" smooth="yes"/>
      <point x="170" y="-11"/>
      <point x="205" y="12"/>
      <point x="205" y="37" type="curve" smooth="yes"/>
      <point x="205" y="62"/>
      <point x="175" y="101"/>
    </contour>
    <contour>
      <point x="151" y="738" type="curve" smooth="yes"/>
      <point x="132" y="738"/>
      <point x="51" y="736"/>
      <point x="44" y="717" type="curve" smooth="yes"/>
      <point x="39" y="705"/>
      <point x="32" y="691"/>
      <point x="32" y="680" type="curve" smooth="yes"/>
      <point x="32" y="666"/>
      <point x="51" y="626"/>
      <point x="79" y="626" type="curve" smooth="yes"/>
      <point x="112" y="626"/>
      <point x="114" y="669"/>
      <point x="183" y="669" type="curve" smooth="yes"/>
      <point x="232" y="669"/>
      <point x="292" y="622"/>
      <point x="292" y="550" type="curve" smooth="yes"/>
      <point x="292" y="496"/>
      <point x="266" y="454"/>
      <point x="192" y="439" type="curve" smooth="yes"/>
      <point x="124" y="426"/>
      <point x="95" y="412"/>
      <point x="95" y="370" type="curve" smooth="yes"/>
      <point x="95" y="317"/>
      <point x="111" y="264"/>
      <point x="107" y="216" type="curve" smooth="yes"/>
      <point x="105" y="185"/>
      <point x="126" y="179"/>
      <point x="152" y="179" type="curve" smooth="yes"/>
      <point x="180" y="179"/>
      <point x="184" y="198"/>
      <point x="184" y="223" type="curve" smooth="yes"/>
      <point x="184" y="245"/>
      <point x="174" y="264"/>
      <point x="174" y="285" type="curve" smooth="yes"/>
      <point x="174" y="297"/>
      <point x="173" y="348"/>
      <point x="180" y="361" type="curve" smooth="yes"/>
      <point x="187" y="373"/>
      <point x="211" y="380"/>
      <point x="260" y="394" type="curve" smooth="yes"/>
      <point x="299" y="405"/>
      <point x="364" y="447"/>
      <point x="364" y="543" type="curve" smooth="yes"/>
      <point x="364" y="679"/>
      <point x="230" y="738"/>
    </contour>
  </outline>
</glyph>
<glyph name="at" format="1">
  <advance width="951"/>
  <unicode hex="0040"/>
  <outline>
    <contour>
      <point x="718" y="103" type="curve" smooth="yes"/>
      <point x="854" y="103"/>
      <point x="901" y="253"/>
      <point x="901" y="379" type="curve" smooth="yes"/>
      <point x="901" y="573"/>
      <point x="720" y="731"/>
      <point x="494" y="731" type="curve" smooth="yes"/>
      <point x="159" y="731"/>
      <point x="51" y="457"/>
      <point x="51" y="303" type="curve" smooth="yes"/>
      <point x="51" y="116"/>
      <point x="188" y="-74"/>
      <point x="447" y="-74" type="curve" smooth="yes"/>
      <point x="484" y="-74"/>
      <point x="519" y="-59"/>
      <point x="519" y="-33" type="curve" smooth="yes"/>
      <point x="519" y="23"/>
      <point x="431" y="-16"/>
      <point x="391" y="-9" type="curve" smooth="yes"/>
      <point x="176" y="33"/>
      <point x="127" y="190"/>
      <point x="127" y="312" type="curve" smooth="yes"/>
      <point x="127" y="429"/>
      <point x="216" y="664"/>
      <point x="480" y="664" type="curve" smooth="yes"/>
      <point x="684" y="664"/>
      <point x="832" y="538"/>
      <point x="832" y="364" type="curve" smooth="yes"/>
      <point x="832" y="266"/>
      <point x="801" y="166"/>
      <point x="725" y="166" type="curve" smooth="yes"/>
      <point x="656" y="166"/>
      <point x="662" y="254"/>
      <point x="662" y="307" type="curve" smooth="yes"/>
      <point x="662" y="358"/>
      <point x="687" y="399"/>
      <point x="687" y="439" type="curve" smooth="yes"/>
      <point x="687" y="454"/>
      <point x="677" y="470"/>
      <point x="658" y="470" type="curve" smooth="yes"/>
      <point x="652" y="470"/>
      <point x="645" y="466"/>
      <point x="641" y="461" type="curve"/>
      <point x="626" y="483"/>
      <point x="580" y="533"/>
      <point x="527" y="533" type="curve" smooth="yes"/>
      <point x="400" y="533"/>
      <point x="269" y="379"/>
      <point x="269" y="232" type="curve" smooth="yes"/>
      <point x="269" y="156"/>
      <point x="324" y="115"/>
      <point x="379" y="115" type="curve" smooth="yes"/>
      <point x="486" y="115"/>
      <point x="577" y="222"/>
      <point x="603" y="269" type="curve"/>
      <point x="602" y="170"/>
      <point x="636" y="103"/>
    </contour>
    <contour>
      <point x="526" y="476" type="curve" smooth="yes"/>
      <point x="558" y="476"/>
      <point x="588" y="439"/>
      <point x="588" y="416" type="curve" smooth="yes"/>
      <point x="588" y="328"/>
      <point x="488" y="177"/>
      <point x="388" y="177" type="curve" smooth="yes"/>
      <point x="354" y="177"/>
      <point x="340" y="208"/>
      <point x="340" y="230" type="curve" smooth="yes"/>
      <point x="340" y="315"/>
      <point x="419" y="476"/>
    </contour>
  </outline>
</glyph>
<glyph name="A" format="1">
  <advance width="588"/>
  <unicode hex="0041"/>
  <outline>
    <contour>
      <point x="260" y="771" type="move" name="top"/>
    </contour>
    <contour>
      <point x="282" y="721" type="curve" smooth="yes"/>
      <point x="276" y="721"/>
      <point x="266" y="719"/>
      <point x="255" y="710" type="curve"/>
      <point x="247" y="727"/>
      <point x="234" y="736"/>
      <point x="218" y="736" type="curve" smooth="yes"/>
      <point x="185" y="736"/>
      <point x="179" y="693"/>
      <point x="174" y="672" type="curve" smooth="yes"/>
      <point x="148" y="557"/>
      <point x="129" y="478"/>
      <point x="117" y="405" type="curve" smooth="yes"/>
      <point x="99" y="291"/>
      <point x="75" y="194"/>
      <point x="47" y="108" type="curve" smooth="yes"/>
      <point x="40" y="90"/>
      <point x="32" y="73"/>
      <point x="32" y="55" type="curve" smooth="yes"/>
      <point x="32" y="33"/>
      <point x="55" y="-17"/>
      <point x="82" y="-17" type="curve" smooth="yes"/>
      <point x="109" y="-17"/>
      <point x="135" y="19"/>
      <point x="135" y="43" type="curve" smooth="yes"/>
      <point x="135" y="54"/>
      <point x="136" y="98"/>
      <point x="151" y="196" type="curve"/>
      <point x="183" y="196"/>
      <point x="205" y="198"/>
      <point x="231" y="199" type="curve" smooth="yes"/>
      <point x="256" y="201"/>
      <point x="287" y="204"/>
      <point x="317" y="204" type="curve" smooth="yes"/>
      <point x="435" y="204" type="line"/>
      <point x="460" y="147"/>
      <point x="475" y="105"/>
      <point x="481" y="72" type="curve" smooth="yes"/>
      <point x="486" y="41"/>
      <point x="503" y="-4"/>
      <point x="542" y="-4" type="curve" smooth="yes"/>
      <point x="570" y="-4"/>
      <point x="587" y="22"/>
      <point x="587" y="49" type="curve" smooth="yes"/>
      <point x="587" y="65"/>
      <point x="575" y="85"/>
      <point x="558" y="110" type="curve" smooth="yes"/>
      <point x="552" y="119"/>
      <point x="548" y="125"/>
      <point x="545" y="133" type="curve" smooth="yes"/>
      <point x="529" y="175"/>
      <point x="461" y="322"/>
      <point x="438" y="370" type="curve" smooth="yes"/>
      <point x="413" y="422"/>
      <point x="359" y="589"/>
      <point x="352" y="613" type="curve" smooth="yes"/>
      <point x="346" y="631"/>
      <point x="346" y="651"/>
      <point x="341" y="670" type="curve" smooth="yes"/>
      <point x="336" y="684"/>
      <point x="318" y="721"/>
    </contour>
    <contour>
      <point x="175" y="339" type="curve" smooth="yes"/>
      <point x="193" y="428"/>
      <point x="214" y="515"/>
      <point x="234" y="590" type="curve" smooth="yes"/>
      <point x="239" y="606"/>
      <point x="242" y="619"/>
      <point x="245" y="632" type="curve"/>
      <point x="260" y="606"/>
      <point x="277" y="582"/>
      <point x="286" y="555" type="curve" smooth="yes"/>
      <point x="303" y="510"/>
      <point x="365" y="363"/>
      <point x="402" y="277" type="curve"/>
      <point x="351" y="270"/>
      <point x="317" y="271"/>
      <point x="280" y="271" type="curve" smooth="yes"/>
      <point x="265" y="271"/>
      <point x="235" y="271"/>
      <point x="163" y="272" type="curve"/>
      <point x="170" y="306"/>
      <point x="173" y="322"/>
    </contour>
  </outline>
</glyph>
<glyph name="B" format="1">
  <advance width="667"/>
  <unicode hex="0042"/>
  <outline>
    <contour>
      <point x="327" y="731" type="curve" smooth="yes"/>
      <point x="276" y="731"/>
      <point x="160" y="714"/>
      <point x="140" y="709" type="curve" smooth="yes"/>
      <point x="116" y="703"/>
      <point x="80" y="683"/>
      <point x="80" y="651" type="curve" smooth="yes"/>
      <point x="80" y="614"/>
      <point x="113" y="585"/>
      <point x="113" y="549" type="curve" smooth="yes"/>
      <point x="113" y="475"/>
      <point x="103" y="403"/>
      <point x="93" y="333" type="curve" smooth="yes"/>
      <point x="83" y="260"/>
      <point x="70" y="194"/>
      <point x="70" y="127" type="curve" smooth="yes"/>
      <point x="70" y="117"/>
      <point x="71" y="105"/>
      <point x="73" y="85" type="curve"/>
      <point x="53" y="81"/>
      <point x="41" y="64"/>
      <point x="41" y="44" type="curve" smooth="yes"/>
      <point x="41" y="21"/>
      <point x="56" y="-11"/>
      <point x="99" y="-11" type="curve" smooth="yes"/>
      <point x="143" y="-11"/>
      <point x="167" y="-8"/>
      <point x="194" y="-8" type="curve" smooth="yes"/>
      <point x="254" y="-8"/>
      <point x="306" y="-19"/>
      <point x="359" y="-19" type="curve" smooth="yes"/>
      <point x="496" y="-19"/>
      <point x="632" y="24"/>
      <point x="632" y="177" type="curve" smooth="yes"/>
      <point x="632" y="279"/>
      <point x="585" y="355"/>
      <point x="468" y="392" type="curve"/>
      <point x="544" y="425"/>
      <point x="580" y="481"/>
      <point x="580" y="546" type="curve" smooth="yes"/>
      <point x="580" y="671"/>
      <point x="499" y="731"/>
    </contour>
    <contour>
      <point x="183" y="385" type="curve" smooth="yes"/>
      <point x="183" y="350"/>
      <point x="198" y="331"/>
      <point x="216" y="331" type="curve" smooth="yes"/>
      <point x="266" y="331"/>
      <point x="263" y="350"/>
      <point x="330" y="350" type="curve" smooth="yes"/>
      <point x="457" y="350"/>
      <point x="555" y="294"/>
      <point x="555" y="180" type="curve" smooth="yes"/>
      <point x="555" y="88"/>
      <point x="475" y="44"/>
      <point x="351" y="44" type="curve" smooth="yes"/>
      <point x="257" y="44"/>
      <point x="200" y="55"/>
      <point x="153" y="68" type="curve"/>
      <point x="162" y="81"/>
      <point x="162" y="95"/>
      <point x="162" y="101" type="curve" smooth="yes"/>
      <point x="162" y="133"/>
      <point x="153" y="159"/>
      <point x="153" y="187" type="curve" smooth="yes"/>
      <point x="153" y="237"/>
      <point x="163" y="287"/>
      <point x="169" y="335" type="curve" smooth="yes"/>
      <point x="177" y="395"/>
      <point x="187" y="487"/>
      <point x="187" y="534" type="curve" smooth="yes"/>
      <point x="187" y="558"/>
      <point x="185" y="577"/>
      <point x="185" y="596" type="curve" smooth="yes"/>
      <point x="185" y="623"/>
      <point x="188" y="630"/>
      <point x="191" y="635" type="curve" smooth="yes"/>
      <point x="208" y="651"/>
      <point x="298" y="658"/>
      <point x="331" y="658" type="curve" smooth="yes"/>
      <point x="425" y="658"/>
      <point x="506" y="635"/>
      <point x="506" y="550" type="curve" smooth="yes"/>
      <point x="506" y="457"/>
      <point x="409" y="428"/>
      <point x="369" y="428" type="curve" smooth="yes"/>
      <point x="360" y="428"/>
      <point x="340" y="426"/>
      <point x="321" y="417" type="curve"/>
      <point x="305" y="418"/>
      <point x="293" y="418"/>
      <point x="267" y="418" type="curve" smooth="yes"/>
      <point x="199" y="418"/>
      <point x="183" y="408"/>
    </contour>
  </outline>
</glyph>
<glyph name="C" format="1">
  <advance width="534"/>
  <unicode hex="0043"/>
  <outline>
    <contour>
      <point x="340" y="766" type="move" name="top"/>
    </contour>
    <contour>
      <point x="349" y="731" type="curve" smooth="yes"/>
      <point x="142" y="731"/>
      <point x="38" y="539"/>
      <point x="38" y="350" type="curve" smooth="yes"/>
      <point x="38" y="100"/>
      <point x="143" y="-17"/>
      <point x="368" y="-17" type="curve" smooth="yes"/>
      <point x="444" y="-17"/>
      <point x="521" y="-4"/>
      <point x="521" y="31" type="curve" smooth="yes"/>
      <point x="521" y="64"/>
      <point x="501" y="81"/>
      <point x="465" y="81" type="curve" smooth="yes"/>
      <point x="430" y="81"/>
      <point x="381" y="55"/>
      <point x="337" y="55" type="curve" smooth="yes"/>
      <point x="152" y="55"/>
      <point x="121" y="195"/>
      <point x="121" y="352" type="curve" smooth="yes"/>
      <point x="121" y="501"/>
      <point x="192" y="658"/>
      <point x="322" y="658" type="curve" smooth="yes"/>
      <point x="369" y="658"/>
      <point x="397" y="620"/>
      <point x="427" y="620" type="curve" smooth="yes"/>
      <point x="459" y="620"/>
      <point x="475" y="652"/>
      <point x="475" y="665" type="curve" smooth="yes"/>
      <point x="475" y="727"/>
      <point x="417" y="731"/>
    </contour>
  </outline>
</glyph>
<glyph name="D" format="1">
  <advance width="602"/>
  <unicode hex="0044"/>
  <outline>
    <contour>
      <point x="252" y="739" type="move" name="top"/>
    </contour>
    <contour>
      <point x="56" y="677" type="curve" smooth="yes"/>
      <point x="56" y="663"/>
      <point x="58" y="621"/>
      <point x="63" y="565" type="curve" smooth="yes"/>
      <point x="72" y="454"/>
      <point x="84" y="307"/>
      <point x="87" y="183" type="curve"/>
      <point x="80" y="168"/>
      <point x="69" y="153"/>
      <point x="69" y="137" type="curve" smooth="yes"/>
      <point x="69" y="107"/>
      <point x="104" y="78"/>
      <point x="126" y="78" type="curve" smooth="yes"/>
      <point x="155" y="78"/>
      <point x="163" y="129"/>
      <point x="163" y="156" type="curve" smooth="yes"/>
      <point x="163" y="241"/>
      <point x="146" y="341"/>
      <point x="146" y="419" type="curve" smooth="yes"/>
      <point x="146" y="530"/>
      <point x="145" y="573"/>
      <point x="145" y="617" type="curve" smooth="yes"/>
      <point x="145" y="639"/>
      <point x="161" y="644"/>
      <point x="170" y="644" type="curve" smooth="yes"/>
      <point x="191" y="644"/>
      <point x="279" y="628"/>
      <point x="336" y="595" type="curve" smooth="yes"/>
      <point x="410" y="554"/>
      <point x="500" y="482"/>
      <point x="500" y="332" type="curve" smooth="yes"/>
      <point x="500" y="151"/>
      <point x="290" y="53"/>
      <point x="162" y="53" type="curve" smooth="yes"/>
      <point x="140" y="53"/>
      <point x="128" y="73"/>
      <point x="104" y="73" type="curve" smooth="yes"/>
      <point x="93" y="73"/>
      <point x="77" y="50"/>
      <point x="77" y="39" type="curve" smooth="yes"/>
      <point x="77" y="19"/>
      <point x="93" y="-18"/>
      <point x="121" y="-18" type="curve" smooth="yes"/>
      <point x="331" y="-18"/>
      <point x="571" y="103"/>
      <point x="571" y="317" type="curve" smooth="yes"/>
      <point x="571" y="488"/>
      <point x="483" y="619"/>
      <point x="329" y="676" type="curve" smooth="yes"/>
      <point x="248" y="706"/>
      <point x="157" y="731"/>
      <point x="102" y="731" type="curve" smooth="yes"/>
      <point x="76" y="731"/>
      <point x="56" y="720"/>
    </contour>
  </outline>
</glyph>
<glyph name="E" format="1">
  <advance width="487"/>
  <unicode hex="0045"/>
  <outline>
    <contour>
      <point x="283" y="752" type="move" name="top"/>
    </contour>
    <contour>
      <point x="369" y="398" type="curve" smooth="yes"/>
      <point x="337" y="398"/>
      <point x="305" y="393"/>
      <point x="273" y="389" type="curve" smooth="yes"/>
      <point x="244" y="385"/>
      <point x="216" y="380"/>
      <point x="192" y="379" type="curve" smooth="yes"/>
      <point x="177" y="379"/>
      <point x="165" y="376"/>
      <point x="156" y="365" type="curve"/>
      <point x="162" y="422"/>
      <point x="164" y="476"/>
      <point x="169" y="511" type="curve" smooth="yes"/>
      <point x="174" y="550"/>
      <point x="178" y="589"/>
      <point x="179" y="622" type="curve"/>
      <point x="187" y="622" type="line" smooth="yes"/>
      <point x="252" y="622"/>
      <point x="295" y="660"/>
      <point x="346" y="660" type="curve" smooth="yes"/>
      <point x="375" y="660"/>
      <point x="398" y="653"/>
      <point x="423" y="653" type="curve" smooth="yes"/>
      <point x="442" y="653"/>
      <point x="464" y="666"/>
      <point x="464" y="684" type="curve" smooth="yes"/>
      <point x="464" y="705"/>
      <point x="451" y="731"/>
      <point x="401" y="731" type="curve" smooth="yes"/>
      <point x="347" y="731"/>
      <point x="298" y="712"/>
      <point x="245" y="712" type="curve" smooth="yes"/>
      <point x="226" y="712"/>
      <point x="208" y="718"/>
      <point x="189" y="718" type="curve" smooth="yes"/>
      <point x="174" y="718"/>
      <point x="159" y="700"/>
      <point x="154" y="674" type="curve"/>
      <point x="146" y="677"/>
      <point x="135" y="677"/>
      <point x="133" y="677" type="curve" smooth="yes"/>
      <point x="108" y="676"/>
      <point x="80" y="644"/>
      <point x="80" y="617" type="curve" smooth="yes"/>
      <point x="80" y="593"/>
      <point x="98" y="574"/>
      <point x="98" y="551" type="curve" smooth="yes"/>
      <point x="98" y="534"/>
      <point x="93" y="479"/>
      <point x="88" y="422" type="curve" smooth="yes"/>
      <point x="81" y="345"/>
      <point x="72" y="268"/>
      <point x="64" y="201" type="curve" smooth="yes"/>
      <point x="51" y="109"/>
      <point x="49" y="81"/>
      <point x="49" y="71" type="curve" smooth="yes"/>
      <point x="49" y="47"/>
      <point x="78" y="-23"/>
      <point x="114" y="-23" type="curve" smooth="yes"/>
      <point x="136" y="-23"/>
      <point x="150" y="-20"/>
      <point x="168" y="-17" type="curve" smooth="yes"/>
      <point x="202" y="-12"/>
      <point x="250" y="-7"/>
      <point x="377" y="-7" type="curve" smooth="yes"/>
      <point x="393" y="-7"/>
      <point x="417" y="2"/>
      <point x="417" y="21" type="curve" smooth="yes"/>
      <point x="417" y="55"/>
      <point x="368" y="85"/>
      <point x="342" y="85" type="curve" smooth="yes"/>
      <point x="323" y="85"/>
      <point x="309" y="65"/>
      <point x="295" y="60" type="curve"/>
      <point x="269" y="57"/>
      <point x="243" y="55"/>
      <point x="220" y="55" type="curve" smooth="yes"/>
      <point x="216" y="55"/>
      <point x="165" y="54"/>
      <point x="149" y="62" type="curve" smooth="yes"/>
      <point x="141" y="65"/>
      <point x="130" y="81"/>
      <point x="130" y="107" type="curve" smooth="yes"/>
      <point x="130" y="132"/>
      <point x="138" y="204"/>
      <point x="145" y="262" type="curve" smooth="yes"/>
      <point x="146" y="270"/>
      <point x="146" y="290"/>
      <point x="148" y="302" type="curve"/>
      <point x="157" y="294"/>
      <point x="168" y="293"/>
      <point x="175" y="293" type="curve" smooth="yes"/>
      <point x="230" y="293"/>
      <point x="284" y="329"/>
      <point x="338" y="329" type="curve" smooth="yes"/>
      <point x="360" y="329"/>
      <point x="379" y="326"/>
      <point x="398" y="326" type="curve" smooth="yes"/>
      <point x="409" y="326"/>
      <point x="422" y="335"/>
      <point x="422" y="349" type="curve" smooth="yes"/>
      <point x="422" y="385"/>
      <point x="405" y="398"/>
    </contour>
  </outline>
</glyph>
<glyph name="F" format="1">
  <advance width="498"/>
  <unicode hex="0046"/>
  <outline>
    <contour>
      <point x="420" y="421" type="curve" smooth="yes"/>
      <point x="411" y="421"/>
      <point x="393" y="413"/>
      <point x="375" y="409" type="curve" smooth="yes"/>
      <point x="313" y="391"/>
      <point x="253" y="387"/>
      <point x="181" y="387" type="curve" smooth="yes"/>
      <point x="167" y="387" type="line"/>
      <point x="171" y="433"/>
      <point x="174" y="460"/>
      <point x="174" y="482" type="curve" smooth="yes"/>
      <point x="174" y="583"/>
      <point x="173" y="596"/>
      <point x="176" y="602" type="curve" smooth="yes"/>
      <point x="195" y="636"/>
      <point x="334" y="652"/>
      <point x="367" y="652" type="curve" smooth="yes"/>
      <point x="394" y="652"/>
      <point x="414" y="634"/>
      <point x="438" y="634" type="curve" smooth="yes"/>
      <point x="459" y="634"/>
      <point x="485" y="651"/>
      <point x="485" y="673" type="curve" smooth="yes"/>
      <point x="485" y="708"/>
      <point x="464" y="731"/>
      <point x="423" y="731" type="curve" smooth="yes"/>
      <point x="373" y="731"/>
      <point x="230" y="707"/>
      <point x="191" y="694" type="curve" smooth="yes"/>
      <point x="166" y="685"/>
      <point x="142" y="667"/>
      <point x="126" y="650" type="curve"/>
      <point x="107" y="645"/>
      <point x="84" y="633"/>
      <point x="84" y="581" type="curve" smooth="yes"/>
      <point x="84" y="524"/>
      <point x="96" y="475"/>
      <point x="96" y="425" type="curve" smooth="yes"/>
      <point x="96" y="419"/>
      <point x="95" y="407"/>
      <point x="93" y="385" type="curve"/>
      <point x="75" y="374"/>
      <point x="68" y="358"/>
      <point x="68" y="345" type="curve" smooth="yes"/>
      <point x="68" y="335"/>
      <point x="72" y="327"/>
      <point x="83" y="316" type="curve"/>
      <point x="81" y="281"/>
      <point x="75" y="257"/>
      <point x="73" y="231" type="curve" smooth="yes"/>
      <point x="68" y="180"/>
      <point x="53" y="83"/>
      <point x="53" y="64" type="curve" smooth="yes"/>
      <point x="53" y="28"/>
      <point x="72" y="-2"/>
      <point x="89" y="-2" type="curve" smooth="yes"/>
      <point x="111" y="-2"/>
      <point x="142" y="16"/>
      <point x="142" y="31" type="curve" smooth="yes"/>
      <point x="142" y="60"/>
      <point x="135" y="87"/>
      <point x="135" y="113" type="curve" smooth="yes"/>
      <point x="135" y="161"/>
      <point x="144" y="231"/>
      <point x="155" y="305" type="curve"/>
      <point x="175" y="308"/>
      <point x="187" y="312"/>
      <point x="200" y="316" type="curve" smooth="yes"/>
      <point x="227" y="326"/>
      <point x="282" y="330"/>
      <point x="410" y="330" type="curve" smooth="yes"/>
      <point x="438" y="330"/>
      <point x="460" y="348"/>
      <point x="460" y="366" type="curve" smooth="yes"/>
      <point x="460" y="387"/>
      <point x="446" y="421"/>
    </contour>
  </outline>
</glyph>
<glyph name="G" format="1">
  <advance width="641"/>
  <unicode hex="0047"/>
  <outline>
    <contour>
      <point x="385" y="766" type="move" name="top"/>
    </contour>
    <contour>
      <point x="428" y="731" type="curve" smooth="yes"/>
      <point x="273" y="731"/>
      <point x="36" y="468"/>
      <point x="36" y="295" type="curve" smooth="yes"/>
      <point x="36" y="86"/>
      <point x="167" y="-9"/>
      <point x="437" y="-9" type="curve" smooth="yes"/>
      <point x="475" y="-9"/>
      <point x="499" y="6"/>
      <point x="499" y="27" type="curve" smooth="yes"/>
      <point x="499" y="45"/>
      <point x="484" y="82"/>
      <point x="461" y="82" type="curve" smooth="yes"/>
      <point x="447" y="82"/>
      <point x="440" y="60"/>
      <point x="421" y="60" type="curve" smooth="yes"/>
      <point x="221" y="60"/>
      <point x="114" y="131"/>
      <point x="114" y="278" type="curve" smooth="yes"/>
      <point x="114" y="348"/>
      <point x="167" y="469"/>
      <point x="228" y="530" type="curve" smooth="yes"/>
      <point x="272" y="573"/>
      <point x="352" y="649"/>
      <point x="416" y="649" type="curve" smooth="yes"/>
      <point x="436" y="649"/>
      <point x="451" y="631"/>
      <point x="469" y="631" type="curve" smooth="yes"/>
      <point x="479" y="631"/>
      <point x="509" y="644"/>
      <point x="509" y="669" type="curve" smooth="yes"/>
      <point x="509" y="694"/>
      <point x="471" y="731"/>
    </contour>
    <contour>
      <point x="598" y="95" type="curve" smooth="yes"/>
      <point x="597" y="148"/>
      <point x="592" y="194"/>
      <point x="592" y="240" type="curve" smooth="yes"/>
      <point x="592" y="309"/>
      <point x="560" y="382"/>
      <point x="483" y="382" type="curve" smooth="yes"/>
      <point x="416" y="382"/>
      <point x="381" y="386"/>
      <point x="351" y="391" type="curve" smooth="yes"/>
      <point x="327" y="395"/>
      <point x="311" y="397"/>
      <point x="288" y="397" type="curve" smooth="yes"/>
      <point x="246" y="397"/>
      <point x="203" y="373"/>
      <point x="203" y="349" type="curve" smooth="yes"/>
      <point x="203" y="324"/>
      <point x="220" y="298"/>
      <point x="239" y="298" type="curve" smooth="yes"/>
      <point x="254" y="298"/>
      <point x="265" y="303"/>
      <point x="276" y="309" type="curve" smooth="yes"/>
      <point x="294" y="318"/>
      <point x="461" y="323"/>
      <point x="484" y="301" type="curve"/>
      <point x="505" y="281"/>
      <point x="524" y="264"/>
      <point x="524" y="182" type="curve" smooth="yes"/>
      <point x="524" y="137"/>
      <point x="511" y="97"/>
      <point x="511" y="56" type="curve" smooth="yes"/>
      <point x="511" y="29"/>
      <point x="535" y="9"/>
      <point x="567" y="9" type="curve" smooth="yes"/>
      <point x="596" y="9"/>
      <point x="598" y="57"/>
    </contour>
  </outline>
</glyph>
<glyph name="H" format="1">
  <advance width="634"/>
  <unicode hex="0048"/>
  <outline>
    <contour>
      <point x="293" y="764" type="move" name="top"/>
    </contour>
    <contour>
      <point x="474" y="735" type="curve" smooth="yes"/>
      <point x="449" y="735"/>
      <point x="433" y="721"/>
      <point x="433" y="695" type="curve" smooth="yes"/>
      <point x="433" y="680"/>
      <point x="440" y="663"/>
      <point x="445" y="653" type="curve" smooth="yes"/>
      <point x="467" y="616"/>
      <point x="481" y="556"/>
      <point x="481" y="427" type="curve" smooth="yes"/>
      <point x="481" y="413"/>
      <point x="481" y="395"/>
      <point x="480" y="365" type="curve"/>
      <point x="423" y="363"/>
      <point x="371" y="359"/>
      <point x="316" y="359" type="curve" smooth="yes"/>
      <point x="255" y="359"/>
      <point x="212" y="357"/>
      <point x="156" y="360" type="curve"/>
      <point x="158" y="451"/>
      <point x="161" y="545"/>
      <point x="166" y="578" type="curve" smooth="yes"/>
      <point x="168" y="599"/>
      <point x="177" y="614"/>
      <point x="177" y="631" type="curve" smooth="yes"/>
      <point x="177" y="645"/>
      <point x="158" y="712"/>
      <point x="118" y="712" type="curve" smooth="yes"/>
      <point x="102" y="712"/>
      <point x="70" y="678"/>
      <point x="69" y="664" type="curve" smooth="yes"/>
      <point x="69" y="659"/>
      <point x="71" y="639"/>
      <point x="74" y="615" type="curve"/>
      <point x="79" y="569"/>
      <point x="85" y="510"/>
      <point x="85" y="483" type="curve" smooth="yes"/>
      <point x="85" y="465"/>
      <point x="85" y="412"/>
      <point x="82" y="345" type="curve"/>
      <point x="70" y="338"/>
      <point x="61" y="324"/>
      <point x="61" y="310" type="curve" smooth="yes"/>
      <point x="61" y="302"/>
      <point x="69" y="291"/>
      <point x="80" y="287" type="curve"/>
      <point x="78" y="233"/>
      <point x="83" y="174"/>
      <point x="73" y="121" type="curve"/>
      <point x="66" y="105"/>
      <point x="50" y="88"/>
      <point x="50" y="73" type="curve" smooth="yes"/>
      <point x="50" y="58"/>
      <point x="76" y="14"/>
      <point x="100" y="14" type="curve" smooth="yes"/>
      <point x="134" y="14"/>
      <point x="153" y="61"/>
      <point x="153" y="96" type="curve" smooth="yes"/>
      <point x="153" y="108"/>
      <point x="153" y="150"/>
      <point x="155" y="284" type="curve"/>
      <point x="211" y="288"/>
      <point x="262" y="292"/>
      <point x="316" y="292" type="curve" smooth="yes"/>
      <point x="384" y="292"/>
      <point x="425" y="291"/>
      <point x="479" y="290" type="curve"/>
      <point x="477" y="210"/>
      <point x="476" y="134"/>
      <point x="476" y="55" type="curve" smooth="yes"/>
      <point x="476" y="22"/>
      <point x="497" y="-2"/>
      <point x="525" y="-2" type="curve" smooth="yes"/>
      <point x="539" y="-2"/>
      <point x="560" y="2"/>
      <point x="560" y="60" type="curve" smooth="yes"/>
      <point x="560" y="69"/>
      <point x="558" y="158"/>
      <point x="558" y="225" type="curve" smooth="yes"/>
      <point x="558" y="269"/>
      <point x="557" y="287"/>
      <point x="557" y="304" type="curve"/>
      <point x="564" y="313"/>
      <point x="566" y="319"/>
      <point x="566" y="329" type="curve" smooth="yes"/>
      <point x="566" y="339"/>
      <point x="564" y="347"/>
      <point x="556" y="355" type="curve"/>
      <point x="556" y="504" type="line" smooth="yes"/>
      <point x="556" y="652"/>
      <point x="518" y="735"/>
    </contour>
  </outline>
</glyph>
<glyph name="I" format="1">
  <advance width="248"/>
  <unicode hex="0049"/>
  <outline>
    <contour>
      <point x="81" y="767" type="move" name="top"/>
    </contour>
    <contour>
      <point x="89" y="731" type="curve" smooth="yes"/>
      <point x="70" y="731"/>
      <point x="51" y="705"/>
      <point x="51" y="685" type="curve" smooth="yes"/>
      <point x="51" y="667"/>
      <point x="59" y="633"/>
      <point x="65" y="594" type="curve" smooth="yes"/>
      <point x="81" y="498"/>
      <point x="93" y="370"/>
      <point x="93" y="238" type="curve" smooth="yes"/>
      <point x="93" y="151"/>
      <point x="89" y="95"/>
      <point x="82" y="73" type="curve" smooth="yes"/>
      <point x="79" y="66"/>
      <point x="79" y="60"/>
      <point x="79" y="50" type="curve" smooth="yes"/>
      <point x="79" y="32"/>
      <point x="104" y="-8"/>
      <point x="135" y="-8" type="curve" smooth="yes"/>
      <point x="160" y="-8"/>
      <point x="173" y="34"/>
      <point x="173" y="67" type="curve" smooth="yes"/>
      <point x="173" y="86"/>
      <point x="168" y="197"/>
      <point x="164" y="289" type="curve" smooth="yes"/>
      <point x="162" y="346"/>
      <point x="161" y="366"/>
      <point x="161" y="381" type="curve" smooth="yes"/>
      <point x="157" y="512"/>
      <point x="151" y="608"/>
      <point x="142" y="689" type="curve" smooth="yes"/>
      <point x="140" y="711"/>
      <point x="111" y="731"/>
    </contour>
  </outline>
</glyph>
<glyph name="J" format="1">
  <advance width="606"/>
  <unicode hex="004A"/>
  <outline>
    <contour>
      <point x="361" y="752" type="move" name="top"/>
    </contour>
    <contour>
      <point x="125" y="726" type="curve" smooth="yes"/>
      <point x="106" y="726"/>
      <point x="92" y="702"/>
      <point x="92" y="679" type="curve" smooth="yes"/>
      <point x="92" y="658"/>
      <point x="123" y="633"/>
      <point x="146" y="633" type="curve" smooth="yes"/>
      <point x="162" y="633"/>
      <point x="176" y="637"/>
      <point x="191" y="642" type="curve" smooth="yes"/>
      <point x="234" y="656"/>
      <point x="278" y="655"/>
      <point x="321" y="653" type="curve"/>
      <point x="324" y="632"/>
      <point x="331" y="608"/>
      <point x="332" y="603" type="curve"/>
      <point x="357" y="469"/>
      <point x="356" y="284"/>
      <point x="356" y="208" type="curve" smooth="yes"/>
      <point x="356" y="112"/>
      <point x="331" y="32"/>
      <point x="236" y="32" type="curve" smooth="yes"/>
      <point x="197" y="32"/>
      <point x="151" y="47"/>
      <point x="87" y="79" type="curve" smooth="yes"/>
      <point x="70" y="87"/>
      <point x="55" y="105"/>
      <point x="35" y="105" type="curve" smooth="yes"/>
      <point x="15" y="105"/>
      <point x="6" y="74"/>
      <point x="6" y="50" type="curve" smooth="yes"/>
      <point x="6" y="33"/>
      <point x="18" y="-4"/>
      <point x="55" y="-4" type="curve" smooth="yes"/>
      <point x="122" y="-4"/>
      <point x="183" y="-33"/>
      <point x="247" y="-33" type="curve" smooth="yes"/>
      <point x="287" y="-33"/>
      <point x="335" y="-19"/>
      <point x="356" y="-3" type="curve" smooth="yes"/>
      <point x="420" y="48"/>
      <point x="433" y="78"/>
      <point x="433" y="168" type="curve" smooth="yes"/>
      <point x="433" y="177"/>
      <point x="432" y="203"/>
      <point x="428" y="255" type="curve" smooth="yes"/>
      <point x="426" y="295"/>
      <point x="416" y="440"/>
      <point x="416" y="539" type="curve" smooth="yes"/>
      <point x="416" y="576"/>
      <point x="418" y="598"/>
      <point x="420" y="612" type="curve" smooth="yes"/>
      <point x="422" y="623"/>
      <point x="423" y="632"/>
      <point x="421" y="653" type="curve"/>
      <point x="450" y="652"/>
      <point x="463" y="650"/>
      <point x="478" y="650" type="curve" smooth="yes"/>
      <point x="518" y="649"/>
      <point x="546" y="647"/>
      <point x="580" y="647" type="curve" smooth="yes"/>
      <point x="600" y="647"/>
      <point x="606" y="668"/>
      <point x="606" y="680" type="curve" smooth="yes"/>
      <point x="606" y="696"/>
      <point x="588" y="724"/>
      <point x="549" y="724" type="curve" smooth="yes"/>
      <point x="489" y="724"/>
      <point x="435" y="716"/>
      <point x="382" y="716" type="curve" smooth="yes"/>
      <point x="330" y="716"/>
      <point x="287" y="718"/>
      <point x="239" y="722" type="curve"/>
      <point x="196" y="724"/>
      <point x="160" y="726"/>
    </contour>
  </outline>
</glyph>
<glyph name="K" format="1">
  <advance width="547"/>
  <unicode hex="004B"/>
  <outline>
    <contour>
      <point x="467" y="731" type="curve" smooth="yes"/>
      <point x="434" y="731"/>
      <point x="422" y="688"/>
      <point x="407" y="669" type="curve"/>
      <point x="372" y="612"/>
      <point x="301" y="556"/>
      <point x="233" y="498" type="curve" smooth="yes"/>
      <point x="219" y="485"/>
      <point x="197" y="466"/>
      <point x="172" y="438" type="curve"/>
      <point x="166" y="689"/>
      <point x="136" y="731"/>
      <point x="116" y="731" type="curve" smooth="yes"/>
      <point x="110" y="731"/>
      <point x="108" y="730"/>
      <point x="101" y="725" type="curve" smooth="yes"/>
      <point x="97" y="722"/>
      <point x="93" y="724"/>
      <point x="81" y="719" type="curve" smooth="yes"/>
      <point x="71" y="716"/>
      <point x="57" y="693"/>
      <point x="57" y="677" type="curve" smooth="yes"/>
      <point x="57" y="668"/>
      <point x="61" y="657"/>
      <point x="65" y="646" type="curve" smooth="yes"/>
      <point x="74" y="617"/>
      <point x="100" y="539"/>
      <point x="100" y="370" type="curve"/>
      <point x="87" y="351"/>
      <point x="79" y="338"/>
      <point x="79" y="317" type="curve" smooth="yes"/>
      <point x="79" y="306"/>
      <point x="81" y="293"/>
      <point x="93" y="275" type="curve"/>
      <point x="88" y="222"/>
      <point x="80" y="174"/>
      <point x="71" y="111" type="curve" smooth="yes"/>
      <point x="66" y="81"/>
      <point x="63" y="55"/>
      <point x="63" y="47" type="curve" smooth="yes"/>
      <point x="63" y="19"/>
      <point x="75" y="-6"/>
      <point x="97" y="-6" type="curve" smooth="yes"/>
      <point x="123" y="-6"/>
      <point x="152" y="4"/>
      <point x="152" y="32" type="curve" smooth="yes"/>
      <point x="152" y="53"/>
      <point x="147" y="68"/>
      <point x="147" y="84" type="curve" smooth="yes"/>
      <point x="147" y="130"/>
      <point x="160" y="193"/>
      <point x="161" y="246" type="curve"/>
      <point x="215" y="232"/>
      <point x="291" y="175"/>
      <point x="320" y="157" type="curve" smooth="yes"/>
      <point x="348" y="141"/>
      <point x="420" y="80"/>
      <point x="438" y="58" type="curve" smooth="yes"/>
      <point x="471" y="17"/>
      <point x="495" y="-3"/>
      <point x="509" y="-3" type="curve" smooth="yes"/>
      <point x="525" y="-3"/>
      <point x="556" y="18"/>
      <point x="556" y="40" type="curve" smooth="yes"/>
      <point x="556" y="66"/>
      <point x="543" y="76"/>
      <point x="515" y="94" type="curve" smooth="yes"/>
      <point x="493" y="106"/>
      <point x="476" y="125"/>
      <point x="458" y="139" type="curve" smooth="yes"/>
      <point x="364" y="214"/>
      <point x="285" y="280"/>
      <point x="170" y="330" type="curve"/>
      <point x="237" y="404"/>
      <point x="344" y="518"/>
      <point x="476" y="617" type="curve"/>
      <point x="490" y="627"/>
      <point x="510" y="641"/>
      <point x="510" y="658" type="curve" smooth="yes"/>
      <point x="510" y="679"/>
      <point x="502" y="731"/>
    </contour>
  </outline>
</glyph>
<glyph name="L" format="1">
  <advance width="493"/>
  <unicode hex="004C"/>
  <outline>
    <contour>
      <point x="160" y="766" type="move" name="top"/>
    </contour>
    <contour>
      <point x="147" y="731" type="curve" smooth="yes"/>
      <point x="125" y="731"/>
      <point x="108" y="702"/>
      <point x="108" y="677" type="curve" smooth="yes"/>
      <point x="108" y="645"/>
      <point x="116" y="618"/>
      <point x="116" y="590" type="curve" smooth="yes"/>
      <point x="116" y="543"/>
      <point x="104" y="451"/>
      <point x="87" y="343" type="curve" smooth="yes"/>
      <point x="70" y="229"/>
      <point x="53" y="121"/>
      <point x="53" y="61" type="curve" smooth="yes"/>
      <point x="53" y="7"/>
      <point x="87" y="-16"/>
      <point x="100" y="-16" type="curve" smooth="yes"/>
      <point x="113" y="-16"/>
      <point x="121" y="-15"/>
      <point x="137" y="-12" type="curve" smooth="yes"/>
      <point x="162" y="-7"/>
      <point x="210" y="0"/>
      <point x="382" y="0" type="curve" smooth="yes"/>
      <point x="404" y="0"/>
      <point x="422" y="-12"/>
      <point x="442" y="-12" type="curve" smooth="yes"/>
      <point x="464" y="-12"/>
      <point x="492" y="3"/>
      <point x="492" y="21" type="curve" smooth="yes"/>
      <point x="492" y="46"/>
      <point x="473" y="75"/>
      <point x="440" y="75" type="curve" smooth="yes"/>
      <point x="396" y="75"/>
      <point x="358" y="66"/>
      <point x="320" y="66" type="curve" smooth="yes"/>
      <point x="264" y="66"/>
      <point x="222" y="70"/>
      <point x="172" y="70" type="curve" smooth="yes"/>
      <point x="153" y="70"/>
      <point x="133" y="84"/>
      <point x="133" y="110" type="curve" smooth="yes"/>
      <point x="133" y="193"/>
      <point x="153" y="299"/>
      <point x="173" y="405" type="curve" smooth="yes"/>
      <point x="192" y="501"/>
      <point x="209" y="590"/>
      <point x="209" y="656" type="curve" smooth="yes"/>
      <point x="209" y="689"/>
      <point x="186" y="731"/>
    </contour>
  </outline>
</glyph>
<glyph name="M" format="1">
  <advance width="906"/>
  <unicode hex="004D"/>
  <outline>
    <contour>
      <point x="130" y="721" type="curve" smooth="yes"/>
      <point x="114" y="721"/>
      <point x="78" y="675"/>
      <point x="78" y="651" type="curve" smooth="yes"/>
      <point x="78" y="642"/>
      <point x="80" y="626"/>
      <point x="82" y="610" type="curve" smooth="yes"/>
      <point x="87" y="575"/>
      <point x="85" y="517"/>
      <point x="85" y="337" type="curve" smooth="yes"/>
      <point x="85" y="281"/>
      <point x="81" y="213"/>
      <point x="77" y="149" type="curve"/>
      <point x="75" y="118"/>
      <point x="72" y="86"/>
      <point x="72" y="43" type="curve" smooth="yes"/>
      <point x="72" y="26"/>
      <point x="97" y="-1"/>
      <point x="127" y="-1" type="curve" smooth="yes"/>
      <point x="137" y="-1"/>
      <point x="163" y="1"/>
      <point x="163" y="59" type="curve" smooth="yes"/>
      <point x="163" y="109"/>
      <point x="154" y="153"/>
      <point x="154" y="197" type="curve" smooth="yes"/>
      <point x="154" y="291"/>
      <point x="157" y="369"/>
      <point x="161" y="450" type="curve" smooth="yes"/>
      <point x="163" y="493"/>
      <point x="162" y="528"/>
      <point x="165" y="614" type="curve"/>
      <point x="229" y="540"/>
      <point x="271" y="471"/>
      <point x="308" y="407" type="curve" smooth="yes"/>
      <point x="405" y="237"/>
      <point x="440" y="201"/>
      <point x="461" y="201" type="curve" smooth="yes"/>
      <point x="514" y="201"/>
      <point x="531" y="265"/>
      <point x="550" y="302" type="curve" smooth="yes"/>
      <point x="598" y="386"/>
      <point x="645" y="476"/>
      <point x="721" y="614" type="curve"/>
      <point x="737" y="486"/>
      <point x="753" y="379"/>
      <point x="753" y="283" type="curve" smooth="yes"/>
      <point x="753" y="172"/>
      <point x="752" y="120"/>
      <point x="751" y="35" type="curve" smooth="yes"/>
      <point x="751" y="18"/>
      <point x="765" y="-17"/>
      <point x="800" y="-17" type="curve" smooth="yes"/>
      <point x="822" y="-17"/>
      <point x="837" y="11"/>
      <point x="837" y="34" type="curve" smooth="yes"/>
      <point x="837" y="348"/>
      <point x="801" y="478"/>
      <point x="801" y="605" type="curve" smooth="yes"/>
      <point x="801" y="623"/>
      <point x="800" y="648"/>
      <point x="803" y="673" type="curve"/>
      <point x="802" y="703"/>
      <point x="759" y="731"/>
      <point x="728" y="731" type="curve" smooth="yes"/>
      <point x="700" y="731"/>
      <point x="673" y="688"/>
      <point x="661" y="660" type="curve" smooth="yes"/>
      <point x="617" y="564"/>
      <point x="548" y="441"/>
      <point x="464" y="306" type="curve"/>
      <point x="394" y="406"/>
      <point x="344" y="487"/>
      <point x="302" y="556" type="curve"/>
      <point x="254" y="634"/>
      <point x="208" y="721"/>
    </contour>
  </outline>
</glyph>
<glyph name="N" format="1">
  <advance width="732"/>
  <unicode hex="004E"/>
  <outline>
    <contour>
      <point x="349" y="762" type="move" name="top"/>
    </contour>
    <contour>
      <point x="177" y="722" type="curve" smooth="yes"/>
      <point x="146" y="722"/>
      <point x="106" y="691"/>
      <point x="106" y="655" type="curve" smooth="yes"/>
      <point x="106" y="500"/>
      <point x="90" y="377"/>
      <point x="80" y="242" type="curve" smooth="yes"/>
      <point x="74" y="174"/>
      <point x="61" y="115"/>
      <point x="61" y="56" type="curve" smooth="yes"/>
      <point x="61" y="21"/>
      <point x="91" y="-5"/>
      <point x="116" y="-5" type="curve" smooth="yes"/>
      <point x="143" y="-5"/>
      <point x="161" y="31"/>
      <point x="161" y="56" type="curve" smooth="yes"/>
      <point x="161" y="79"/>
      <point x="154" y="97"/>
      <point x="154" y="116" type="curve" smooth="yes"/>
      <point x="154" y="305"/>
      <point x="163" y="470"/>
      <point x="197" y="629" type="curve"/>
      <point x="327" y="480"/>
      <point x="430" y="277"/>
      <point x="533" y="99" type="curve"/>
      <point x="557" y="55"/>
      <point x="582" y="-3"/>
      <point x="607" y="-3" type="curve" smooth="yes"/>
      <point x="642" y="-3"/>
      <point x="665" y="35"/>
      <point x="665" y="53" type="curve" smooth="yes"/>
      <point x="665" y="92"/>
      <point x="650" y="127"/>
      <point x="650" y="164" type="curve" smooth="yes"/>
      <point x="650" y="347"/>
      <point x="642" y="516"/>
      <point x="638" y="605" type="curve" smooth="yes"/>
      <point x="636" y="638"/>
      <point x="635" y="658"/>
      <point x="635" y="679" type="curve" smooth="yes"/>
      <point x="635" y="705"/>
      <point x="605" y="731"/>
      <point x="590" y="731" type="curve" smooth="yes"/>
      <point x="575" y="731"/>
      <point x="543" y="716"/>
      <point x="543" y="687" type="curve" smooth="yes"/>
      <point x="543" y="666"/>
      <point x="548" y="645"/>
      <point x="553" y="626" type="curve"/>
      <point x="565" y="508"/>
      <point x="573" y="318"/>
      <point x="578" y="164" type="curve"/>
      <point x="538" y="230"/>
      <point x="520" y="264"/>
      <point x="500" y="300" type="curve" smooth="yes"/>
      <point x="415" y="448"/>
      <point x="264" y="722"/>
    </contour>
  </outline>
</glyph>
<glyph name="O" format="1">
  <advance width="616"/>
  <unicode hex="004F"/>
  <outline>
    <contour>
      <point x="275" y="766" type="move" name="top"/>
    </contour>
    <contour>
      <point x="34" y="343" type="curve" smooth="yes"/>
      <point x="34" y="209"/>
      <point x="110" y="-8"/>
      <point x="314" y="-8" type="curve" smooth="yes"/>
      <point x="463" y="-8"/>
      <point x="582" y="136"/>
      <point x="582" y="319" type="curve" smooth="yes"/>
      <point x="582" y="480"/>
      <point x="532" y="599"/>
      <point x="432" y="675" type="curve" smooth="yes"/>
      <point x="384" y="711"/>
      <point x="328" y="731"/>
      <point x="278" y="731" type="curve" smooth="yes"/>
      <point x="245" y="731"/>
      <point x="190" y="718"/>
      <point x="168" y="694" type="curve"/>
      <point x="119" y="689"/>
      <point x="34" y="523"/>
    </contour>
    <contour>
      <point x="266" y="663" type="curve" smooth="yes"/>
      <point x="313" y="663"/>
      <point x="369" y="641"/>
      <point x="402" y="610" type="curve" smooth="yes"/>
      <point x="479" y="541"/>
      <point x="509" y="408"/>
      <point x="509" y="336" type="curve" smooth="yes"/>
      <point x="509" y="178"/>
      <point x="426" y="63"/>
      <point x="305" y="63" type="curve" smooth="yes"/>
      <point x="166" y="63"/>
      <point x="114" y="225"/>
      <point x="114" y="327" type="curve" smooth="yes"/>
      <point x="114" y="447"/>
      <point x="135" y="535"/>
      <point x="178" y="589" type="curve"/>
      <point x="191" y="602"/>
      <point x="220" y="613"/>
      <point x="220" y="632" type="curve" smooth="yes"/>
      <point x="220" y="633"/>
      <point x="221" y="642"/>
      <point x="215" y="653" type="curve"/>
      <point x="236" y="659"/>
      <point x="253" y="663"/>
    </contour>
  </outline>
</glyph>
<glyph name="P" format="1">
  <advance width="574"/>
  <unicode hex="0050"/>
  <outline>
    <contour>
      <point x="219" y="728" type="curve" smooth="yes"/>
      <point x="172" y="728"/>
      <point x="74" y="702"/>
      <point x="74" y="665" type="curve" smooth="yes"/>
      <point x="74" y="655"/>
      <point x="78" y="633"/>
      <point x="96" y="624" type="curve"/>
      <point x="74" y="610"/>
      <point x="67" y="587"/>
      <point x="67" y="580" type="curve" smooth="yes"/>
      <point x="67" y="557"/>
      <point x="85" y="535"/>
      <point x="87" y="499" type="curve" smooth="yes"/>
      <point x="88" y="486"/>
      <point x="86" y="427"/>
      <point x="84" y="353" type="curve"/>
      <point x="68" y="347"/>
      <point x="60" y="332"/>
      <point x="60" y="326" type="curve" smooth="yes"/>
      <point x="60" y="310"/>
      <point x="65" y="295"/>
      <point x="82" y="283" type="curve"/>
      <point x="77" y="196"/>
      <point x="73" y="140"/>
      <point x="69" y="109" type="curve" smooth="yes"/>
      <point x="65" y="83"/>
      <point x="35" y="64"/>
      <point x="35" y="37" type="curve" smooth="yes"/>
      <point x="35" y="6"/>
      <point x="67" y="-14"/>
      <point x="97" y="-14" type="curve" smooth="yes"/>
      <point x="134" y="-14"/>
      <point x="142" y="56"/>
      <point x="145" y="80" type="curve" smooth="yes"/>
      <point x="153" y="143"/>
      <point x="151" y="222"/>
      <point x="154" y="286" type="curve"/>
      <point x="167" y="292"/>
      <point x="173" y="294"/>
      <point x="182" y="294" type="curve" smooth="yes"/>
      <point x="231" y="294"/>
      <point x="556" y="306"/>
      <point x="556" y="508" type="curve" smooth="yes"/>
      <point x="556" y="571"/>
      <point x="458" y="728"/>
    </contour>
    <contour>
      <point x="168" y="643" type="curve"/>
      <point x="185" y="652"/>
      <point x="214" y="657"/>
      <point x="237" y="657" type="curve" smooth="yes"/>
      <point x="327" y="657"/>
      <point x="479" y="575"/>
      <point x="479" y="501" type="curve" smooth="yes"/>
      <point x="479" y="421"/>
      <point x="358" y="364"/>
      <point x="155" y="357" type="curve" smooth="yes"/>
      <point x="159" y="445"/>
      <point x="160" y="509"/>
      <point x="160" y="526" type="curve" smooth="yes"/>
      <point x="160" y="548"/>
      <point x="168" y="565"/>
      <point x="168" y="584" type="curve" smooth="yes"/>
      <point x="168" y="590"/>
      <point x="162" y="609"/>
      <point x="147" y="618" type="curve"/>
      <point x="159" y="627"/>
      <point x="163" y="639"/>
    </contour>
  </outline>
</glyph>
<glyph name="Q" format="1">
  <advance width="602"/>
  <unicode hex="0051"/>
  <outline>
    <contour>
      <point x="527" y="-70" type="curve" smooth="yes"/>
      <point x="527" y="-39"/>
      <point x="455" y="24"/>
      <point x="424" y="59" type="curve"/>
      <point x="519" y="141"/>
      <point x="571" y="243"/>
      <point x="571" y="298" type="curve" smooth="yes"/>
      <point x="571" y="538"/>
      <point x="434" y="731"/>
      <point x="393" y="731" type="curve" smooth="yes"/>
      <point x="352" y="731"/>
      <point x="220" y="672"/>
      <point x="206" y="624" type="curve"/>
      <point x="105" y="606"/>
      <point x="36" y="367"/>
      <point x="36" y="227" type="curve" smooth="yes"/>
      <point x="36" y="83"/>
      <point x="110" y="-21"/>
      <point x="210" y="-21" type="curve" smooth="yes"/>
      <point x="261" y="-21"/>
      <point x="312" y="-7"/>
      <point x="369" y="23" type="curve"/>
      <point x="407" y="-19"/>
      <point x="435" y="-54"/>
      <point x="450" y="-79" type="curve"/>
      <point x="452" y="-99"/>
      <point x="461" y="-125"/>
      <point x="479" y="-125" type="curve" smooth="yes"/>
      <point x="502" y="-125"/>
      <point x="527" y="-96"/>
    </contour>
    <contour>
      <point x="265" y="577" type="line"/>
      <point x="296" y="577"/>
      <point x="317" y="609"/>
      <point x="329" y="624" type="curve" smooth="yes"/>
      <point x="345" y="643"/>
      <point x="355" y="652"/>
      <point x="373" y="652" type="curve" smooth="yes"/>
      <point x="434" y="652"/>
      <point x="503" y="432"/>
      <point x="503" y="335" type="curve" smooth="yes"/>
      <point x="503" y="255"/>
      <point x="459" y="174"/>
      <point x="378" y="111" type="curve"/>
      <point x="329" y="165"/>
      <point x="315" y="195"/>
      <point x="315" y="221" type="curve" smooth="yes"/>
      <point x="315" y="224"/>
      <point x="316" y="228"/>
      <point x="319" y="239" type="curve" smooth="yes"/>
      <point x="324" y="263"/>
      <point x="300" y="268"/>
      <point x="281" y="268" type="curve" smooth="yes"/>
      <point x="262" y="268"/>
      <point x="244" y="234"/>
      <point x="244" y="205" type="curve" smooth="yes"/>
      <point x="244" y="173"/>
      <point x="278" y="126"/>
      <point x="319" y="76" type="curve"/>
      <point x="277" y="59"/>
      <point x="247" y="53"/>
      <point x="219" y="53" type="curve" smooth="yes"/>
      <point x="154" y="53"/>
      <point x="112" y="104"/>
      <point x="112" y="236" type="curve" smooth="yes"/>
      <point x="112" y="332"/>
      <point x="163" y="547"/>
      <point x="241" y="567" type="curve" smooth="yes"/>
      <point x="247" y="569"/>
      <point x="251" y="570"/>
      <point x="257" y="577" type="curve"/>
    </contour>
  </outline>
</glyph>
<glyph name="R" format="1">
  <advance width="599"/>
  <unicode hex="0052"/>
  <outline>
    <contour>
      <point x="284" y="759" type="move" name="top"/>
    </contour>
    <contour>
      <point x="101" y="687" type="curve" smooth="yes"/>
      <point x="85" y="687"/>
      <point x="58" y="667"/>
      <point x="58" y="645" type="curve" smooth="yes"/>
      <point x="58" y="626"/>
      <point x="69" y="601"/>
      <point x="76" y="585" type="curve" smooth="yes"/>
      <point x="86" y="562"/>
      <point x="94" y="532"/>
      <point x="94" y="496" type="curve" smooth="yes"/>
      <point x="94" y="456"/>
      <point x="94" y="412"/>
      <point x="92" y="366" type="curve"/>
      <point x="69" y="350"/>
      <point x="62" y="337"/>
      <point x="62" y="314" type="curve" smooth="yes"/>
      <point x="62" y="301"/>
      <point x="68" y="286"/>
      <point x="88" y="266" type="curve"/>
      <point x="83" y="201"/>
      <point x="77" y="152"/>
      <point x="67" y="117" type="curve"/>
      <point x="59" y="103"/>
      <point x="54" y="80"/>
      <point x="54" y="63" type="curve" smooth="yes"/>
      <point x="54" y="14"/>
      <point x="91" y="-5"/>
      <point x="110" y="-5" type="curve" smooth="yes"/>
      <point x="126" y="-5"/>
      <point x="144" y="25"/>
      <point x="144" y="69" type="curve"/>
      <point x="144" y="100"/>
      <point x="145" y="125"/>
      <point x="147" y="151" type="curve" smooth="yes"/>
      <point x="149" y="166"/>
      <point x="151" y="182"/>
      <point x="154" y="224" type="curve"/>
      <point x="213" y="186"/>
      <point x="251" y="163"/>
      <point x="289" y="138" type="curve"/>
      <point x="349" y="102"/>
      <point x="394" y="73"/>
      <point x="437" y="45" type="curve" smooth="yes"/>
      <point x="483" y="15"/>
      <point x="521" y="-12"/>
      <point x="561" y="-12" type="curve" smooth="yes"/>
      <point x="582" y="-12"/>
      <point x="606" y="14"/>
      <point x="606" y="41" type="curve" smooth="yes"/>
      <point x="606" y="63"/>
      <point x="554" y="74"/>
      <point x="535" y="80" type="curve" smooth="yes"/>
      <point x="384" y="139"/>
      <point x="257" y="234"/>
      <point x="166" y="301" type="curve"/>
      <point x="166" y="307"/>
      <point x="166" y="305"/>
      <point x="166" y="310" type="curve"/>
      <point x="376" y="328"/>
      <point x="544" y="396"/>
      <point x="544" y="548" type="curve" smooth="yes"/>
      <point x="544" y="652"/>
      <point x="394" y="728"/>
      <point x="169" y="728" type="curve" smooth="yes"/>
      <point x="147" y="728"/>
      <point x="122" y="712"/>
      <point x="113" y="685" type="curve"/>
      <point x="108" y="687"/>
      <point x="104" y="687"/>
    </contour>
    <contour>
      <point x="237" y="657" type="curve" smooth="yes"/>
      <point x="269" y="657"/>
      <point x="462" y="643"/>
      <point x="462" y="534" type="curve" smooth="yes"/>
      <point x="462" y="408"/>
      <point x="269" y="386"/>
      <point x="165" y="378" type="curve" smooth="yes"/>
      <point x="168" y="418"/>
      <point x="168" y="451"/>
      <point x="168" y="484" type="curve" smooth="yes"/>
      <point x="168" y="512"/>
      <point x="166" y="543"/>
      <point x="164" y="567" type="curve" smooth="yes"/>
      <point x="162" y="582"/>
      <point x="162" y="598"/>
      <point x="159" y="627" type="curve"/>
      <point x="194" y="632"/>
      <point x="212" y="657"/>
    </contour>
  </outline>
</glyph>
<glyph name="S" format="1">
  <advance width="555"/>
  <unicode hex="0053"/>
  <outline>
    <contour>
      <point x="331" y="776" type="move" name="top"/>
    </contour>
    <contour>
      <point x="330" y="741" type="curve" smooth="yes"/>
      <point x="230" y="741"/>
      <point x="95" y="589"/>
      <point x="95" y="478" type="curve" smooth="yes"/>
      <point x="95" y="450"/>
      <point x="105" y="369"/>
      <point x="180" y="362" type="curve" smooth="yes"/>
      <point x="338" y="348"/>
      <point x="442" y="303"/>
      <point x="442" y="188" type="curve" smooth="yes"/>
      <point x="442" y="86"/>
      <point x="336" y="52"/>
      <point x="271" y="52" type="curve" smooth="yes"/>
      <point x="152" y="52"/>
      <point x="117" y="157"/>
      <point x="117" y="177" type="curve" smooth="yes"/>
      <point x="117" y="200"/>
      <point x="131" y="219"/>
      <point x="131" y="240" type="curve" smooth="yes"/>
      <point x="131" y="267"/>
      <point x="107" y="292"/>
      <point x="92" y="292" type="curve" smooth="yes"/>
      <point x="53" y="292"/>
      <point x="33" y="258"/>
      <point x="33" y="225" type="curve" smooth="yes"/>
      <point x="33" y="85"/>
      <point x="136" y="-15"/>
      <point x="276" y="-15" type="curve" smooth="yes"/>
      <point x="435" y="-15"/>
      <point x="521" y="102"/>
      <point x="521" y="183" type="curve" smooth="yes"/>
      <point x="521" y="365"/>
      <point x="355" y="401"/>
      <point x="272" y="421" type="curve" smooth="yes"/>
      <point x="239" y="428"/>
      <point x="174" y="433"/>
      <point x="174" y="480" type="curve" smooth="yes"/>
      <point x="174" y="567"/>
      <point x="276" y="670"/>
      <point x="342" y="670" type="curve" smooth="yes"/>
      <point x="384" y="670"/>
      <point x="410" y="649"/>
      <point x="428" y="628" type="curve" smooth="yes"/>
      <point x="441" y="612"/>
      <point x="448" y="599"/>
      <point x="470" y="599" type="curve" smooth="yes"/>
      <point x="488" y="599"/>
      <point x="509" y="619"/>
      <point x="509" y="657" type="curve" smooth="yes"/>
      <point x="509" y="683"/>
      <point x="441" y="741"/>
    </contour>
  </outline>
</glyph>
<glyph name="T" format="1">
  <advance width="559"/>
  <unicode hex="0054"/>
  <outline>
    <contour>
      <point x="279" y="752" type="move" name="top"/>
    </contour>
    <contour>
      <point x="41" y="725" type="curve" smooth="yes"/>
      <point x="18" y="725"/>
      <point x="-17" y="707"/>
      <point x="-17" y="672" type="curve" smooth="yes"/>
      <point x="-17" y="658"/>
      <point x="6" y="631"/>
      <point x="34" y="631" type="curve" smooth="yes"/>
      <point x="71" y="631"/>
      <point x="105" y="641"/>
      <point x="138" y="645" type="curve" smooth="yes"/>
      <point x="152" y="647"/>
      <point x="187" y="651"/>
      <point x="242" y="652" type="curve"/>
      <point x="242" y="616"/>
      <point x="260" y="586"/>
      <point x="260" y="552" type="curve" smooth="yes"/>
      <point x="260" y="380"/>
      <point x="237" y="207"/>
      <point x="225" y="112" type="curve" smooth="yes"/>
      <point x="219" y="67"/>
      <point x="218" y="53"/>
      <point x="218" y="47" type="curve" smooth="yes"/>
      <point x="218" y="28"/>
      <point x="235" y="-7"/>
      <point x="258" y="-7" type="curve" smooth="yes"/>
      <point x="281" y="-7"/>
      <point x="328" y="35"/>
      <point x="328" y="65" type="curve" smooth="yes"/>
      <point x="328" y="72"/>
      <point x="322" y="82"/>
      <point x="308" y="97" type="curve"/>
      <point x="309" y="108"/>
      <point x="310" y="134"/>
      <point x="317" y="240" type="curve" smooth="yes"/>
      <point x="323" y="325"/>
      <point x="335" y="512"/>
      <point x="335" y="549" type="curve" smooth="yes"/>
      <point x="335" y="586"/>
      <point x="332" y="617"/>
      <point x="323" y="654" type="curve"/>
      <point x="392" y="652"/>
      <point x="451" y="641"/>
      <point x="510" y="641" type="curve" smooth="yes"/>
      <point x="540" y="641"/>
      <point x="564" y="658"/>
      <point x="564" y="675" type="curve" smooth="yes"/>
      <point x="564" y="704"/>
      <point x="532" y="725"/>
      <point x="505" y="725" type="curve" smooth="yes"/>
      <point x="497" y="725"/>
      <point x="474" y="724"/>
      <point x="425" y="721" type="curve" smooth="yes"/>
      <point x="373" y="718"/>
      <point x="316" y="717"/>
      <point x="291" y="717" type="curve" smooth="yes"/>
      <point x="256" y="717"/>
      <point x="166" y="718"/>
      <point x="120" y="719" type="curve" smooth="yes"/>
      <point x="90" y="720"/>
      <point x="65" y="725"/>
    </contour>
  </outline>
</glyph>
<glyph name="U" format="1">
  <advance width="662"/>
  <unicode hex="0055"/>
  <outline>
    <contour>
      <point x="284" y="763" type="move" name="top"/>
    </contour>
    <contour>
      <point x="107" y="726" type="curve" smooth="yes"/>
      <point x="90" y="726"/>
      <point x="60" y="700"/>
      <point x="60" y="657" type="curve" smooth="yes"/>
      <point x="60" y="628"/>
      <point x="67" y="605"/>
      <point x="67" y="580" type="curve" smooth="yes"/>
      <point x="67" y="546"/>
      <point x="66" y="511"/>
      <point x="65" y="480" type="curve" smooth="yes"/>
      <point x="63" y="449"/>
      <point x="63" y="420"/>
      <point x="63" y="395" type="curve" smooth="yes"/>
      <point x="63" y="216"/>
      <point x="113" y="-12"/>
      <point x="311" y="-12" type="curve" smooth="yes"/>
      <point x="445" y="-12"/>
      <point x="611" y="98"/>
      <point x="611" y="297" type="curve" smooth="yes"/>
      <point x="611" y="481"/>
      <point x="542" y="608"/>
      <point x="515" y="652" type="curve"/>
      <point x="506" y="675"/>
      <point x="484" y="730"/>
      <point x="449" y="730" type="curve" smooth="yes"/>
      <point x="431" y="730"/>
      <point x="405" y="699"/>
      <point x="405" y="674" type="curve" smooth="yes"/>
      <point x="405" y="640"/>
      <point x="451" y="588"/>
      <point x="479" y="569" type="curve"/>
      <point x="517" y="499"/>
      <point x="536" y="410"/>
      <point x="536" y="275" type="curve" smooth="yes"/>
      <point x="536" y="175"/>
      <point x="445" y="65"/>
      <point x="309" y="65" type="curve" smooth="yes"/>
      <point x="200" y="65"/>
      <point x="139" y="201"/>
      <point x="139" y="389" type="curve" smooth="yes"/>
      <point x="139" y="412"/>
      <point x="144" y="569"/>
      <point x="150" y="602" type="curve"/>
      <point x="157" y="615"/>
      <point x="165" y="637"/>
      <point x="165" y="653" type="curve" smooth="yes"/>
      <point x="165" y="680"/>
      <point x="141" y="726"/>
    </contour>
  </outline>
</glyph>
<glyph name="V" format="1">
  <advance width="564"/>
  <unicode hex="0056"/>
  <outline>
    <contour>
      <point x="43" y="703" type="curve" smooth="yes"/>
      <point x="28" y="703"/>
      <point x="-9" y="664"/>
      <point x="-9" y="646" type="curve" smooth="yes"/>
      <point x="-9" y="622"/>
      <point x="5" y="608"/>
      <point x="24" y="598" type="curve" smooth="yes"/>
      <point x="30" y="595"/>
      <point x="36" y="589"/>
      <point x="40" y="582" type="curve" smooth="yes"/>
      <point x="98" y="486"/>
      <point x="212" y="112"/>
      <point x="212" y="63" type="curve" smooth="yes"/>
      <point x="212" y="55"/>
      <point x="206" y="43"/>
      <point x="206" y="37" type="curve" smooth="yes"/>
      <point x="206" y="17"/>
      <point x="237" y="-8"/>
      <point x="251" y="-8" type="curve" smooth="yes"/>
      <point x="272" y="-8"/>
      <point x="302" y="0"/>
      <point x="320" y="57" type="curve" smooth="yes"/>
      <point x="352" y="157"/>
      <point x="393" y="243"/>
      <point x="422" y="332" type="curve" smooth="yes"/>
      <point x="447" y="411"/>
      <point x="476" y="494"/>
      <point x="512" y="594" type="curve" smooth="yes"/>
      <point x="522" y="625"/>
      <point x="546" y="652"/>
      <point x="546" y="686" type="curve" smooth="yes"/>
      <point x="546" y="709"/>
      <point x="521" y="730"/>
      <point x="506" y="730" type="curve" smooth="yes"/>
      <point x="468" y="730"/>
      <point x="447" y="712"/>
      <point x="445" y="697" type="curve" smooth="yes"/>
      <point x="435" y="622"/>
      <point x="363" y="351"/>
      <point x="271" y="130" type="curve"/>
      <point x="206" y="379"/>
      <point x="117" y="703"/>
    </contour>
  </outline>
</glyph>
<glyph name="W" format="1">
  <advance width="873"/>
  <unicode hex="0057"/>
  <outline>
    <contour>
      <point x="424" y="705" type="move" name="top"/>
    </contour>
    <contour>
      <point x="73" y="724" type="curve" smooth="yes"/>
      <point x="53" y="724"/>
      <point x="27" y="683"/>
      <point x="27" y="646" type="curve" smooth="yes"/>
      <point x="27" y="619"/>
      <point x="42" y="588"/>
      <point x="58" y="569" type="curve" smooth="yes"/>
      <point x="82" y="543"/>
      <point x="114" y="316"/>
      <point x="123" y="216" type="curve" smooth="yes"/>
      <point x="128" y="172"/>
      <point x="131" y="131"/>
      <point x="131" y="45" type="curve" smooth="yes"/>
      <point x="131" y="15"/>
      <point x="154" y="-19"/>
      <point x="181" y="-19" type="curve" smooth="yes"/>
      <point x="209" y="-19"/>
      <point x="240" y="6"/>
      <point x="242" y="27" type="curve" smooth="yes"/>
      <point x="250" y="111"/>
      <point x="410" y="406"/>
      <point x="437" y="406" type="curve" smooth="yes"/>
      <point x="454" y="406"/>
      <point x="467" y="366"/>
      <point x="479" y="312" type="curve"/>
      <point x="510" y="188"/>
      <point x="555" y="27"/>
      <point x="667" y="27" type="curve" smooth="yes"/>
      <point x="786" y="27"/>
      <point x="804" y="248"/>
      <point x="804" y="347" type="curve" smooth="yes"/>
      <point x="804" y="401"/>
      <point x="791" y="636"/>
      <point x="781" y="660" type="curve" smooth="yes"/>
      <point x="771" y="684"/>
      <point x="761" y="704"/>
      <point x="731" y="704" type="curve" smooth="yes"/>
      <point x="704" y="704"/>
      <point x="682" y="690"/>
      <point x="682" y="665" type="curve" smooth="yes"/>
      <point x="682" y="649"/>
      <point x="692" y="634"/>
      <point x="702" y="619" type="curve" smooth="yes"/>
      <point x="708" y="609"/>
      <point x="709" y="595"/>
      <point x="713" y="563" type="curve" smooth="yes"/>
      <point x="722" y="499"/>
      <point x="731" y="399"/>
      <point x="731" y="349" type="curve" smooth="yes"/>
      <point x="731" y="190"/>
      <point x="703" y="109"/>
      <point x="664" y="109" type="curve" smooth="yes"/>
      <point x="614" y="109"/>
      <point x="581" y="207"/>
      <point x="565" y="274" type="curve" smooth="yes"/>
      <point x="532" y="422"/>
      <point x="489" y="515"/>
      <point x="449" y="515" type="curve" smooth="yes"/>
      <point x="405" y="515"/>
      <point x="322" y="384"/>
      <point x="283" y="304" type="curve" smooth="yes"/>
      <point x="263" y="264"/>
      <point x="246" y="232"/>
      <point x="203" y="129" type="curve"/>
      <point x="194" y="262"/>
      <point x="164" y="487"/>
      <point x="133" y="602" type="curve" smooth="yes"/>
      <point x="126" y="626"/>
      <point x="133" y="649"/>
      <point x="127" y="672" type="curve"/>
      <point x="123" y="689"/>
      <point x="113" y="724"/>
    </contour>
  </outline>
</glyph>
<glyph name="X" format="1">
  <advance width="573"/>
  <unicode hex="0058"/>
  <outline>
    <contour>
      <point x="96" y="711" type="curve" smooth="yes"/>
      <point x="73" y="711"/>
      <point x="50" y="677"/>
      <point x="50" y="658" type="curve" smooth="yes"/>
      <point x="50" y="616"/>
      <point x="85" y="591"/>
      <point x="105" y="560" type="curve" smooth="yes"/>
      <point x="132" y="519"/>
      <point x="194" y="420"/>
      <point x="230" y="365" type="curve"/>
      <point x="203" y="322"/>
      <point x="175" y="283"/>
      <point x="148" y="243" type="curve" smooth="yes"/>
      <point x="95" y="164"/>
      <point x="32" y="67"/>
      <point x="32" y="45" type="curve" smooth="yes"/>
      <point x="32" y="6"/>
      <point x="63" y="-10"/>
      <point x="81" y="-10" type="curve" smooth="yes"/>
      <point x="98" y="-10"/>
      <point x="119" y="22"/>
      <point x="126" y="60" type="curve" smooth="yes"/>
      <point x="129" y="86"/>
      <point x="222" y="229"/>
      <point x="273" y="307" type="curve"/>
      <point x="298" y="273"/>
      <point x="316" y="250"/>
      <point x="339" y="221" type="curve" smooth="yes"/>
      <point x="422" y="115"/>
      <point x="442" y="87"/>
      <point x="446" y="77" type="curve"/>
      <point x="456" y="49"/>
      <point x="481" y="15"/>
      <point x="513" y="15" type="curve" smooth="yes"/>
      <point x="530" y="15"/>
      <point x="558" y="26"/>
      <point x="558" y="52" type="curve" smooth="yes"/>
      <point x="558" y="95"/>
      <point x="519" y="117"/>
      <point x="489" y="144" type="curve" smooth="yes"/>
      <point x="470" y="163"/>
      <point x="403" y="249"/>
      <point x="316" y="373" type="curve"/>
      <point x="324" y="385"/>
      <point x="335" y="401"/>
      <point x="339" y="408" type="curve" smooth="yes"/>
      <point x="393" y="482"/>
      <point x="432" y="560"/>
      <point x="481" y="624" type="curve" smooth="yes"/>
      <point x="490" y="634"/>
      <point x="515" y="650"/>
      <point x="515" y="669" type="curve" smooth="yes"/>
      <point x="515" y="689"/>
      <point x="504" y="739"/>
      <point x="461" y="739" type="curve" smooth="yes"/>
      <point x="428" y="739"/>
      <point x="392" y="625"/>
      <point x="377" y="596" type="curve" smooth="yes"/>
      <point x="351" y="548"/>
      <point x="320" y="499"/>
      <point x="275" y="432" type="curve"/>
      <point x="206" y="535"/>
      <point x="163" y="615"/>
      <point x="154" y="649" type="curve" smooth="yes"/>
      <point x="147" y="676"/>
      <point x="120" y="711"/>
    </contour>
  </outline>
</glyph>
<glyph name="Y" format="1">
  <advance width="490"/>
  <unicode hex="0059"/>
  <outline>
    <contour>
      <point x="236" y="773" type="move" name="top"/>
    </contour>
    <contour>
      <point x="31" y="735" type="curve" smooth="yes"/>
      <point x="6" y="735"/>
      <point x="-8" y="706"/>
      <point x="-8" y="684" type="curve" smooth="yes"/>
      <point x="-8" y="672"/>
      <point x="10" y="643"/>
      <point x="134" y="469" type="curve" smooth="yes"/>
      <point x="182" y="406"/>
      <point x="214" y="340"/>
      <point x="253" y="301" type="curve"/>
      <point x="209" y="193"/>
      <point x="152" y="63"/>
      <point x="152" y="36" type="curve" smooth="yes"/>
      <point x="152" y="3"/>
      <point x="180" y="-16"/>
      <point x="196" y="-16" type="curve" smooth="yes"/>
      <point x="210" y="-16"/>
      <point x="238" y="-8"/>
      <point x="240" y="25" type="curve" smooth="yes"/>
      <point x="247" y="103"/>
      <point x="269" y="158"/>
      <point x="292" y="211" type="curve" smooth="yes"/>
      <point x="306" y="245"/>
      <point x="313" y="262"/>
      <point x="322" y="284" type="curve"/>
      <point x="338" y="290"/>
      <point x="344" y="304"/>
      <point x="344" y="311" type="curve" smooth="yes"/>
      <point x="344" y="320"/>
      <point x="343" y="325"/>
      <point x="341" y="328" type="curve"/>
      <point x="393" y="458"/>
      <point x="444" y="593"/>
      <point x="448" y="608" type="curve" smooth="yes"/>
      <point x="457" y="638"/>
      <point x="477" y="663"/>
      <point x="477" y="695" type="curve" smooth="yes"/>
      <point x="477" y="716"/>
      <point x="461" y="735"/>
      <point x="432" y="735" type="curve"/>
      <point x="402" y="735"/>
      <point x="384" y="716"/>
      <point x="384" y="695" type="curve" smooth="yes"/>
      <point x="384" y="676"/>
      <point x="383" y="663"/>
      <point x="381" y="649" type="curve" smooth="yes"/>
      <point x="375" y="609"/>
      <point x="342" y="519"/>
      <point x="287" y="382" type="curve"/>
      <point x="206" y="472"/>
      <point x="94" y="640"/>
      <point x="91" y="674" type="curve" smooth="yes"/>
      <point x="89" y="696"/>
      <point x="64" y="735"/>
    </contour>
  </outline>
</glyph>
<glyph name="Z" format="1">
  <advance width="654"/>
  <unicode hex="005A"/>
  <outline>
    <contour>
      <point x="332" y="754" type="move" name="top"/>
    </contour>
    <contour>
      <point x="48" y="658" type="curve" smooth="yes"/>
      <point x="48" y="639"/>
      <point x="83" y="602"/>
      <point x="105" y="602" type="curve" smooth="yes"/>
      <point x="123" y="602"/>
      <point x="133" y="619"/>
      <point x="147" y="626" type="curve" smooth="yes"/>
      <point x="181" y="646"/>
      <point x="367" y="657"/>
      <point x="413" y="657" type="curve" smooth="yes"/>
      <point x="433" y="657"/>
      <point x="451" y="656"/>
      <point x="493" y="653" type="curve"/>
      <point x="412" y="551"/>
      <point x="354" y="469"/>
      <point x="294" y="393" type="curve"/>
      <point x="217" y="303"/>
      <point x="16" y="56"/>
      <point x="16" y="40" type="curve" smooth="yes"/>
      <point x="16" y="19"/>
      <point x="41" y="-19"/>
      <point x="66" y="-19" type="curve" smooth="yes"/>
      <point x="75" y="-19"/>
      <point x="85" y="-14"/>
      <point x="100" y="-1" type="curve"/>
      <point x="162" y="-1"/>
      <point x="183" y="-1"/>
      <point x="204" y="-1" type="curve" smooth="yes"/>
      <point x="329" y="-1"/>
      <point x="440" y="-2"/>
      <point x="585" y="-2" type="curve" smooth="yes"/>
      <point x="606" y="-2"/>
      <point x="632" y="12"/>
      <point x="632" y="31" type="curve" smooth="yes"/>
      <point x="632" y="52"/>
      <point x="616" y="86"/>
      <point x="578" y="86" type="curve" smooth="yes"/>
      <point x="552" y="86"/>
      <point x="530" y="70"/>
      <point x="506" y="70" type="curve" smooth="yes"/>
      <point x="439" y="70"/>
      <point x="422" y="69"/>
      <point x="407" y="69" type="curve" smooth="yes"/>
      <point x="319" y="67"/>
      <point x="236" y="67"/>
      <point x="135" y="67" type="curve"/>
      <point x="149" y="91"/>
      <point x="144" y="81"/>
      <point x="146" y="86" type="curve" smooth="yes"/>
      <point x="201" y="162"/>
      <point x="278" y="256"/>
      <point x="334" y="330" type="curve" smooth="yes"/>
      <point x="376" y="388"/>
      <point x="542" y="591"/>
      <point x="562" y="610" type="curve"/>
      <point x="579" y="618"/>
      <point x="610" y="646"/>
      <point x="613" y="660" type="curve"/>
      <point x="615" y="666"/>
      <point x="618" y="671"/>
      <point x="618" y="677" type="curve" smooth="yes"/>
      <point x="618" y="703"/>
      <point x="605" y="727"/>
      <point x="562" y="727" type="curve" smooth="yes"/>
      <point x="549" y="727"/>
      <point x="530" y="726"/>
      <point x="471" y="723" type="curve"/>
      <point x="379" y="717"/>
      <point x="254" y="709"/>
      <point x="127" y="709" type="curve" smooth="yes"/>
      <point x="102" y="709"/>
      <point x="48" y="696"/>
    </contour>
  </outline>
</glyph>
<glyph name="bracketleft" format="1">
  <advance width="438"/>
  <unicode hex="005B"/>
  <outline>
    <contour>
      <point x="157" y="740" type="curve" smooth="yes"/>
      <point x="144" y="740"/>
      <point x="114" y="712"/>
      <point x="114" y="695" type="curve" smooth="yes"/>
      <point x="114" y="685"/>
      <point x="120" y="675"/>
      <point x="130" y="668" type="curve"/>
      <point x="130" y="656" type="line" smooth="yes"/>
      <point x="130" y="563"/>
      <point x="126" y="471"/>
      <point x="119" y="365" type="curve" smooth="yes"/>
      <point x="104" y="147"/>
      <point x="47" y="-37"/>
      <point x="47" y="-101" type="curve" smooth="yes"/>
      <point x="47" y="-121"/>
      <point x="68" y="-151"/>
      <point x="86" y="-151" type="curve" smooth="yes"/>
      <point x="132" y="-151"/>
      <point x="178" y="-128"/>
      <point x="211" y="-128" type="curve" smooth="yes"/>
      <point x="250" y="-128"/>
      <point x="283" y="-139"/>
      <point x="318" y="-139" type="curve" smooth="yes"/>
      <point x="325" y="-138"/>
      <point x="346" y="-127"/>
      <point x="346" y="-117" type="curve" smooth="yes"/>
      <point x="346" y="-100"/>
      <point x="335" y="-59"/>
      <point x="304" y="-59" type="curve" smooth="yes"/>
      <point x="246" y="-59"/>
      <point x="189" y="-71"/>
      <point x="135" y="-73" type="curve"/>
      <point x="136" y="-36"/>
      <point x="148" y="52"/>
      <point x="167" y="171" type="curve" smooth="yes"/>
      <point x="186" y="305"/>
      <point x="192" y="466"/>
      <point x="209" y="599" type="curve" smooth="yes"/>
      <point x="212" y="619"/>
      <point x="217" y="637"/>
      <point x="221" y="654" type="curve"/>
      <point x="262" y="649"/>
      <point x="309" y="637"/>
      <point x="346" y="637" type="curve" smooth="yes"/>
      <point x="365" y="637"/>
      <point x="370" y="658"/>
      <point x="370" y="669" type="curve" smooth="yes"/>
      <point x="370" y="702"/>
      <point x="342" y="718"/>
      <point x="329" y="718" type="curve" smooth="yes"/>
      <point x="303" y="718"/>
      <point x="283" y="713"/>
      <point x="261" y="713" type="curve" smooth="yes"/>
      <point x="223" y="713"/>
      <point x="192" y="740"/>
    </contour>
  </outline>
</glyph>
<glyph name="backslash" format="1">
  <advance width="451"/>
  <unicode hex="005C"/>
  <outline>
    <contour>
      <point x="381" y="-128" type="curve" smooth="yes"/>
      <point x="402" y="-128"/>
      <point x="426" y="-112"/>
      <point x="426" y="-78" type="curve" smooth="yes"/>
      <point x="426" y="-59"/>
      <point x="396" y="-29"/>
      <point x="391" y="-7" type="curve" smooth="yes"/>
      <point x="385" y="15"/>
      <point x="226" y="435"/>
      <point x="181" y="544" type="curve" smooth="yes"/>
      <point x="162" y="590"/>
      <point x="130" y="725"/>
      <point x="78" y="725" type="curve" smooth="yes"/>
      <point x="52" y="725"/>
      <point x="35" y="691"/>
      <point x="35" y="680" type="curve" smooth="yes"/>
      <point x="34" y="650"/>
      <point x="47" y="634"/>
      <point x="49" y="632" type="curve" smooth="yes"/>
      <point x="84" y="593"/>
      <point x="98" y="553"/>
      <point x="179" y="356" type="curve" smooth="yes"/>
      <point x="234" y="222"/>
      <point x="271" y="96"/>
      <point x="321" y="-34" type="curve" smooth="yes"/>
      <point x="335" y="-72"/>
      <point x="335" y="-128"/>
    </contour>
  </outline>
</glyph>
<glyph name="bracketright" format="1">
  <advance width="436"/>
  <unicode hex="005D"/>
  <outline>
    <contour>
      <point x="119" y="721" type="curve" smooth="yes"/>
      <point x="98" y="721"/>
      <point x="88" y="698"/>
      <point x="88" y="679" type="curve" smooth="yes"/>
      <point x="88" y="665"/>
      <point x="109" y="640"/>
      <point x="129" y="640" type="curve" smooth="yes"/>
      <point x="161" y="640"/>
      <point x="209" y="657"/>
      <point x="241" y="657" type="curve" smooth="yes"/>
      <point x="281" y="657" type="line"/>
      <point x="272" y="645"/>
      <point x="271" y="625"/>
      <point x="271" y="616" type="curve" smooth="yes"/>
      <point x="271" y="531"/>
      <point x="265" y="458"/>
      <point x="254" y="344" type="curve" smooth="yes"/>
      <point x="228" y="97"/>
      <point x="225" y="62"/>
      <point x="222" y="44" type="curve" smooth="yes"/>
      <point x="210" y="-19"/>
      <point x="204" y="-52"/>
      <point x="197" y="-74" type="curve"/>
      <point x="154" y="-73"/>
      <point x="76" y="-58"/>
      <point x="56" y="-67" type="curve" smooth="yes"/>
      <point x="39" y="-72"/>
      <point x="28" y="-86"/>
      <point x="28" y="-106" type="curve" smooth="yes"/>
      <point x="28" y="-117"/>
      <point x="45" y="-137"/>
      <point x="73" y="-137" type="curve" smooth="yes"/>
      <point x="221" y="-137"/>
      <point x="209" y="-150"/>
      <point x="252" y="-150" type="curve" smooth="yes"/>
      <point x="282" y="-150"/>
      <point x="290" y="-115"/>
      <point x="290" y="-99" type="curve" smooth="yes"/>
      <point x="290" y="-85"/>
      <point x="289" y="-18"/>
      <point x="296" y="36" type="curve" smooth="yes"/>
      <point x="298" y="49"/>
      <point x="308" y="156"/>
      <point x="324" y="347" type="curve" smooth="yes"/>
      <point x="330" y="417"/>
      <point x="340" y="501"/>
      <point x="348" y="562" type="curve" smooth="yes"/>
      <point x="353" y="603"/>
      <point x="358" y="638"/>
      <point x="358" y="652" type="curve" smooth="yes"/>
      <point x="358" y="654"/>
      <point x="358" y="659"/>
      <point x="354" y="662" type="curve"/>
      <point x="359" y="666"/>
      <point x="360" y="672"/>
      <point x="360" y="673" type="curve" smooth="yes"/>
      <point x="360" y="719"/>
      <point x="340" y="739"/>
      <point x="320" y="739" type="curve" smooth="yes"/>
      <point x="287" y="739"/>
      <point x="256" y="719"/>
      <point x="222" y="719" type="curve" smooth="yes"/>
      <point x="178" y="719"/>
      <point x="150" y="721"/>
    </contour>
  </outline>
</glyph>
<glyph name="asciicircum" format="1">
  <advance width="538"/>
  <unicode hex="005E"/>
  <outline>
    <contour>
      <point x="272" y="688" type="curve" smooth="yes"/>
      <point x="269" y="688"/>
      <point x="266" y="686"/>
      <point x="264" y="684" type="curve"/>
      <point x="261" y="687"/>
      <point x="263" y="702"/>
      <point x="261" y="707" type="curve" smooth="yes"/>
      <point x="259" y="716"/>
      <point x="246" y="738"/>
      <point x="221" y="738" type="curve" smooth="yes"/>
      <point x="198" y="738"/>
      <point x="191" y="719"/>
      <point x="169" y="646" type="curve" smooth="yes"/>
      <point x="158" y="612"/>
      <point x="77" y="465"/>
      <point x="69" y="453" type="curve" smooth="yes"/>
      <point x="59" y="438"/>
      <point x="51" y="425"/>
      <point x="51" y="404" type="curve" smooth="yes"/>
      <point x="51" y="388"/>
      <point x="63" y="363"/>
      <point x="100" y="363" type="curve" smooth="yes"/>
      <point x="119" y="363"/>
      <point x="136" y="392"/>
      <point x="147" y="433" type="curve" smooth="yes"/>
      <point x="148" y="437"/>
      <point x="171" y="503"/>
      <point x="178" y="510" type="curve" smooth="yes"/>
      <point x="189" y="521"/>
      <point x="210" y="572"/>
      <point x="236" y="617" type="curve"/>
      <point x="268" y="560"/>
      <point x="302" y="514"/>
      <point x="321" y="486" type="curve" smooth="yes"/>
      <point x="353" y="439"/>
      <point x="399" y="377"/>
      <point x="447" y="377" type="curve" smooth="yes"/>
      <point x="489" y="377"/>
      <point x="496" y="399"/>
      <point x="496" y="414" type="curve" smooth="yes"/>
      <point x="496" y="427"/>
      <point x="484" y="447"/>
      <point x="467" y="447" type="curve" smooth="yes"/>
      <point x="461" y="447"/>
      <point x="459" y="448"/>
      <point x="444" y="457" type="curve"/>
      <point x="420" y="470"/>
      <point x="345" y="562"/>
      <point x="313" y="628" type="curve" smooth="yes"/>
      <point x="307" y="642"/>
      <point x="301" y="657"/>
      <point x="299" y="666" type="curve" smooth="yes"/>
      <point x="296" y="680"/>
      <point x="282" y="688"/>
    </contour>
  </outline>
</glyph>
<glyph name="underscore" format="1">
  <advance width="503"/>
  <unicode hex="005F"/>
  <outline>
    <contour>
      <point x="503" y="-172" type="curve" smooth="yes"/>
      <point x="503" y="-151"/>
      <point x="495" y="-140"/>
      <point x="461" y="-140" type="curve" smooth="yes"/>
      <point x="398" y="-140"/>
      <point x="359" y="-142"/>
      <point x="315" y="-142" type="curve" smooth="yes"/>
      <point x="294" y="-142"/>
      <point x="152" y="-143"/>
      <point x="47" y="-150" type="curve" smooth="yes"/>
      <point x="1" y="-152"/>
      <point x="0" y="-174"/>
      <point x="0" y="-182" type="curve" smooth="yes"/>
      <point x="0" y="-209"/>
      <point x="21" y="-227"/>
      <point x="41" y="-227" type="curve" smooth="yes"/>
      <point x="72" y="-227"/>
      <point x="100" y="-213"/>
      <point x="341" y="-213" type="curve" smooth="yes"/>
      <point x="399" y="-213"/>
      <point x="422" y="-224"/>
      <point x="463" y="-224" type="curve" smooth="yes"/>
      <point x="483" y="-224"/>
      <point x="503" y="-198"/>
    </contour>
  </outline>
</glyph>
<glyph name="grave" format="1">
  <advance width="400"/>
  <unicode hex="0060"/>
  <outline>
    <contour>
      <point x="242" y="528" type="move" name="_top"/>
    </contour>
    <contour>
      <point x="100" y="696" type="curve" smooth="yes"/>
      <point x="101" y="677"/>
      <point x="134" y="662"/>
      <point x="152" y="645" type="curve" smooth="yes"/>
      <point x="216" y="582"/>
      <point x="239" y="548"/>
      <point x="263" y="548" type="curve" smooth="yes"/>
      <point x="289" y="548"/>
      <point x="300" y="570"/>
      <point x="300" y="578" type="curve" smooth="yes"/>
      <point x="300" y="605"/>
      <point x="254" y="637"/>
      <point x="233" y="661" type="curve" smooth="yes"/>
      <point x="212" y="683"/>
      <point x="189" y="707"/>
      <point x="175" y="734" type="curve" smooth="yes"/>
      <point x="171" y="741"/>
      <point x="158" y="751"/>
      <point x="139" y="751" type="curve" smooth="yes"/>
      <point x="114" y="751"/>
      <point x="100" y="720"/>
    </contour>
  </outline>
</glyph>
<glyph name="a" format="1">
  <advance width="553"/>
  <unicode hex="0061"/>
  <outline>
    <contour>
      <point x="321" y="532" type="move" name="top"/>
    </contour>
    <contour>
      <point x="321" y="490" type="curve" smooth="yes"/>
      <point x="199" y="490"/>
      <point x="31" y="298"/>
      <point x="31" y="128" type="curve" smooth="yes"/>
      <point x="31" y="40"/>
      <point x="74" y="-13"/>
      <point x="145" y="-13" type="curve" smooth="yes"/>
      <point x="266" y="-13"/>
      <point x="359" y="96"/>
      <point x="417" y="192" type="curve"/>
      <point x="416" y="180"/>
      <point x="412" y="131"/>
      <point x="412" y="121" type="curve" smooth="yes"/>
      <point x="408" y="95"/>
      <point x="409" y="69"/>
      <point x="409" y="46" type="curve" smooth="yes"/>
      <point x="409" y="8"/>
      <point x="413" y="-8"/>
      <point x="454" y="-8" type="curve" smooth="yes"/>
      <point x="469" y="-8"/>
      <point x="495" y="6"/>
      <point x="495" y="26" type="curve" smooth="yes"/>
      <point x="495" y="43"/>
      <point x="492" y="54"/>
      <point x="490" y="69" type="curve" smooth="yes"/>
      <point x="487" y="100"/>
      <point x="481" y="129"/>
      <point x="481" y="220" type="curve" smooth="yes"/>
      <point x="481" y="261"/>
      <point x="493" y="298"/>
      <point x="498" y="322" type="curve" smooth="yes"/>
      <point x="504" y="348"/>
      <point x="507" y="361"/>
      <point x="507" y="373" type="curve" smooth="yes"/>
      <point x="507" y="386"/>
      <point x="497" y="407"/>
      <point x="478" y="407" type="curve" smooth="yes"/>
      <point x="472" y="407"/>
      <point x="465" y="405"/>
      <point x="459" y="399" type="curve"/>
      <point x="446" y="416"/>
      <point x="391" y="490"/>
    </contour>
    <contour>
      <point x="321" y="421" type="curve" smooth="yes"/>
      <point x="363" y="421"/>
      <point x="400" y="376"/>
      <point x="400" y="338" type="curve" smooth="yes"/>
      <point x="400" y="244"/>
      <point x="272" y="55"/>
      <point x="155" y="55" type="curve" smooth="yes"/>
      <point x="118" y="55"/>
      <point x="101" y="94"/>
      <point x="101" y="119" type="curve" smooth="yes"/>
      <point x="101" y="219"/>
      <point x="197" y="421"/>
    </contour>
  </outline>
</glyph>
<glyph name="b" format="1">
  <advance width="559"/>
  <unicode hex="0062"/>
  <outline>
    <contour>
      <point x="236" y="-8" type="curve" smooth="yes"/>
      <point x="478" y="-8"/>
      <point x="533" y="208"/>
      <point x="533" y="276" type="curve" smooth="yes"/>
      <point x="533" y="388"/>
      <point x="461" y="478"/>
      <point x="370" y="478" type="curve" smooth="yes"/>
      <point x="291" y="478"/>
      <point x="213" y="432"/>
      <point x="155" y="326" type="curve"/>
      <point x="165" y="447"/>
      <point x="171" y="617"/>
      <point x="171" y="649" type="curve" smooth="yes"/>
      <point x="171" y="686"/>
      <point x="154" y="727"/>
      <point x="119" y="727" type="curve" smooth="yes"/>
      <point x="101" y="727"/>
      <point x="71" y="699"/>
      <point x="71" y="679" type="curve" smooth="yes"/>
      <point x="71" y="658"/>
      <point x="90" y="644"/>
      <point x="90" y="623" type="curve" smooth="yes"/>
      <point x="90" y="410"/>
      <point x="81" y="243"/>
      <point x="57" y="108" type="curve" smooth="yes"/>
      <point x="56" y="103"/>
      <point x="55" y="98"/>
      <point x="52" y="91" type="curve" smooth="yes"/>
      <point x="44" y="70"/>
      <point x="34" y="49"/>
      <point x="34" y="35" type="curve" smooth="yes"/>
      <point x="34" y="-7"/>
      <point x="56" y="-17"/>
      <point x="71" y="-17" type="curve" smooth="yes"/>
      <point x="86" y="-17"/>
      <point x="98" y="-13"/>
      <point x="110" y="1" type="curve"/>
      <point x="154" y="-7"/>
      <point x="200" y="-8"/>
    </contour>
    <contour>
      <point x="363" y="410" type="curve" smooth="yes"/>
      <point x="407" y="410"/>
      <point x="458" y="356"/>
      <point x="458" y="274" type="curve" smooth="yes"/>
      <point x="458" y="177"/>
      <point x="383" y="52"/>
      <point x="236" y="52" type="curve" smooth="yes"/>
      <point x="182" y="52"/>
      <point x="155" y="60"/>
      <point x="133" y="68" type="curve"/>
      <point x="151" y="194"/>
      <point x="219" y="410"/>
    </contour>
  </outline>
</glyph>
<glyph name="c" format="1">
  <advance width="475"/>
  <unicode hex="0063"/>
  <outline>
    <contour>
      <point x="293" y="528" type="move" name="top"/>
    </contour>
    <contour>
      <point x="361" y="484" type="curve" smooth="yes"/>
      <point x="201" y="484"/>
      <point x="34" y="375"/>
      <point x="34" y="170" type="curve" smooth="yes"/>
      <point x="34" y="48"/>
      <point x="106" y="-17"/>
      <point x="240" y="-17" type="curve" smooth="yes"/>
      <point x="298" y="-17"/>
      <point x="353" y="-5"/>
      <point x="409" y="-5" type="curve" smooth="yes"/>
      <point x="437" y="-5"/>
      <point x="447" y="20"/>
      <point x="447" y="34" type="curve" smooth="yes"/>
      <point x="447" y="49"/>
      <point x="438" y="80"/>
      <point x="416" y="80" type="curve" smooth="yes"/>
      <point x="393" y="80"/>
      <point x="373" y="68"/>
      <point x="355" y="59" type="curve" smooth="yes"/>
      <point x="327" y="46"/>
      <point x="255" y="45"/>
      <point x="248" y="45" type="curve" smooth="yes"/>
      <point x="158" y="45"/>
      <point x="112" y="88"/>
      <point x="112" y="168" type="curve" smooth="yes"/>
      <point x="112" y="296"/>
      <point x="192" y="409"/>
      <point x="308" y="409" type="curve" smooth="yes"/>
      <point x="331" y="409"/>
      <point x="347" y="389"/>
      <point x="367" y="389" type="curve" smooth="yes"/>
      <point x="394" y="389"/>
      <point x="415" y="416"/>
      <point x="415" y="430" type="curve" smooth="yes"/>
      <point x="415" y="468"/>
      <point x="396" y="484"/>
    </contour>
  </outline>
</glyph>
<glyph name="d" format="1">
  <advance width="582"/>
  <unicode hex="0064"/>
  <outline>
    <contour>
      <point x="487" y="-11" type="curve" smooth="yes"/>
      <point x="496" y="-11"/>
      <point x="523" y="-10"/>
      <point x="523" y="43" type="curve" smooth="yes"/>
      <point x="523" y="59"/>
      <point x="522" y="86"/>
      <point x="520" y="115" type="curve" smooth="yes"/>
      <point x="516" y="185"/>
      <point x="514" y="248"/>
      <point x="514" y="308" type="curve" smooth="yes"/>
      <point x="514" y="339"/>
      <point x="513" y="355"/>
      <point x="515" y="371" type="curve" smooth="yes"/>
      <point x="524" y="462"/>
      <point x="532" y="580"/>
      <point x="532" y="637" type="curve" smooth="yes"/>
      <point x="532" y="677"/>
      <point x="520" y="730"/>
      <point x="479" y="730" type="curve" smooth="yes"/>
      <point x="450" y="730"/>
      <point x="425" y="696"/>
      <point x="440" y="671" type="curve" smooth="yes"/>
      <point x="446" y="661"/>
      <point x="449" y="637"/>
      <point x="449" y="584" type="curve" smooth="yes"/>
      <point x="449" y="538"/>
      <point x="448" y="501"/>
      <point x="447" y="476" type="curve" smooth="yes"/>
      <point x="446" y="438"/>
      <point x="445" y="381"/>
      <point x="442" y="341" type="curve" smooth="yes"/>
      <point x="430" y="174"/>
      <point x="292" y="50"/>
      <point x="202" y="50" type="curve" smooth="yes"/>
      <point x="154" y="50"/>
      <point x="104" y="95"/>
      <point x="104" y="172" type="curve" smooth="yes"/>
      <point x="104" y="309"/>
      <point x="202" y="420"/>
      <point x="279" y="420" type="curve" smooth="yes"/>
      <point x="324" y="420"/>
      <point x="352" y="398"/>
      <point x="352" y="383" type="curve" smooth="yes"/>
      <point x="352" y="363"/>
      <point x="361" y="345"/>
      <point x="382" y="345" type="curve" smooth="yes"/>
      <point x="401" y="345"/>
      <point x="424" y="363"/>
      <point x="424" y="383" type="curve" smooth="yes"/>
      <point x="424" y="418"/>
      <point x="382" y="489"/>
      <point x="284" y="489" type="curve" smooth="yes"/>
      <point x="130" y="489"/>
      <point x="32" y="311"/>
      <point x="32" y="178" type="curve" smooth="yes"/>
      <point x="32" y="42"/>
      <point x="108" y="-19"/>
      <point x="184" y="-19" type="curve" smooth="yes"/>
      <point x="278" y="-19"/>
      <point x="372" y="35"/>
      <point x="445" y="160" type="curve"/>
      <point x="444" y="135"/>
      <point x="444" y="69"/>
      <point x="444" y="44" type="curve" smooth="yes"/>
      <point x="444" y="1"/>
      <point x="454" y="-11"/>
    </contour>
  </outline>
</glyph>
<glyph name="e" format="1">
  <advance width="506"/>
  <unicode hex="0065"/>
  <outline>
    <contour>
      <point x="282" y="522" type="move" name="top"/>
    </contour>
    <contour>
      <point x="321" y="480" type="curve" smooth="yes"/>
      <point x="133" y="480"/>
      <point x="32" y="343"/>
      <point x="32" y="214" type="curve" smooth="yes"/>
      <point x="32" y="87"/>
      <point x="112" y="-17"/>
      <point x="309" y="-17" type="curve" smooth="yes"/>
      <point x="390" y="-17"/>
      <point x="455" y="-5"/>
      <point x="455" y="36" type="curve" smooth="yes"/>
      <point x="455" y="68"/>
      <point x="442" y="81"/>
      <point x="426" y="81" type="curve" smooth="yes"/>
      <point x="415" y="81"/>
      <point x="409" y="78"/>
      <point x="399" y="71" type="curve" smooth="yes"/>
      <point x="382" y="60"/>
      <point x="358" y="47"/>
      <point x="298" y="47" type="curve" smooth="yes"/>
      <point x="176" y="47"/>
      <point x="107" y="100"/>
      <point x="107" y="221" type="curve" smooth="yes"/>
      <point x="107" y="341"/>
      <point x="198" y="417"/>
      <point x="311" y="417" type="curve" smooth="yes"/>
      <point x="370" y="417"/>
      <point x="408" y="388"/>
      <point x="408" y="355" type="curve" smooth="yes"/>
      <point x="408" y="280"/>
      <point x="252" y="267"/>
      <point x="161" y="267" type="curve" smooth="yes"/>
      <point x="144" y="267"/>
      <point x="129" y="259"/>
      <point x="129" y="236" type="curve" smooth="yes"/>
      <point x="129" y="209"/>
      <point x="152" y="198"/>
      <point x="176" y="198" type="curve" smooth="yes"/>
      <point x="209" y="198"/>
      <point x="234" y="208"/>
      <point x="264" y="211" type="curve" smooth="yes"/>
      <point x="366" y="219"/>
      <point x="479" y="260"/>
      <point x="479" y="343" type="curve" smooth="yes"/>
      <point x="479" y="432"/>
      <point x="389" y="480"/>
    </contour>
  </outline>
</glyph>
<glyph name="f" format="1">
  <advance width="385"/>
  <unicode hex="0066"/>
  <outline>
    <contour>
      <point x="52" y="471" type="curve" smooth="yes"/>
      <point x="34" y="471"/>
      <point x="19" y="449"/>
      <point x="19" y="431" type="curve" smooth="yes"/>
      <point x="19" y="422"/>
      <point x="26" y="389"/>
      <point x="51" y="389" type="curve" smooth="yes"/>
      <point x="63" y="389"/>
      <point x="74" y="392"/>
      <point x="87" y="395" type="curve" smooth="yes"/>
      <point x="102" y="397"/>
      <point x="114" y="399"/>
      <point x="142" y="402" type="curve"/>
      <point x="138" y="357"/>
      <point x="134" y="324"/>
      <point x="133" y="296" type="curve" smooth="yes"/>
      <point x="127" y="178"/>
      <point x="118" y="120"/>
      <point x="110" y="83" type="curve" smooth="yes"/>
      <point x="107" y="66"/>
      <point x="105" y="55"/>
      <point x="105" y="36" type="curve" smooth="yes"/>
      <point x="105" y="8"/>
      <point x="121" y="-12"/>
      <point x="156" y="-12" type="curve" smooth="yes"/>
      <point x="179" y="-12"/>
      <point x="199" y="-3"/>
      <point x="199" y="38" type="curve" smooth="yes"/>
      <point x="199" y="151"/>
      <point x="202" y="281"/>
      <point x="218" y="405" type="curve"/>
      <point x="265" y="404"/>
      <point x="311" y="401"/>
      <point x="358" y="401" type="curve" smooth="yes"/>
      <point x="386" y="401"/>
      <point x="396" y="409"/>
      <point x="396" y="429" type="curve" smooth="yes"/>
      <point x="396" y="446"/>
      <point x="389" y="474"/>
      <point x="366" y="474" type="curve" smooth="yes"/>
      <point x="345" y="474"/>
      <point x="322" y="472"/>
      <point x="297" y="469" type="curve" smooth="yes"/>
      <point x="279" y="466"/>
      <point x="264" y="465"/>
      <point x="226" y="464" type="curve"/>
      <point x="257" y="606"/>
      <point x="299" y="667"/>
      <point x="370" y="667" type="curve" smooth="yes"/>
      <point x="404" y="667"/>
      <point x="418" y="654"/>
      <point x="418" y="634" type="curve" smooth="yes"/>
      <point x="418" y="611"/>
      <point x="399" y="599"/>
      <point x="399" y="579" type="curve" smooth="yes"/>
      <point x="399" y="564"/>
      <point x="412" y="549"/>
      <point x="441" y="549" type="curve" smooth="yes"/>
      <point x="491" y="549"/>
      <point x="490" y="574"/>
      <point x="490" y="642" type="curve" smooth="yes"/>
      <point x="490" y="681"/>
      <point x="452" y="733"/>
      <point x="383" y="733" type="curve" smooth="yes"/>
      <point x="273" y="733"/>
      <point x="194" y="656"/>
      <point x="151" y="465" type="curve"/>
      <point x="133" y="465"/>
      <point x="125" y="466"/>
      <point x="115" y="467" type="curve" smooth="yes"/>
      <point x="92" y="470"/>
      <point x="72" y="471"/>
    </contour>
  </outline>
</glyph>
<glyph name="g" format="1">
  <advance width="530"/>
  <unicode hex="0067"/>
  <outline>
    <contour>
      <point x="294" y="518" type="move" name="top"/>
    </contour>
    <contour>
      <point x="309" y="478" type="curve" smooth="yes"/>
      <point x="129" y="478"/>
      <point x="34" y="291"/>
      <point x="34" y="160" type="curve" smooth="yes"/>
      <point x="34" y="12"/>
      <point x="144" y="-8"/>
      <point x="192" y="-8" type="curve" smooth="yes"/>
      <point x="251" y="-8"/>
      <point x="321" y="14"/>
      <point x="389" y="77" type="curve"/>
      <point x="373" y="-70"/>
      <point x="345" y="-291"/>
      <point x="229" y="-291" type="curve" smooth="yes"/>
      <point x="192" y="-291"/>
      <point x="129" y="-270"/>
      <point x="113" y="-253" type="curve" smooth="yes"/>
      <point x="97" y="-239"/>
      <point x="90" y="-212"/>
      <point x="66" y="-212" type="curve" smooth="yes"/>
      <point x="42" y="-212"/>
      <point x="33" y="-252"/>
      <point x="33" y="-273" type="curve" smooth="yes"/>
      <point x="33" y="-302"/>
      <point x="75" y="-312"/>
      <point x="96" y="-322" type="curve" smooth="yes"/>
      <point x="131" y="-339"/>
      <point x="177" y="-360"/>
      <point x="227" y="-360" type="curve" smooth="yes"/>
      <point x="349" y="-360"/>
      <point x="391" y="-263"/>
      <point x="405" y="-219" type="curve" smooth="yes"/>
      <point x="447" y="-78"/>
      <point x="474" y="181"/>
      <point x="474" y="289" type="curve" smooth="yes"/>
      <point x="474" y="352"/>
      <point x="455" y="478"/>
    </contour>
    <contour>
      <point x="378" y="173" type="curve" smooth="yes"/>
      <point x="358" y="135"/>
      <point x="298" y="55"/>
      <point x="194" y="55" type="curve" smooth="yes"/>
      <point x="143" y="55"/>
      <point x="114" y="107"/>
      <point x="114" y="151" type="curve" smooth="yes"/>
      <point x="114" y="283"/>
      <point x="196" y="411"/>
      <point x="287" y="411" type="curve" smooth="yes"/>
      <point x="378" y="411"/>
      <point x="398" y="349"/>
      <point x="398" y="320" type="curve" smooth="yes"/>
      <point x="398" y="284"/>
      <point x="397" y="240"/>
      <point x="396" y="190" type="curve"/>
      <point x="386" y="186"/>
      <point x="380" y="177"/>
    </contour>
  </outline>
</glyph>
<glyph name="h" format="1">
  <advance width="568"/>
  <unicode hex="0068"/>
  <outline>
    <contour>
      <point x="127" y="765" type="move" name="top"/>
    </contour>
    <contour>
      <point x="124" y="730" type="curve" smooth="yes"/>
      <point x="103" y="730"/>
      <point x="68" y="710"/>
      <point x="68" y="689" type="curve" smooth="yes"/>
      <point x="68" y="669"/>
      <point x="79" y="652"/>
      <point x="79" y="633" type="curve" smooth="yes"/>
      <point x="79" y="587" type="line" smooth="yes"/>
      <point x="79" y="460"/>
      <point x="76" y="216"/>
      <point x="61" y="110" type="curve"/>
      <point x="56" y="85"/>
      <point x="46" y="62"/>
      <point x="46" y="36" type="curve" smooth="yes"/>
      <point x="46" y="4"/>
      <point x="76" y="-3"/>
      <point x="96" y="-3" type="curve" smooth="yes"/>
      <point x="119" y="-3"/>
      <point x="144" y="54"/>
      <point x="145" y="211" type="curve"/>
      <point x="157" y="272"/>
      <point x="216" y="409"/>
      <point x="326" y="409" type="curve" smooth="yes"/>
      <point x="398" y="409"/>
      <point x="441" y="330"/>
      <point x="441" y="198" type="curve" smooth="yes"/>
      <point x="441" y="146"/>
      <point x="435" y="117"/>
      <point x="430" y="92" type="curve" smooth="yes"/>
      <point x="426" y="75"/>
      <point x="423" y="58"/>
      <point x="423" y="35" type="curve" smooth="yes"/>
      <point x="423" y="18"/>
      <point x="446" y="-7"/>
      <point x="464" y="-7" type="curve" smooth="yes"/>
      <point x="490" y="-7"/>
      <point x="507" y="19"/>
      <point x="506" y="41" type="curve" smooth="yes"/>
      <point x="503" y="89"/>
      <point x="512" y="133"/>
      <point x="512" y="179" type="curve" smooth="yes"/>
      <point x="512" y="346"/>
      <point x="461" y="478"/>
      <point x="338" y="478" type="curve" smooth="yes"/>
      <point x="250" y="478"/>
      <point x="188" y="419"/>
      <point x="147" y="363" type="curve"/>
      <point x="148" y="480"/>
      <point x="157" y="632"/>
      <point x="166" y="683" type="curve"/>
      <point x="169" y="711"/>
      <point x="150" y="730"/>
    </contour>
  </outline>
</glyph>
<glyph name="i" format="1">
  <advance width="213"/>
  <unicode hex="0069"/>
  <outline>
    <contour>
      <point x="121" y="480" type="curve" smooth="yes"/>
      <point x="96" y="480"/>
      <point x="71" y="459"/>
      <point x="71" y="428" type="curve" smooth="yes"/>
      <point x="71" y="390"/>
      <point x="78" y="354"/>
      <point x="78" y="318" type="curve" smooth="yes"/>
      <point x="78" y="243"/>
      <point x="69" y="167"/>
      <point x="63" y="120" type="curve" smooth="yes"/>
      <point x="59" y="93"/>
      <point x="58" y="87"/>
      <point x="57" y="80" type="curve" smooth="yes"/>
      <point x="51" y="27"/>
      <point x="68" y="-6"/>
      <point x="121" y="-6" type="curve" smooth="yes"/>
      <point x="162" y="-6"/>
      <point x="166" y="10"/>
      <point x="167" y="23" type="curve" smooth="yes"/>
      <point x="168" y="34"/>
      <point x="161" y="38"/>
      <point x="153" y="42" type="curve" smooth="yes"/>
      <point x="140" y="50"/>
      <point x="133" y="62"/>
      <point x="133" y="86" type="curve" smooth="yes"/>
      <point x="133" y="139"/>
      <point x="142" y="243"/>
      <point x="151" y="336" type="curve" smooth="yes"/>
      <point x="157" y="392"/>
      <point x="160" y="430"/>
      <point x="160" y="440" type="curve" smooth="yes"/>
      <point x="160" y="457"/>
      <point x="142" y="480"/>
    </contour>
    <contour>
      <point x="118" y="702" type="curve" smooth="yes"/>
      <point x="106" y="702"/>
      <point x="79" y="681"/>
      <point x="79" y="658" type="curve" smooth="yes"/>
      <point x="79" y="626"/>
      <point x="98" y="590"/>
      <point x="122" y="590" type="curve" smooth="yes"/>
      <point x="163" y="590"/>
      <point x="176" y="623"/>
      <point x="176" y="637" type="curve" smooth="yes"/>
      <point x="176" y="663"/>
      <point x="143" y="702"/>
    </contour>
  </outline>
</glyph>
<glyph name="j" format="1">
  <advance width="215"/>
  <unicode hex="006A"/>
  <outline>
    <contour>
      <point x="105" y="477" type="curve" smooth="yes"/>
      <point x="85" y="477"/>
      <point x="50" y="455"/>
      <point x="50" y="424" type="curve" smooth="yes"/>
      <point x="50" y="406"/>
      <point x="57" y="381"/>
      <point x="60" y="372" type="curve" smooth="yes"/>
      <point x="75" y="331"/>
      <point x="82" y="111"/>
      <point x="82" y="-72" type="curve" smooth="yes"/>
      <point x="82" y="-121"/>
      <point x="76" y="-208"/>
      <point x="-2" y="-208" type="curve" smooth="yes"/>
      <point x="-44" y="-208"/>
      <point x="-69" y="-193"/>
      <point x="-90" y="-180" type="curve" smooth="yes"/>
      <point x="-107" y="-170"/>
      <point x="-123" y="-160"/>
      <point x="-149" y="-160" type="curve" smooth="yes"/>
      <point x="-171" y="-160"/>
      <point x="-178" y="-185"/>
      <point x="-178" y="-203" type="curve" smooth="yes"/>
      <point x="-178" y="-224"/>
      <point x="-161" y="-246"/>
      <point x="-147" y="-246" type="curve" smooth="yes"/>
      <point x="-124" y="-247"/>
      <point x="-106" y="-252"/>
      <point x="-78" y="-260" type="curve" smooth="yes"/>
      <point x="-53" y="-266"/>
      <point x="-24" y="-274"/>
      <point x="9" y="-274" type="curve" smooth="yes"/>
      <point x="90" y="-274"/>
      <point x="155" y="-220"/>
      <point x="155" y="-84" type="curve" smooth="yes"/>
      <point x="155" y="-35"/>
      <point x="153" y="-5"/>
      <point x="152" y="25" type="curve" smooth="yes"/>
      <point x="152" y="96"/>
      <point x="147" y="197"/>
      <point x="147" y="266" type="curve" smooth="yes"/>
      <point x="146" y="343"/>
      <point x="150" y="384"/>
      <point x="152" y="408" type="curve" smooth="yes"/>
      <point x="153" y="418"/>
      <point x="154" y="427"/>
      <point x="154" y="432" type="curve" smooth="yes"/>
      <point x="154" y="456"/>
      <point x="132" y="477"/>
    </contour>
    <contour>
      <point x="96" y="720" type="curve" smooth="yes"/>
      <point x="80" y="720"/>
      <point x="44" y="703"/>
      <point x="44" y="658" type="curve" smooth="yes"/>
      <point x="44" y="631"/>
      <point x="74" y="608"/>
      <point x="96" y="608" type="curve" smooth="yes"/>
      <point x="121" y="608"/>
      <point x="148" y="639"/>
      <point x="148" y="673" type="curve" smooth="yes"/>
      <point x="148" y="688"/>
      <point x="120" y="720"/>
    </contour>
  </outline>
</glyph>
<glyph name="k" format="1">
  <advance width="497"/>
  <unicode hex="006B"/>
  <outline>
    <contour>
      <point x="417" y="464" type="curve" smooth="yes"/>
      <point x="387" y="464"/>
      <point x="371" y="425"/>
      <point x="352" y="408" type="curve" smooth="yes"/>
      <point x="294" y="353"/>
      <point x="209" y="309"/>
      <point x="142" y="261" type="curve"/>
      <point x="143" y="297"/>
      <point x="144" y="328"/>
      <point x="145" y="358" type="curve" smooth="yes"/>
      <point x="148" y="491"/>
      <point x="148" y="629"/>
      <point x="148" y="652" type="curve" smooth="yes"/>
      <point x="148" y="712"/>
      <point x="127" y="716"/>
      <point x="115" y="716" type="curve" smooth="yes"/>
      <point x="86" y="716"/>
      <point x="58" y="681"/>
      <point x="58" y="664" type="curve" smooth="yes"/>
      <point x="58" y="642"/>
      <point x="68" y="624"/>
      <point x="70" y="605" type="curve" smooth="yes"/>
      <point x="71" y="584"/>
      <point x="73" y="562"/>
      <point x="73" y="532" type="curve" smooth="yes"/>
      <point x="73" y="436"/>
      <point x="71" y="363"/>
      <point x="71" y="291" type="curve" smooth="yes"/>
      <point x="71" y="270"/>
      <point x="71" y="251"/>
      <point x="70" y="228" type="curve"/>
      <point x="63" y="223"/>
      <point x="59" y="218"/>
      <point x="59" y="211" type="curve" smooth="yes"/>
      <point x="59" y="203"/>
      <point x="62" y="193"/>
      <point x="69" y="181" type="curve"/>
      <point x="65" y="112"/>
      <point x="62" y="74"/>
      <point x="56" y="53" type="curve" smooth="yes"/>
      <point x="54" y="44"/>
      <point x="52" y="37"/>
      <point x="52" y="32" type="curve" smooth="yes"/>
      <point x="52" y="16"/>
      <point x="76" y="-8"/>
      <point x="91" y="-8" type="curve" smooth="yes"/>
      <point x="107" y="-8"/>
      <point x="141" y="9"/>
      <point x="141" y="38" type="curve" smooth="yes"/>
      <point x="141" y="70"/>
      <point x="142" y="120"/>
      <point x="142" y="159" type="curve"/>
      <point x="145" y="160"/>
      <point x="146" y="161"/>
      <point x="150" y="161" type="curve"/>
      <point x="194" y="154"/>
      <point x="372" y="34"/>
      <point x="381" y="25" type="curve" smooth="yes"/>
      <point x="402" y="1"/>
      <point x="424" y="-11"/>
      <point x="444" y="-11" type="curve" smooth="yes"/>
      <point x="465" y="-11"/>
      <point x="476" y="12"/>
      <point x="476" y="25" type="curve" smooth="yes"/>
      <point x="476" y="56"/>
      <point x="466" y="63"/>
      <point x="448" y="72" type="curve"/>
      <point x="415" y="88"/>
      <point x="383" y="106"/>
      <point x="332" y="137" type="curve" smooth="yes"/>
      <point x="286" y="164"/>
      <point x="241" y="192"/>
      <point x="191" y="218" type="curve"/>
      <point x="227" y="242"/>
      <point x="248" y="257"/>
      <point x="274" y="273" type="curve" smooth="yes"/>
      <point x="297" y="288"/>
      <point x="319" y="302"/>
      <point x="351" y="322" type="curve" smooth="yes"/>
      <point x="394" y="349"/>
      <point x="440" y="376"/>
      <point x="449" y="395" type="curve"/>
      <point x="455" y="422"/>
      <point x="450" y="464"/>
    </contour>
  </outline>
</glyph>
<glyph name="l" format="1">
  <advance width="233"/>
  <unicode hex="006C"/>
  <outline>
    <contour>
      <point x="123" y="743" type="move" name="top"/>
    </contour>
    <contour>
      <point x="209" y="23" type="curve" smooth="yes"/>
      <point x="209" y="47"/>
      <point x="197" y="52"/>
      <point x="180" y="56" type="curve" smooth="yes"/>
      <point x="174" y="57"/>
      <point x="168" y="57"/>
      <point x="159" y="60" type="curve"/>
      <point x="149" y="80"/>
      <point x="141" y="106"/>
      <point x="141" y="178" type="curve" smooth="yes"/>
      <point x="141" y="334"/>
      <point x="153" y="487"/>
      <point x="174" y="614" type="curve" smooth="yes"/>
      <point x="176" y="629"/>
      <point x="177" y="642"/>
      <point x="177" y="646" type="curve" smooth="yes"/>
      <point x="177" y="664"/>
      <point x="158" y="708"/>
      <point x="123" y="708" type="curve" smooth="yes"/>
      <point x="104" y="708"/>
      <point x="80" y="688"/>
      <point x="80" y="668" type="curve" smooth="yes"/>
      <point x="80" y="653"/>
      <point x="88" y="631"/>
      <point x="88" y="611" type="curve" smooth="yes"/>
      <point x="85" y="497"/>
      <point x="78" y="386"/>
      <point x="73" y="274" type="curve" smooth="yes"/>
      <point x="69" y="199"/>
      <point x="66" y="131"/>
      <point x="66" y="72" type="curve" smooth="yes"/>
      <point x="66" y="16"/>
      <point x="114" y="-15"/>
      <point x="152" y="-15" type="curve" smooth="yes"/>
      <point x="177" y="-15"/>
      <point x="209" y="-5"/>
    </contour>
  </outline>
</glyph>
<glyph name="m" format="1">
  <advance width="869"/>
  <unicode hex="006D"/>
  <outline>
    <contour>
      <point x="128" y="473" type="curve" smooth="yes"/>
      <point x="97" y="473"/>
      <point x="71" y="463"/>
      <point x="71" y="427" type="curve" smooth="yes"/>
      <point x="71" y="392"/>
      <point x="80" y="362"/>
      <point x="80" y="330" type="curve" smooth="yes"/>
      <point x="80" y="170"/>
      <point x="68" y="116"/>
      <point x="58" y="81" type="curve" smooth="yes"/>
      <point x="53" y="64"/>
      <point x="50" y="52"/>
      <point x="50" y="33" type="curve" smooth="yes"/>
      <point x="50" y="-3"/>
      <point x="72" y="-10"/>
      <point x="97" y="-10" type="curve" smooth="yes"/>
      <point x="120" y="-10"/>
      <point x="142" y="17"/>
      <point x="142" y="91" type="curve" smooth="yes"/>
      <point x="142" y="160"/>
      <point x="153" y="221"/>
      <point x="153" y="283" type="curve"/>
      <point x="173" y="349"/>
      <point x="233" y="406"/>
      <point x="294" y="406" type="curve" smooth="yes"/>
      <point x="361" y="406"/>
      <point x="399" y="357"/>
      <point x="399" y="234" type="curve" smooth="yes"/>
      <point x="399" y="200"/>
      <point x="395" y="152"/>
      <point x="391" y="114" type="curve" smooth="yes"/>
      <point x="385" y="71"/>
      <point x="381" y="48"/>
      <point x="381" y="38" type="curve" smooth="yes"/>
      <point x="381" y="-3"/>
      <point x="403" y="-4"/>
      <point x="416" y="-4" type="curve" smooth="yes"/>
      <point x="460" y="-4"/>
      <point x="467" y="39"/>
      <point x="467" y="49" type="curve" smooth="yes"/>
      <point x="467" y="79"/>
      <point x="476" y="224"/>
      <point x="484" y="263" type="curve"/>
      <point x="495" y="284"/>
      <point x="548" y="400"/>
      <point x="630" y="400" type="curve" smooth="yes"/>
      <point x="681" y="400"/>
      <point x="731" y="378"/>
      <point x="731" y="243" type="curve" smooth="yes"/>
      <point x="731" y="208"/>
      <point x="729" y="165"/>
      <point x="719" y="104" type="curve" smooth="yes"/>
      <point x="713" y="72"/>
      <point x="707" y="46"/>
      <point x="707" y="24" type="curve" smooth="yes"/>
      <point x="707" y="3"/>
      <point x="724" y="-7"/>
      <point x="749" y="-7" type="curve" smooth="yes"/>
      <point x="773" y="-7"/>
      <point x="792" y="6"/>
      <point x="793" y="27" type="curve" smooth="yes"/>
      <point x="794" y="53"/>
      <point x="797" y="78"/>
      <point x="800" y="110" type="curve" smooth="yes"/>
      <point x="804" y="166"/>
      <point x="808" y="211"/>
      <point x="808" y="251" type="curve" smooth="yes"/>
      <point x="808" y="383"/>
      <point x="743" y="468"/>
      <point x="641" y="468" type="curve" smooth="yes"/>
      <point x="546" y="468"/>
      <point x="489" y="401"/>
      <point x="455" y="354" type="curve"/>
      <point x="432" y="434"/>
      <point x="370" y="473"/>
      <point x="312" y="473" type="curve" smooth="yes"/>
      <point x="246" y="473"/>
      <point x="194" y="444"/>
      <point x="150" y="394" type="curve"/>
      <point x="150" y="407"/>
      <point x="152" y="418"/>
      <point x="153" y="425" type="curve" smooth="yes"/>
      <point x="156" y="446"/>
      <point x="154" y="473"/>
    </contour>
  </outline>
</glyph>
<glyph name="n" format="1">
  <advance width="579"/>
  <unicode hex="006E"/>
  <outline>
    <contour>
      <point x="297" y="520" type="move" name="top"/>
    </contour>
    <contour>
      <point x="59" y="426" type="curve"/>
      <point x="59" y="407"/>
      <point x="74" y="378"/>
      <point x="74" y="352" type="curve" smooth="yes"/>
      <point x="74" y="295"/>
      <point x="71" y="238"/>
      <point x="64" y="173" type="curve" smooth="yes"/>
      <point x="59" y="125"/>
      <point x="53" y="72"/>
      <point x="53" y="33" type="curve" smooth="yes"/>
      <point x="53" y="9"/>
      <point x="80" y="-10"/>
      <point x="98" y="-10" type="curve" smooth="yes"/>
      <point x="137" y="-10"/>
      <point x="143" y="98"/>
      <point x="143" y="224" type="curve" smooth="yes"/>
      <point x="143" y="251"/>
      <point x="154" y="276"/>
      <point x="162" y="293" type="curve" smooth="yes"/>
      <point x="171" y="313"/>
      <point x="236" y="416"/>
      <point x="331" y="416" type="curve" smooth="yes"/>
      <point x="423" y="416"/>
      <point x="450" y="316"/>
      <point x="450" y="244" type="curve" smooth="yes"/>
      <point x="450" y="137"/>
      <point x="435" y="89"/>
      <point x="423" y="61" type="curve" smooth="yes"/>
      <point x="420" y="55"/>
      <point x="417" y="48"/>
      <point x="417" y="43" type="curve" smooth="yes"/>
      <point x="417" y="20"/>
      <point x="427" y="-8"/>
      <point x="449" y="-8" type="curve" smooth="yes"/>
      <point x="492" y="-8"/>
      <point x="503" y="23"/>
      <point x="511" y="62" type="curve" smooth="yes"/>
      <point x="518" y="98"/>
      <point x="523" y="171"/>
      <point x="523" y="242" type="curve" smooth="yes"/>
      <point x="523" y="387"/>
      <point x="457" y="479"/>
      <point x="344" y="479" type="curve" smooth="yes"/>
      <point x="251" y="479"/>
      <point x="191" y="427"/>
      <point x="144" y="368" type="curve"/>
      <point x="150" y="413"/>
      <point x="150" y="414"/>
      <point x="150" y="423" type="curve" smooth="yes"/>
      <point x="149" y="462"/>
      <point x="141" y="480"/>
      <point x="121" y="480" type="curve" smooth="yes"/>
      <point x="87" y="480"/>
      <point x="59" y="460"/>
    </contour>
  </outline>
</glyph>
<glyph name="o" format="1">
  <advance width="514"/>
  <unicode hex="006F"/>
  <outline>
    <contour>
      <point x="254" y="528" type="move" name="top"/>
    </contour>
    <contour>
      <point x="248" y="487" type="curve" smooth="yes"/>
      <point x="140" y="487"/>
      <point x="32" y="358"/>
      <point x="32" y="177" type="curve" smooth="yes"/>
      <point x="32" y="70"/>
      <point x="112" y="-12"/>
      <point x="216" y="-12" type="curve" smooth="yes"/>
      <point x="422" y="-12"/>
      <point x="481" y="145"/>
      <point x="481" y="236" type="curve" smooth="yes"/>
      <point x="481" y="434"/>
      <point x="334" y="487"/>
    </contour>
    <contour>
      <point x="240" y="417" type="curve" smooth="yes"/>
      <point x="337" y="417"/>
      <point x="410" y="347"/>
      <point x="410" y="256" type="curve" smooth="yes"/>
      <point x="410" y="157"/>
      <point x="344" y="56"/>
      <point x="234" y="56" type="curve" smooth="yes"/>
      <point x="169" y="56"/>
      <point x="104" y="101"/>
      <point x="104" y="187" type="curve" smooth="yes"/>
      <point x="104" y="292"/>
      <point x="168" y="417"/>
    </contour>
  </outline>
</glyph>
<glyph name="p" format="1">
  <advance width="540"/>
  <unicode hex="0070"/>
  <outline>
    <contour>
      <point x="92" y="480" type="curve" smooth="yes"/>
      <point x="70" y="480"/>
      <point x="52" y="464"/>
      <point x="52" y="439" type="curve" smooth="yes"/>
      <point x="52" y="425"/>
      <point x="54" y="397"/>
      <point x="57" y="367" type="curve" smooth="yes"/>
      <point x="63" y="302"/>
      <point x="68" y="254"/>
      <point x="68" y="214" type="curve" smooth="yes"/>
      <point x="68" y="179"/>
      <point x="62" y="105"/>
      <point x="56" y="6" type="curve" smooth="yes"/>
      <point x="47" y="-140"/>
      <point x="43" y="-210"/>
      <point x="43" y="-239" type="curve" smooth="yes"/>
      <point x="43" y="-270"/>
      <point x="73" y="-303"/>
      <point x="96" y="-303" type="curve" smooth="yes"/>
      <point x="125" y="-303"/>
      <point x="131" y="-271"/>
      <point x="131" y="-244" type="curve" smooth="yes"/>
      <point x="131" y="-215"/>
      <point x="120" y="-191"/>
      <point x="120" y="-165" type="curve" smooth="yes"/>
      <point x="120" y="-151"/>
      <point x="125" y="-72"/>
      <point x="127" y="-47" type="curve" smooth="yes"/>
      <point x="127" y="-40"/>
      <point x="128" y="-27"/>
      <point x="129" y="-11" type="curve"/>
      <point x="150" y="-6"/>
      <point x="167" y="-5"/>
      <point x="195" y="-5" type="curve" smooth="yes"/>
      <point x="358" y="-4"/>
      <point x="506" y="109"/>
      <point x="506" y="233" type="curve" smooth="yes"/>
      <point x="506" y="358"/>
      <point x="390" y="487"/>
      <point x="169" y="487" type="curve" smooth="yes"/>
      <point x="139" y="487"/>
      <point x="121" y="482"/>
      <point x="110" y="470" type="curve"/>
      <point x="105" y="477"/>
      <point x="96" y="480"/>
    </contour>
    <contour>
      <point x="203" y="420" type="curve" smooth="yes"/>
      <point x="333" y="420"/>
      <point x="425" y="349"/>
      <point x="425" y="234" type="curve" smooth="yes"/>
      <point x="425" y="140"/>
      <point x="321" y="61"/>
      <point x="190" y="61" type="curve" smooth="yes"/>
      <point x="177" y="61"/>
      <point x="152" y="63"/>
      <point x="134" y="63" type="curve"/>
      <point x="140" y="143"/>
      <point x="142" y="197"/>
      <point x="142" y="220" type="curve" smooth="yes"/>
      <point x="142" y="261"/>
      <point x="142" y="337"/>
      <point x="140" y="401" type="curve"/>
      <point x="168" y="406"/>
      <point x="185" y="420"/>
    </contour>
  </outline>
</glyph>
<glyph name="q" format="1">
  <advance width="541"/>
  <unicode hex="0071"/>
  <outline>
    <contour>
      <point x="504" y="-253" type="curve" smooth="yes"/>
      <point x="504" y="-225"/>
      <point x="494" y="-203"/>
      <point x="491" y="-178" type="curve" smooth="yes"/>
      <point x="485" y="-132"/>
      <point x="476" y="44"/>
      <point x="476" y="145" type="curve" smooth="yes"/>
      <point x="476" y="185"/>
      <point x="477" y="224"/>
      <point x="480" y="258" type="curve" smooth="yes"/>
      <point x="483" y="287"/>
      <point x="485" y="319"/>
      <point x="485" y="347" type="curve" smooth="yes"/>
      <point x="485" y="453"/>
      <point x="456" y="478"/>
      <point x="422" y="478" type="curve" smooth="yes"/>
      <point x="396" y="478"/>
      <point x="383" y="461"/>
      <point x="381" y="429" type="curve"/>
      <point x="364" y="452"/>
      <point x="308" y="479"/>
      <point x="235" y="479" type="curve" smooth="yes"/>
      <point x="139" y="479"/>
      <point x="37" y="406"/>
      <point x="37" y="241" type="curve" smooth="yes"/>
      <point x="37" y="121"/>
      <point x="99" y="-5"/>
      <point x="237" y="-5" type="curve" smooth="yes"/>
      <point x="292" y="-5"/>
      <point x="344" y="14"/>
      <point x="409" y="66" type="curve"/>
      <point x="412" y="21"/>
      <point x="412" y="-14"/>
      <point x="412" y="-42" type="curve" smooth="yes"/>
      <point x="412" y="-117"/>
      <point x="412" y="-191"/>
      <point x="412" y="-223" type="curve" smooth="yes"/>
      <point x="412" y="-238"/>
      <point x="411" y="-252"/>
      <point x="411" y="-256" type="curve" smooth="yes"/>
      <point x="411" y="-285"/>
      <point x="431" y="-297"/>
      <point x="453" y="-297" type="curve" smooth="yes"/>
      <point x="477" y="-297"/>
      <point x="504" y="-279"/>
    </contour>
    <contour>
      <point x="237" y="62" type="curve" smooth="yes"/>
      <point x="162" y="62"/>
      <point x="109" y="137"/>
      <point x="109" y="242" type="curve" smooth="yes"/>
      <point x="109" y="346"/>
      <point x="166" y="413"/>
      <point x="241" y="413" type="curve" smooth="yes"/>
      <point x="297" y="413"/>
      <point x="318" y="390"/>
      <point x="329" y="368" type="curve" smooth="yes"/>
      <point x="334" y="354"/>
      <point x="341" y="344"/>
      <point x="362" y="344" type="curve" smooth="yes"/>
      <point x="374" y="344"/>
      <point x="387" y="352"/>
      <point x="390" y="365" type="curve"/>
      <point x="399" y="315"/>
      <point x="403" y="244"/>
      <point x="407" y="160" type="curve"/>
      <point x="373" y="122"/>
      <point x="316" y="62"/>
    </contour>
  </outline>
</glyph>
<glyph name="r" format="1">
  <advance width="447"/>
  <unicode hex="0072"/>
  <outline>
    <contour>
      <point x="223" y="513" type="move" name="top"/>
    </contour>
    <contour>
      <point x="351" y="471" type="curve" smooth="yes"/>
      <point x="264" y="471"/>
      <point x="189" y="423"/>
      <point x="137" y="314" type="curve"/>
      <point x="140" y="338"/>
      <point x="143" y="391"/>
      <point x="143" y="411" type="curve" smooth="yes"/>
      <point x="143" y="446"/>
      <point x="131" y="473"/>
      <point x="90" y="473" type="curve" smooth="yes"/>
      <point x="67" y="473"/>
      <point x="50" y="463"/>
      <point x="50" y="434" type="curve" smooth="yes"/>
      <point x="50" y="418"/>
      <point x="66" y="398"/>
      <point x="68" y="377" type="curve"/>
      <point x="72" y="287"/>
      <point x="73" y="236"/>
      <point x="73" y="197" type="curve" smooth="yes"/>
      <point x="73" y="146"/>
      <point x="71" y="115"/>
      <point x="70" y="73" type="curve"/>
      <point x="70" y="52"/>
      <point x="62" y="37"/>
      <point x="62" y="18" type="curve" smooth="yes"/>
      <point x="62" y="5"/>
      <point x="84" y="-7"/>
      <point x="107" y="-7" type="curve" smooth="yes"/>
      <point x="129" y="-7"/>
      <point x="149" y="22"/>
      <point x="149" y="42" type="curve" smooth="yes"/>
      <point x="149" y="75"/>
      <point x="143" y="111"/>
      <point x="143" y="140" type="curve" smooth="yes"/>
      <point x="143" y="181"/>
      <point x="188" y="406"/>
      <point x="343" y="406" type="curve" smooth="yes"/>
      <point x="376" y="406"/>
      <point x="389" y="365"/>
      <point x="413" y="365" type="curve" smooth="yes"/>
      <point x="428" y="365"/>
      <point x="450" y="388"/>
      <point x="450" y="422" type="curve" smooth="yes"/>
      <point x="450" y="440"/>
      <point x="418" y="471"/>
    </contour>
  </outline>
</glyph>
<glyph name="s" format="1">
  <advance width="458"/>
  <unicode hex="0073"/>
  <outline>
    <contour>
      <point x="227" y="521" type="move" name="top"/>
    </contour>
    <contour>
      <point x="291" y="487" type="curve" smooth="yes"/>
      <point x="272" y="487"/>
      <point x="257" y="480"/>
      <point x="241" y="480" type="curve" smooth="yes"/>
      <point x="110" y="480"/>
      <point x="44" y="394"/>
      <point x="44" y="332" type="curve" smooth="yes"/>
      <point x="44" y="259"/>
      <point x="82" y="217"/>
      <point x="170" y="215" type="curve" smooth="yes"/>
      <point x="254" y="214"/>
      <point x="356" y="199"/>
      <point x="356" y="112" type="curve" smooth="yes"/>
      <point x="356" y="74"/>
      <point x="306" y="40"/>
      <point x="246" y="40" type="curve" smooth="yes"/>
      <point x="181" y="40"/>
      <point x="145" y="58"/>
      <point x="118" y="75" type="curve" smooth="yes"/>
      <point x="101" y="86"/>
      <point x="86" y="92"/>
      <point x="63" y="92" type="curve" smooth="yes"/>
      <point x="52" y="92"/>
      <point x="27" y="72"/>
      <point x="27" y="52" type="curve" smooth="yes"/>
      <point x="27" y="31"/>
      <point x="44" y="7"/>
      <point x="68" y="7" type="curve" smooth="yes"/>
      <point x="92" y="7"/>
      <point x="108" y="2"/>
      <point x="127" y="-3" type="curve" smooth="yes"/>
      <point x="147" y="-9"/>
      <point x="172" y="-15"/>
      <point x="217" y="-15" type="curve" smooth="yes"/>
      <point x="350" y="-15"/>
      <point x="427" y="35"/>
      <point x="427" y="128" type="curve" smooth="yes"/>
      <point x="427" y="231"/>
      <point x="327" y="276"/>
      <point x="185" y="277" type="curve" smooth="yes"/>
      <point x="143" y="277"/>
      <point x="118" y="291"/>
      <point x="118" y="331" type="curve" smooth="yes"/>
      <point x="118" y="368"/>
      <point x="154" y="421"/>
      <point x="215" y="421" type="curve" smooth="yes"/>
      <point x="264" y="421"/>
      <point x="288" y="399"/>
      <point x="295" y="391" type="curve" smooth="yes"/>
      <point x="304" y="381"/>
      <point x="310" y="375"/>
      <point x="324" y="375" type="curve" smooth="yes"/>
      <point x="342" y="375"/>
      <point x="371" y="396"/>
      <point x="371" y="410" type="curve" smooth="yes"/>
      <point x="371" y="444"/>
      <point x="318" y="487"/>
    </contour>
  </outline>
</glyph>
